<svg width="450" height="450" viewBox="0 0 450 450" fill="none" xmlns="http://www.w3.org/2000/svg">
<path d="M413.549 196.514C413.088 194.325 412.743 192.021 412.512 189.717C410.784 176.584 398.688 115.298 316.436 78.2032C223.815 36.3856 161.261 79.3552 123.706 113.224C86.1508 147.093 59.8852 218.286 38.5732 280.379C17.2612 342.472 67.3732 389.934 128.66 410.21C189.946 430.485 267.591 432.789 327.725 411.362C387.053 390.05 436.704 323.579 413.549 196.514Z" fill="#D0EB81"/>
<path opacity="0.75" d="M413.549 196.514C413.088 194.325 412.743 192.021 412.512 189.717C410.784 176.584 398.688 115.298 316.436 78.2032C223.815 36.3856 161.261 79.3552 123.706 113.224C86.1508 147.093 59.8852 218.286 38.5732 280.379C17.2612 342.472 67.3732 389.934 128.66 410.21C189.946 430.485 267.591 432.789 327.725 411.362C387.053 390.05 436.704 323.579 413.549 196.514Z" fill="white"/>
<path d="M285.906 32.2384V267.131L351.801 382.331H414.93" stroke="#27292E" stroke-miterlimit="10" stroke-linecap="round" stroke-linejoin="round"/>
<path d="M285.907 261.141H241.44L71.4044 404.68C61.8428 412.744 61.8428 427.374 71.2892 435.438C74.9756 438.549 79.5836 440.277 84.422 440.277H413.433" stroke="#27292E" stroke-miterlimit="10" stroke-linecap="round" stroke-linejoin="round"/>
<path d="M64.2617 422.997C64.2617 428.642 66.5657 434.402 71.2889 438.434C74.9753 441.544 79.5833 443.272 84.4217 443.272H413.433" stroke="#27292E" stroke-miterlimit="10" stroke-linecap="round" stroke-linejoin="round"/>
<path d="M36.7305 316.552L206.535 267.592" stroke="#27292E" stroke-miterlimit="10" stroke-linecap="round" stroke-linejoin="round"/>
<path d="M150.893 16.456V274.965L28.5508 303.074" stroke="#27292E" stroke-miterlimit="10" stroke-linecap="round" stroke-linejoin="round"/>
<path d="M176.812 268.974L205.382 262.984" stroke="#27292E" stroke-miterlimit="10"/>
<path d="M151.701 112.533L176.815 112.072V268.974L150.895 269.55" stroke="#27292E" stroke-miterlimit="10" stroke-linecap="round" stroke-linejoin="round"/>
<path d="M177.391 112.533L213.909 144.098V196.514" stroke="#27292E" stroke-miterlimit="10" stroke-linecap="round" stroke-linejoin="round"/>
<path d="M209.762 130.85V113.339H227.963V176.354" stroke="#27292E" stroke-miterlimit="10" stroke-linecap="round" stroke-linejoin="round"/>
<path d="M227.961 113.339L237.868 128.315V159.765H249.503V172.206" stroke="#27292E" stroke-miterlimit="10" stroke-linecap="round" stroke-linejoin="round"/>
<path d="M249.504 159.765L254.458 167.253" stroke="#27292E" stroke-miterlimit="10" stroke-linecap="round" stroke-linejoin="round"/>
<path d="M286.139 57.352H260.219V197.09H286.139V57.352Z" stroke="#27292E" stroke-miterlimit="10" stroke-linecap="round" stroke-linejoin="round"/>
<path d="M315.168 133.154H296.391V207.342H315.168V133.154Z" stroke="#27292E" stroke-miterlimit="10" stroke-linecap="round" stroke-linejoin="round"/>
<path d="M305.836 129.928L351.801 99.976" stroke="#27292E" stroke-miterlimit="10" stroke-linecap="round" stroke-linejoin="round"/>
<path d="M350.997 79.0096L295.355 126.587" stroke="#27292E" stroke-miterlimit="10" stroke-linecap="round" stroke-linejoin="round"/>
<path d="M351.804 39.0352L315.977 83.5024" stroke="#27292E" stroke-miterlimit="10" stroke-linecap="round" stroke-linejoin="round"/>
<path d="M315.629 189.026L351.802 180.846" stroke="#27292E" stroke-miterlimit="10" stroke-linecap="round" stroke-linejoin="round"/>
<path d="M288.902 195.016L296.045 193.288" stroke="#27292E" stroke-miterlimit="10" stroke-linecap="round" stroke-linejoin="round"/>
<path d="M351.801 382.331V25.7872" stroke="#27292E" stroke-miterlimit="10" stroke-linecap="round" stroke-linejoin="round"/>
<path d="M351.801 180.846H421.382" stroke="#27292E" stroke-miterlimit="10" stroke-linecap="round" stroke-linejoin="round"/>
<path d="M315.629 184.878L351.802 174.05" stroke="#27292E" stroke-miterlimit="10" stroke-linecap="round" stroke-linejoin="round"/>
<path d="M351.801 174.05H421.382" stroke="#27292E" stroke-miterlimit="10" stroke-linecap="round" stroke-linejoin="round"/>
<path d="M315.168 174.165L350.534 156.654H399.379" stroke="#27292E" stroke-miterlimit="10" stroke-linecap="round" stroke-linejoin="round"/>
<path d="M288.902 187.067L296.506 183.381" stroke="#27292E" stroke-miterlimit="10" stroke-linecap="round" stroke-linejoin="round"/>
<path d="M260.332 87.1888H285.215" stroke="#27292E" stroke-miterlimit="10" stroke-linecap="round" stroke-linejoin="round"/>
<path d="M260.332 114.722H285.215" stroke="#27292E" stroke-miterlimit="10" stroke-linecap="round" stroke-linejoin="round"/>
<path d="M260.332 142.254H285.215" stroke="#27292E" stroke-miterlimit="10" stroke-linecap="round" stroke-linejoin="round"/>
<path d="M260.332 169.672H285.215" stroke="#27292E" stroke-miterlimit="10" stroke-linecap="round" stroke-linejoin="round"/>
<path d="M332.565 133.384H291.208C290.287 133.384 289.48 132.578 289.48 131.656C289.48 130.734 290.287 129.928 291.208 129.928H332.565C333.487 129.928 334.293 130.734 334.293 131.656C334.293 132.578 333.487 133.384 332.565 133.384Z" stroke="#27292E" stroke-miterlimit="10"/>
<path d="M296.391 34.5424V117.371" stroke="#27292E" stroke-miterlimit="10" stroke-linecap="round" stroke-linejoin="round"/>
<path d="M305.492 27.0544V111.266" stroke="#27292E" stroke-miterlimit="10" stroke-linecap="round" stroke-linejoin="round"/>
<path d="M315.977 19.4512V101.589" stroke="#27292E" stroke-miterlimit="10" stroke-linecap="round" stroke-linejoin="round"/>
<path d="M315.977 65.7616L342.357 23.944" stroke="#27292E" stroke-miterlimit="10" stroke-linecap="round" stroke-linejoin="round"/>
<path d="M151.008 135.227H176.467L209.99 157.115" stroke="#27292E" stroke-miterlimit="10" stroke-linecap="round" stroke-linejoin="round"/>
<path d="M151.008 154.926H176.467L209.99 174.971" stroke="#27292E" stroke-miterlimit="10" stroke-linecap="round" stroke-linejoin="round"/>
<path d="M151.008 174.626H176.467L209.99 192.482" stroke="#27292E" stroke-miterlimit="10" stroke-linecap="round" stroke-linejoin="round"/>
<path d="M151.008 194.21H176.467L206.88 207.688" stroke="#27292E" stroke-miterlimit="10" stroke-linecap="round" stroke-linejoin="round"/>
<path d="M151.008 213.909H176.467L198.47 221.166" stroke="#27292E" stroke-miterlimit="10" stroke-linecap="round" stroke-linejoin="round"/>
<path d="M151.008 233.608H176.467L183.84 235.106" stroke="#27292E" stroke-miterlimit="10" stroke-linecap="round" stroke-linejoin="round"/>
<path d="M170.707 141.909H165.293V152.162H170.707V141.909Z" stroke="#27292E" stroke-miterlimit="10" stroke-linecap="round" stroke-linejoin="round"/>
<path d="M159.993 141.909H154.578V152.162H159.993V141.909Z" stroke="#27292E" stroke-miterlimit="10" stroke-linecap="round" stroke-linejoin="round"/>
<path d="M170.707 160.686H165.293V170.939H170.707V160.686Z" stroke="#27292E" stroke-miterlimit="10" stroke-linecap="round" stroke-linejoin="round"/>
<path d="M159.993 160.686H154.578V170.939H159.993V160.686Z" stroke="#27292E" stroke-miterlimit="10" stroke-linecap="round" stroke-linejoin="round"/>
<path d="M170.707 179.003H165.293V189.256H170.707V179.003Z" stroke="#27292E" stroke-miterlimit="10" stroke-linecap="round" stroke-linejoin="round"/>
<path d="M159.993 179.003H154.578V189.256H159.993V179.003Z" stroke="#27292E" stroke-miterlimit="10" stroke-linecap="round" stroke-linejoin="round"/>
<path d="M170.707 198.702H165.293V208.955H170.707V198.702Z" stroke="#27292E" stroke-miterlimit="10" stroke-linecap="round" stroke-linejoin="round"/>
<path d="M159.993 198.702H154.578V208.955H159.993V198.702Z" stroke="#27292E" stroke-miterlimit="10" stroke-linecap="round" stroke-linejoin="round"/>
<path d="M170.707 218.402H165.293V228.654H170.707V218.402Z" stroke="#27292E" stroke-miterlimit="10" stroke-linecap="round" stroke-linejoin="round"/>
<path d="M159.993 218.402H154.578V228.654H159.993V218.402Z" stroke="#27292E" stroke-miterlimit="10" stroke-linecap="round" stroke-linejoin="round"/>
<path d="M170.707 238.562H165.293V248.814H170.707V238.562Z" stroke="#27292E" stroke-miterlimit="10" stroke-linecap="round" stroke-linejoin="round"/>
<path d="M159.993 238.562H154.578V248.814H159.993V238.562Z" stroke="#27292E" stroke-miterlimit="10" stroke-linecap="round" stroke-linejoin="round"/>
<path d="M170.707 120.482H165.293V130.734H170.707V120.482Z" stroke="#27292E" stroke-miterlimit="10" stroke-linecap="round" stroke-linejoin="round"/>
<path d="M185.454 136.955L181.422 133.845V123.592L185.454 126.702" stroke="#27292E" stroke-miterlimit="10" stroke-linecap="round" stroke-linejoin="round"/>
<path d="M181.422 142.83L185.454 145.941V156.194L181.422 153.083" stroke="#27292E" stroke-miterlimit="10" stroke-linecap="round" stroke-linejoin="round"/>
<path d="M185.454 166.101V175.317L181.422 173.243V162.99" stroke="#27292E" stroke-miterlimit="10" stroke-linecap="round" stroke-linejoin="round"/>
<path d="M185.454 193.058L181.422 190.984V180.731L185.454 183.15V193.058Z" stroke="#27292E" stroke-miterlimit="10" stroke-linecap="round" stroke-linejoin="round"/>
<path d="M185.454 211.835L181.422 210.338V200.085L185.454 202.043" stroke="#27292E" stroke-miterlimit="10" stroke-linecap="round" stroke-linejoin="round"/>
<path d="M159.993 120.482H154.578V130.734H159.993V120.482Z" stroke="#27292E" stroke-miterlimit="10" stroke-linecap="round" stroke-linejoin="round"/>
<path d="M321.273 329.685V194.094L339.36 191.906V358.946" stroke="#27292E" stroke-miterlimit="10" stroke-linecap="round" stroke-linejoin="round"/>
<path d="M303.188 297.314V210.683" stroke="#27292E" stroke-miterlimit="10" stroke-linecap="round" stroke-linejoin="round"/>
<path d="M306.988 303.304V215.176" stroke="#27292E" stroke-miterlimit="10" stroke-linecap="round" stroke-linejoin="round"/>
<path d="M325.766 71.4064V96.2896" stroke="#27292E" stroke-miterlimit="10" stroke-linecap="round" stroke-linejoin="round"/>
<path d="M334.406 61.7296V86.6128" stroke="#27292E" stroke-miterlimit="10" stroke-linecap="round" stroke-linejoin="round"/>
<path d="M325.766 22.9072V49.6336" stroke="#27292E" stroke-miterlimit="10" stroke-linecap="round" stroke-linejoin="round"/>
<path d="M334.406 13.2304V35.9248" stroke="#27292E" stroke-miterlimit="10" stroke-linecap="round" stroke-linejoin="round"/>
<path d="M30.0469 311.598L211.372 264.712" stroke="#27292E" stroke-miterlimit="10" stroke-linecap="round" stroke-linejoin="round"/>
<path d="M43.5273 217.48L150.433 223.47" stroke="#27292E" stroke-miterlimit="10" stroke-linecap="round" stroke-linejoin="round"/>
<path d="M43.5273 200.2L150.433 214.485" stroke="#27292E" stroke-miterlimit="10" stroke-linecap="round" stroke-linejoin="round"/>
<path d="M96.1723 286.946V226.12L78.0859 225.429V291.093" stroke="#27292E" stroke-miterlimit="10" stroke-linecap="round" stroke-linejoin="round"/>
<path d="M113.453 282.914V226.811L101.473 226.35V285.678" stroke="#27292E" stroke-miterlimit="10" stroke-linecap="round" stroke-linejoin="round"/>
<path d="M72.7866 292.36V225.314L45.0234 224.277V298.811" stroke="#27292E" stroke-miterlimit="10" stroke-linecap="round" stroke-linejoin="round"/>
<path d="M145.822 275.426V227.963L118.75 227.042V281.646" stroke="#27292E" stroke-miterlimit="10" stroke-linecap="round" stroke-linejoin="round"/>
<path d="M189.023 138.568V127.854" stroke="#27292E" stroke-miterlimit="10" stroke-linecap="round" stroke-linejoin="round"/>
<path d="M189.023 157.691V146.978" stroke="#27292E" stroke-miterlimit="10" stroke-linecap="round" stroke-linejoin="round"/>
<path d="M189.023 194.901V184.187" stroke="#27292E" stroke-miterlimit="10" stroke-linecap="round" stroke-linejoin="round"/>
<path d="M189.023 213.794V203.08" stroke="#27292E" stroke-miterlimit="10" stroke-linecap="round" stroke-linejoin="round"/>
<path d="M192.941 197.09V186.376" stroke="#27292E" stroke-miterlimit="10" stroke-linecap="round" stroke-linejoin="round"/>
<path d="M197.203 181.883V171.17" stroke="#27292E" stroke-miterlimit="10" stroke-linecap="round" stroke-linejoin="round"/>
<path d="M200.543 184.418V173.704" stroke="#27292E" stroke-miterlimit="10" stroke-linecap="round" stroke-linejoin="round"/>
<path d="M200.543 165.87V155.157" stroke="#27292E" stroke-miterlimit="10" stroke-linecap="round" stroke-linejoin="round"/>
<path d="M352.84 191.099H391.317" stroke="#27292E" stroke-miterlimit="10" stroke-linecap="round" stroke-linejoin="round"/>
<path d="M352.84 203.886H391.317" stroke="#27292E" stroke-miterlimit="10" stroke-linecap="round" stroke-linejoin="round"/>
<path d="M352.84 216.674H391.317" stroke="#27292E" stroke-miterlimit="10" stroke-linecap="round" stroke-linejoin="round"/>
<path d="M352.84 229.461H391.317" stroke="#27292E" stroke-miterlimit="10" stroke-linecap="round" stroke-linejoin="round"/>
<path d="M352.84 242.363H391.317" stroke="#27292E" stroke-miterlimit="10" stroke-linecap="round" stroke-linejoin="round"/>
<path d="M352.84 255.15H391.317" stroke="#27292E" stroke-miterlimit="10" stroke-linecap="round" stroke-linejoin="round"/>
<path d="M352.84 267.938H391.317" stroke="#27292E" stroke-miterlimit="10" stroke-linecap="round" stroke-linejoin="round"/>
<path d="M352.84 280.725H391.317" stroke="#27292E" stroke-miterlimit="10" stroke-linecap="round" stroke-linejoin="round"/>
<path d="M352.84 293.512H391.317" stroke="#27292E" stroke-miterlimit="10" stroke-linecap="round" stroke-linejoin="round"/>
<path d="M352.84 306.299H391.317" stroke="#27292E" stroke-miterlimit="10" stroke-linecap="round" stroke-linejoin="round"/>
<path d="M352.84 319.086H391.317" stroke="#27292E" stroke-miterlimit="10" stroke-linecap="round" stroke-linejoin="round"/>
<path d="M352.84 331.874H391.317" stroke="#27292E" stroke-miterlimit="10" stroke-linecap="round" stroke-linejoin="round"/>
<path d="M391.316 180.616V347.656H398.804V378.53" stroke="#27292E" stroke-miterlimit="10" stroke-linecap="round" stroke-linejoin="round"/>
<path d="M391.316 347.656H356.641" stroke="#27292E" stroke-miterlimit="10" stroke-linecap="round" stroke-linejoin="round"/>
<path d="M287.406 255.842L299.387 265.634" stroke="#27292E" stroke-miterlimit="10" stroke-linecap="round" stroke-linejoin="round"/>
<path d="M285.101 209.992H268.512" stroke="#27292E" stroke-miterlimit="10" stroke-linecap="round" stroke-linejoin="round"/>
<path d="M269.551 210.222V223.355H275.772V210.453" stroke="#27292E" stroke-miterlimit="10" stroke-linecap="round" stroke-linejoin="round"/>
<path d="M136.492 211.95V11.272" stroke="#27292E" stroke-miterlimit="10"/>
<path d="M144.559 212.757V64.264" stroke="#27292E" stroke-miterlimit="10"/>
<path d="M122.898 211.144V31.3168" stroke="#27292E" stroke-miterlimit="10"/>
<path d="M107.578 208.034V38.5744" stroke="#27292E" stroke-miterlimit="10"/>
<path d="M93.9844 206.421V35.3488" stroke="#27292E" stroke-miterlimit="10"/>
<path d="M76.2422 204.002V25.672" stroke="#27292E" stroke-miterlimit="10"/>
<path d="M57.8125 203.195V32.1232" stroke="#27292E" stroke-miterlimit="10"/>
<path d="M47.3281 171.054L145.363 195.707" stroke="#27292E" stroke-miterlimit="10"/>
<path d="M49.7461 142.946L143.98 173.128" stroke="#27292E" stroke-miterlimit="10"/>
<path d="M70.5977 116.45L144.902 150.088" stroke="#27292E" stroke-miterlimit="10"/>
<path d="M70.5977 39.3808L144.441 90.6448" stroke="#27292E" stroke-miterlimit="10"/>
<path d="M126.47 97.9024L90.2969 96.0592V80.968L126.47 79.1248V97.9024Z" fill="#D0EB81" stroke="#27292E" stroke-miterlimit="10" stroke-linecap="round" stroke-linejoin="round"/>
<path d="M193.4 48.8272H127.16V67.6048H193.4V48.8272Z" fill="#D0EB81" stroke="#27292E" stroke-miterlimit="10" stroke-linecap="round" stroke-linejoin="round"/>
<path d="M147.666 61.8448C147.435 61.96 147.32 62.0752 147.09 62.0752C146.859 62.0752 146.629 61.96 146.398 61.8448C146.168 61.7296 146.053 61.4992 146.053 61.2688L144.67 56.5456L143.288 61.2688C143.173 61.4992 143.058 61.7296 142.942 61.8448C142.712 61.96 142.597 62.0752 142.251 62.0752C142.021 62.0752 141.79 61.96 141.675 61.8448C141.445 61.7296 141.33 61.4992 141.33 61.2688L139.832 55.7392C139.832 55.624 139.832 55.624 139.832 55.5088C139.832 55.2784 139.947 55.1632 140.062 55.048C140.178 54.9328 140.408 54.8176 140.523 54.8176C140.638 54.8176 140.754 54.8176 140.869 54.9328C140.984 55.048 141.099 55.1632 141.099 55.2784L142.366 60.3472L143.864 55.5088C143.979 55.2784 144.094 55.048 144.21 54.9328C144.325 54.8176 144.555 54.7024 144.786 54.7024C145.016 54.7024 145.246 54.8176 145.362 54.9328C145.477 55.048 145.592 55.2784 145.707 55.5088L147.205 60.3472L148.472 55.2784C148.472 55.1632 148.587 54.9328 148.702 54.9328C148.818 54.9328 148.933 54.8176 149.048 54.8176C149.278 54.8176 149.394 54.9328 149.509 55.048C149.624 55.1632 149.739 55.2784 149.739 55.5088C149.739 55.5088 149.739 55.624 149.739 55.7392L148.242 61.2688C148.011 61.4992 147.896 61.7296 147.666 61.8448Z" fill="white"/>
<path d="M150.43 58.2736C150.66 57.928 150.89 57.5824 151.236 57.352C151.582 57.1216 152.042 57.0064 152.503 57.0064C152.849 57.0064 153.194 57.1216 153.54 57.2368C153.886 57.352 154.116 57.5824 154.231 57.8128C154.462 58.0432 154.577 58.2736 154.577 58.504C154.692 58.7344 154.692 59.08 154.692 59.4256C154.692 59.5408 154.692 59.656 154.577 59.7712C154.462 59.8864 154.462 59.8864 154.346 59.8864H151.236C151.236 60.808 151.812 61.2688 152.618 61.2688C152.964 61.2688 153.425 61.1536 153.886 60.808C154.001 60.808 154.001 60.6928 154.116 60.6928C154.231 60.6928 154.346 60.6928 154.346 60.808C154.462 60.9232 154.462 61.0384 154.462 61.1536C154.462 61.2688 154.462 61.384 154.346 61.4992C153.886 61.96 153.194 62.1904 152.503 62.1904C151.697 62.1904 151.121 61.96 150.66 61.4992C150.199 61.0384 149.969 60.4624 149.969 59.656C150.084 59.08 150.199 58.6192 150.43 58.2736ZM153.77 59.1952C153.77 58.8496 153.655 58.504 153.425 58.2736C153.194 58.0432 152.964 57.928 152.618 57.928C152.273 57.928 151.927 58.0432 151.812 58.2736C151.582 58.504 151.466 58.8496 151.466 59.1952H153.77Z" fill="white"/>
<path d="M155.498 61.1536C155.498 61.0384 155.498 60.9232 155.613 60.9232C155.728 60.808 155.728 60.808 155.844 60.808C155.959 60.808 155.959 60.808 156.074 60.9232C156.189 61.0384 156.304 61.0384 156.42 61.1536C156.535 61.1536 156.65 61.2688 156.88 61.2688C157.111 61.2688 157.226 61.384 157.456 61.384C157.687 61.384 157.802 61.384 157.917 61.384C158.032 61.384 158.148 61.2688 158.263 61.1536C158.378 61.0384 158.378 60.9232 158.378 60.808C158.378 60.5776 158.148 60.3472 157.687 60.232L156.88 60.0016C156.65 59.8864 156.42 59.8864 156.304 59.8864C156.189 59.8864 156.074 59.7712 155.844 59.656C155.613 59.5408 155.613 59.5408 155.498 59.4256C155.383 59.3104 155.383 59.1952 155.268 59.08C155.268 58.9648 155.152 58.7344 155.152 58.6192C155.152 58.1584 155.383 57.8128 155.728 57.5824C156.074 57.352 156.535 57.2368 157.111 57.2368C157.687 57.2368 158.263 57.352 158.724 57.5824C158.954 57.6976 158.954 57.8128 158.954 57.928C158.954 58.0432 158.954 58.1584 158.839 58.1584C158.724 58.2736 158.724 58.2736 158.608 58.2736C158.608 58.2736 158.493 58.2736 158.378 58.2736C158.378 58.2736 158.378 58.2736 158.263 58.2736C158.148 58.2736 158.148 58.2736 158.148 58.2736H158.032C157.917 58.2736 157.917 58.2736 157.802 58.2736C157.802 58.2736 157.687 58.2736 157.572 58.2736C157.456 58.2736 157.456 58.2736 157.341 58.2736C157.226 58.2736 157.226 58.2736 157.111 58.2736C156.88 58.2736 156.65 58.2736 156.42 58.3888C156.189 58.504 156.189 58.6192 156.189 58.7344C156.189 58.8496 156.189 58.9648 156.304 59.08C156.42 59.1952 156.535 59.1952 156.88 59.3104L157.687 59.5408C158.263 59.656 158.608 59.8864 158.839 60.1168C159.069 60.3472 159.184 60.6928 159.184 61.0384C159.184 61.4992 158.954 61.96 158.608 62.1904C158.263 62.4208 157.802 62.536 157.226 62.536C156.42 62.536 155.844 62.3056 155.268 61.96C155.613 61.384 155.498 61.2688 155.498 61.1536Z" fill="white"/>
<path d="M161.373 61.6144C161.142 61.384 161.027 60.9232 161.027 60.4624V57.928H160.566C160.451 57.928 160.336 57.928 160.221 57.8128C160.105 57.6976 160.105 57.5824 160.105 57.4672C160.105 57.352 160.105 57.2368 160.221 57.1216C160.336 57.0064 160.451 57.0064 160.566 57.0064H161.027L161.142 55.8544C161.142 55.624 161.257 55.5088 161.373 55.3936C161.488 55.2784 161.603 55.2784 161.833 55.2784C161.949 55.2784 162.064 55.2784 162.179 55.3936C162.294 55.5088 162.294 55.624 162.294 55.8544V57.1216H163.101C163.216 57.1216 163.331 57.1216 163.446 57.2368C163.561 57.352 163.561 57.4672 163.561 57.5824C163.561 57.6976 163.561 57.8128 163.446 57.928C163.331 58.0432 163.216 58.0432 163.101 58.0432H162.179V60.232C162.179 60.5776 162.179 60.808 162.294 60.9232C162.409 61.0384 162.525 61.1536 162.755 61.1536H163.101C163.216 61.1536 163.331 61.1536 163.446 61.2688C163.561 61.384 163.561 61.4992 163.561 61.6144C163.561 61.7296 163.561 61.7296 163.561 61.8448C163.561 61.96 163.446 61.96 163.446 61.96C163.446 61.96 163.331 62.0752 163.216 62.0752C163.101 62.0752 163.101 62.0752 162.985 62.0752C162.87 62.0752 162.755 62.0752 162.755 62.0752C162.64 62.0752 162.64 62.0752 162.525 62.0752H162.409C161.949 62.0752 161.603 61.96 161.373 61.6144Z" fill="white"/>
<path d="M171.741 60.3472H168.63L168.17 61.4992C168.17 61.6144 168.054 61.7296 167.939 61.8448C167.824 61.96 167.709 61.96 167.594 61.96C167.363 61.96 167.248 61.8448 167.133 61.7296C167.018 61.6144 166.902 61.4992 166.902 61.2688C166.902 61.1536 166.902 61.1536 166.902 61.0384L169.091 55.624C169.206 55.2784 169.437 55.048 169.552 54.9328C169.782 54.8176 169.898 54.7024 170.243 54.7024C170.474 54.7024 170.704 54.8176 170.934 54.9328C171.165 55.048 171.28 55.2784 171.395 55.624L173.584 61.0384C173.584 61.1536 173.584 61.1536 173.584 61.2688C173.584 61.4992 173.469 61.6144 173.354 61.7296C173.238 61.8448 173.008 61.96 172.893 61.96C172.778 61.96 172.662 61.96 172.547 61.8448C172.432 61.7296 172.317 61.6144 172.317 61.4992L171.741 60.3472ZM170.128 56.2L168.976 59.4256H171.395L170.128 56.2Z" fill="white"/>
<path d="M175.775 61.8448C175.66 61.7296 175.544 61.4992 175.314 61.0384L174.047 57.928C174.047 57.8128 174.047 57.8128 174.047 57.6976C174.047 57.5824 174.162 57.352 174.277 57.352C174.392 57.2368 174.508 57.2368 174.623 57.2368C174.738 57.2368 174.853 57.2368 174.968 57.352C175.084 57.4672 175.084 57.4672 175.199 57.6976L176.466 60.9232L177.733 57.6976C177.733 57.5824 177.848 57.4672 177.964 57.352C178.079 57.2368 178.194 57.2368 178.309 57.2368C178.424 57.2368 178.54 57.2368 178.655 57.352C178.77 57.4672 178.885 57.5824 178.885 57.6976C178.885 57.8128 178.885 57.8128 178.885 57.928L177.618 61.0384C177.503 61.384 177.388 61.6144 177.157 61.8448C177.042 61.96 176.812 62.0752 176.581 62.0752C176.12 62.0752 175.89 61.96 175.775 61.8448Z" fill="white"/>
<path d="M179.574 58.2736C179.805 57.928 180.035 57.5824 180.381 57.352C180.726 57.1216 181.187 57.0064 181.648 57.0064C181.993 57.0064 182.339 57.1216 182.685 57.2368C183.03 57.352 183.261 57.5824 183.376 57.8128C183.606 58.0432 183.721 58.2736 183.721 58.504C183.837 58.7344 183.837 59.08 183.837 59.4256C183.837 59.5408 183.837 59.656 183.721 59.7712C183.606 59.8864 183.606 59.8864 183.491 59.8864H180.611C180.611 60.808 181.187 61.2688 181.993 61.2688C182.339 61.2688 182.8 61.1536 183.261 60.808C183.376 60.808 183.376 60.6928 183.491 60.6928C183.606 60.6928 183.721 60.6928 183.721 60.808C183.837 60.9232 183.837 61.0384 183.837 61.1536C183.837 61.2688 183.837 61.384 183.721 61.4992C183.261 61.96 182.569 62.1904 181.878 62.1904C181.072 62.1904 180.496 61.96 180.035 61.4992C179.574 61.0384 179.344 60.4624 179.344 59.656C179.344 59.08 179.459 58.6192 179.574 58.2736ZM182.915 59.1952C182.915 58.8496 182.8 58.504 182.569 58.2736C182.339 58.0432 182.109 57.928 181.763 57.928C181.417 57.928 181.072 58.0432 180.957 58.2736C180.726 58.504 180.611 58.8496 180.611 59.1952H182.915Z" fill="white"/>
<path d="M185.336 61.8448C185.221 61.7296 185.105 61.4992 185.105 61.384C185.105 61.1536 185.221 61.0384 185.336 60.9232C185.451 60.808 185.681 60.6928 185.797 60.6928C186.027 60.6928 186.142 60.808 186.257 60.9232C186.373 61.0384 186.488 61.2688 186.488 61.384C186.488 61.6144 186.373 61.7296 186.257 61.8448C186.142 61.96 185.912 62.0752 185.797 62.0752C185.681 62.0752 185.451 61.96 185.336 61.8448Z" fill="white"/>
<path d="M188.679 52.3984H135.227V64.1488H188.679V52.3984Z" stroke="white" stroke-miterlimit="10" stroke-linecap="round" stroke-linejoin="round"/>
<path d="M126.47 129.352H60.2305V148.13H126.47V129.352Z" fill="#D0EB81" stroke="#27292E" stroke-miterlimit="10" stroke-linecap="round" stroke-linejoin="round"/>
<path d="M111.494 134.075H77.8555V131.08L64.7227 138.568L77.8555 145.941V142.946H111.494V134.075Z" fill="white"/>
<path d="M119.558 83.848L99.3984 84.424V81.8896L92.832 88.2256L99.3984 94.5616V92.0272L119.558 92.7184V83.848Z" fill="white"/>
<path d="M133.957 390.741H121.055L123.013 11.3872H131.999L133.957 390.741Z" fill="#27292E" stroke="#27292E" stroke-miterlimit="10" stroke-linecap="round" stroke-linejoin="round"/>
<path d="M138.796 386.248H115.641V419.31H138.796V386.248Z" fill="#27292E" stroke="#27292E" stroke-miterlimit="10" stroke-linecap="round" stroke-linejoin="round"/>
<path d="M113.799 22.6768H138.567V36.04C138.567 42.8368 133.037 48.4816 126.125 48.4816C119.328 48.4816 113.684 42.952 113.684 36.04V22.6768H113.799Z" fill="white" stroke="#27292E" stroke-miterlimit="10" stroke-linecap="round" stroke-linejoin="round"/>
<path d="M141.446 33.3904H110.918V20.3728C110.918 13.3456 116.563 7.70081 123.59 7.70081H128.774C135.801 7.70081 141.446 13.3456 141.446 20.3728V33.3904Z" fill="#27292E" stroke="#27292E" stroke-miterlimit="10" stroke-linecap="round" stroke-linejoin="round"/>
<path opacity="0.11" d="M238.446 434.632C258.424 434.632 274.619 429.32 274.619 422.766C274.619 416.213 258.424 410.901 238.446 410.901C218.469 410.901 202.273 416.213 202.273 422.766C202.273 429.32 218.469 434.632 238.446 434.632Z" fill="#27292E"/>
<path d="M248.584 219.554C248.584 219.554 265.634 219.438 273.352 222.318C280.955 225.314 284.526 243.4 284.526 250.427C284.642 257.454 280.034 260.334 280.034 260.334L280.725 264.827C280.725 264.827 289.595 266.901 289.25 277.154C288.904 287.406 288.674 298.466 280.955 302.037C273.237 305.723 239.253 301.23 233.954 293.166C228.654 285.102 238.677 271.854 236.488 258.952C234.184 246.165 231.88 233.493 232.571 224.277C233.262 215.176 248.584 219.554 248.584 219.554Z" fill="#27292E" stroke="#27292E" stroke-miterlimit="10" stroke-linecap="round" stroke-linejoin="round"/>
<path d="M289.25 277.154C289.596 266.901 280.726 264.827 280.726 264.827L280.034 260.334C280.034 260.334 284.642 257.454 284.527 250.427C284.412 243.976 281.532 228.194 275.081 223.355L274.966 223.47C274.966 223.47 268.975 220.245 265.634 227.042C262.294 233.838 261.257 245.589 261.718 252.846C262.178 260.104 259.183 276.578 258.031 287.522C257.34 294.318 259.644 299.618 264.022 302.958C271.394 303.65 278.076 303.419 280.956 302.037C288.674 298.466 288.905 287.406 289.25 277.154Z" fill="#D0EB81" stroke="#27292E" stroke-miterlimit="10" stroke-linecap="round" stroke-linejoin="round"/>
<path d="M281.646 236.834C281.646 236.834 273.121 239.483 265.863 240.29L265.633 243.515C265.633 243.515 272.545 243.515 282.106 240.29L281.646 236.834Z" fill="#27292E" stroke="#27292E" stroke-miterlimit="10" stroke-linecap="round" stroke-linejoin="round"/>
<path d="M288.442 271.739C288.442 271.739 282.567 274.389 277.959 275.771C273.351 277.154 271.047 277.154 271.277 279.458C271.508 281.762 271.738 292.014 275.425 294.779C279.111 297.544 286.023 296.162 288.442 292.475C290.746 288.904 292.589 280.264 288.442 271.739Z" fill="#27292E" stroke="#27292E" stroke-miterlimit="10" stroke-linecap="round" stroke-linejoin="round"/>
<path d="M280.032 260.334C280.032 260.334 272.429 262.408 255.379 264.827L255.609 270.472C255.609 270.472 273.235 267.938 280.723 264.827L280.032 260.334Z" fill="#27292E" stroke="#27292E" stroke-miterlimit="10" stroke-linecap="round" stroke-linejoin="round"/>
<path d="M213.795 342.472C213.795 342.472 211.491 352.149 212.643 358.715C213.795 365.282 224.854 393.16 225.891 397.653C226.928 402.146 227.849 406.638 227.849 406.638L234.531 405.947C234.531 405.947 234.646 398.344 232.803 385.672C230.96 373.115 231.075 367.24 229.462 362.056C227.849 356.872 226.928 355.49 226.928 355.49L230.384 346.85L213.795 342.472Z" fill="white" stroke="#27292E" stroke-miterlimit="10" stroke-linecap="round" stroke-linejoin="round"/>
<path d="M240.291 349.96C240.291 349.96 238.909 357.333 239.255 360.904C239.6 364.59 246.051 394.773 247.203 400.648C248.355 406.523 249.277 412.859 249.277 412.859L255.037 413.435C255.037 413.435 258.148 396.155 257.456 385.902C256.765 375.65 252.503 362.056 252.503 362.056L258.493 348.578L240.291 349.96Z" fill="white" stroke="#27292E" stroke-miterlimit="10" stroke-linecap="round" stroke-linejoin="round"/>
<path d="M219.324 305.838C219.324 305.838 215.061 318.51 212.988 328.302C210.914 338.21 210.684 346.043 210.684 346.043C210.684 346.043 215.752 347.886 220.476 348.578C225.199 349.269 231.42 350.075 231.42 350.075L231.65 351.342C231.65 351.342 234.184 353.531 244.898 353.186C255.612 352.84 264.367 351.573 264.367 351.573C264.367 351.573 265.288 323.925 264.482 319.317C263.56 314.709 263.33 311.022 263.33 311.022C263.33 311.022 249.736 311.138 236.834 310.216C223.932 309.064 219.324 305.838 219.324 305.838Z" fill="#27292E" stroke="#27292E" stroke-miterlimit="10" stroke-linecap="round" stroke-linejoin="round"/>
<path d="M211.145 342.587C211.145 342.587 225.199 346.389 231.765 345.928" stroke="white" stroke-miterlimit="10" stroke-linecap="round" stroke-linejoin="round"/>
<path d="M231.996 346.85C231.996 346.85 249.161 350.19 264.367 346.274" stroke="white" stroke-miterlimit="10" stroke-linecap="round" stroke-linejoin="round"/>
<path d="M231.418 350.075L234.874 322.542C234.874 322.542 236.256 321.39 238.791 319.893" stroke="white" stroke-miterlimit="10" stroke-linecap="round" stroke-linejoin="round"/>
<path d="M234.877 323.579L229.117 317.358" stroke="white" stroke-miterlimit="10" stroke-linecap="round" stroke-linejoin="round"/>
<path d="M235.337 231.304C235.337 231.304 225.66 230.152 222.204 230.613C218.863 231.074 212.181 232.571 209.301 232.456C206.537 232.341 196.514 232.571 192.597 232.341C188.565 231.995 182.69 232.11 183.842 235.221C184.994 238.216 192.828 245.013 200.892 247.317C209.071 249.621 214.025 251.118 214.025 251.118C214.025 251.118 219.209 264.712 221.628 269.666C224.047 274.504 223.932 280.149 224.047 283.144C224.047 286.139 218.287 307.221 218.287 307.221C218.287 307.221 223.932 311.368 237.065 312.981C250.197 314.594 261.141 312.405 262.293 312.405C263.445 312.405 264.137 312.174 264.137 312.174C264.137 312.174 264.482 294.088 264.482 279.458C264.482 264.827 268.399 254.92 263.215 245.589C258.031 236.258 245.013 232.917 241.327 231.88C237.641 230.843 235.337 231.304 235.337 231.304Z" fill="white" stroke="#27292E" stroke-miterlimit="10" stroke-linecap="round" stroke-linejoin="round"/>
<path d="M241.327 231.88C237.64 230.958 235.336 231.304 235.336 231.304C235.336 231.304 225.659 230.152 222.203 230.613C218.863 231.074 212.181 232.571 209.301 232.456C208.034 232.456 205.499 232.456 202.735 232.456C200.431 235.221 197.435 239.944 197.09 245.819C198.357 246.395 199.624 246.856 200.891 247.202C209.071 249.506 214.024 251.003 214.024 251.003C214.024 251.003 219.208 264.597 221.627 269.55C224.047 274.389 223.931 280.034 224.047 283.029C224.047 286.024 218.287 307.106 218.287 307.106C218.287 307.106 223.931 311.253 237.064 312.866C250.197 314.478 261.141 312.29 262.293 312.29C263.445 312.29 264.136 312.059 264.136 312.059C264.136 312.059 264.482 293.973 264.482 279.342C264.482 264.712 268.399 254.805 263.215 245.474C258.031 236.142 245.013 232.802 241.327 231.88Z" fill="white" stroke="#27292E" stroke-miterlimit="10" stroke-linecap="round" stroke-linejoin="round"/>
<path d="M230.728 231.189C230.728 231.189 229.115 237.986 229.921 243.515C230.728 249.16 234.184 250.773 238.446 249.966C242.708 249.16 247.316 241.672 248.353 237.64C249.39 233.608 249.159 232.341 244.321 231.189C239.483 230.152 233.147 227.042 230.728 231.189Z" stroke="#27292E" stroke-miterlimit="10" stroke-linecap="round" stroke-linejoin="round"/>
<path d="M208.266 237.525L215.754 250.197L210.8 245.243" stroke="#27292E" stroke-width="0.5" stroke-miterlimit="10" stroke-linecap="round" stroke-linejoin="round"/>
<path d="M215.753 250.197L212.988 238.792" stroke="#27292E" stroke-width="0.5" stroke-miterlimit="10" stroke-linecap="round" stroke-linejoin="round"/>
<path d="M236.258 269.205C236.258 269.205 245.589 276.923 255.727 275.886" stroke="#27292E" stroke-width="0.5" stroke-miterlimit="10" stroke-linecap="round" stroke-linejoin="round"/>
<path d="M231.996 272.085C231.996 272.085 240.06 276.117 250.428 276.347" stroke="#27292E" stroke-width="0.5" stroke-miterlimit="10" stroke-linecap="round" stroke-linejoin="round"/>
<path d="M223.125 288.328C223.125 288.328 228.078 293.512 241.902 292.59C255.726 291.669 264.481 288.098 264.481 288.098V292.475C264.481 292.475 246.395 298.811 231.88 295.816C223.24 294.088 221.973 292.475 221.973 292.475L223.125 288.328Z" fill="#27292E" stroke="#27292E" stroke-miterlimit="10" stroke-linecap="round" stroke-linejoin="round"/>
<path d="M197.551 235.336C197.551 235.336 201.122 233.723 206.076 228.539C211.029 223.24 215.868 220.706 218.172 220.36C220.476 220.014 224.853 218.747 225.545 218.402C226.236 218.056 229.346 217.48 230.383 215.406C231.42 213.333 229.346 214.254 228.194 214.37C227.042 214.37 228.079 212.987 229.346 211.49C230.613 209.992 233.724 206.306 233.378 204.347C233.033 202.274 230.153 203.426 225.545 205.499C220.937 207.573 218.057 211.72 217.02 213.333C215.983 214.83 215.292 215.291 215.292 215.291C215.292 215.291 204.578 219.899 195.938 224.162C187.413 228.424 183.497 231.765 183.612 234.76C183.612 237.755 186.837 238.446 186.837 238.446" fill="white"/>
<path d="M197.551 235.336C197.551 235.336 201.122 233.723 206.076 228.539C211.029 223.24 215.868 220.706 218.172 220.36C220.476 220.014 224.853 218.747 225.545 218.402C226.236 218.056 229.346 217.48 230.383 215.406C231.42 213.333 229.346 214.254 228.194 214.37C227.042 214.37 228.079 212.987 229.346 211.49C230.613 209.992 233.724 206.306 233.378 204.347C233.033 202.274 230.153 203.426 225.545 205.499C220.937 207.573 218.057 211.72 217.02 213.333C215.983 214.83 215.292 215.291 215.292 215.291C215.292 215.291 204.578 219.899 195.938 224.162C187.413 228.424 183.497 231.765 183.612 234.76C183.612 237.755 186.837 238.446 186.837 238.446" stroke="#27292E" stroke-miterlimit="10" stroke-linecap="round" stroke-linejoin="round"/>
<path d="M230.961 229.23C230.961 229.23 231.191 234.76 231.998 239.944C232.689 245.128 235.108 249.045 239.601 246.05C244.209 243.054 245.822 235.682 245.822 235.682C245.822 235.682 237.643 234.76 230.961 229.23Z" stroke="#27292E" stroke-miterlimit="10" stroke-linecap="round" stroke-linejoin="round"/>
<path d="M223.24 217.25C223.24 217.25 221.627 218.517 222.664 221.858C223.701 225.198 227.733 224.738 227.848 224.277C228.078 223.931 229.115 228.77 230.613 231.074C232.11 233.378 239.368 237.41 242.478 237.986C245.589 238.562 248.238 236.718 248.699 234.875C249.16 233.032 249.851 225.083 249.851 220.13C249.851 215.176 250.312 213.218 249.275 211.144C248.354 209.07 246.626 207.458 240.52 206.997C234.414 206.421 230.843 208.61 227.848 210.798C224.853 212.987 225.429 215.637 225.429 215.637L223.24 217.25Z" fill="white" stroke="#27292E" stroke-miterlimit="10" stroke-linecap="round" stroke-linejoin="round"/>
<path d="M225.199 215.867C225.199 215.867 225.775 217.595 227.042 218.978C228.31 220.36 228.886 220.706 228.886 220.706L228.31 217.826L229.577 218.747C229.577 218.747 229.577 217.71 229.462 216.904C229.346 215.982 230.844 217.134 230.844 217.134C230.844 217.134 230.844 214.83 231.42 213.678C231.996 212.526 232.342 212.296 232.342 212.296C232.342 212.296 226.006 214.254 225.199 215.867Z" fill="#27292E" stroke="#27292E" stroke-miterlimit="10" stroke-linecap="round" stroke-linejoin="round"/>
<path d="M223.241 217.25C223.241 217.25 232.457 209.531 249.853 211.95C249.853 211.95 248.931 202.043 247.433 200.43C245.936 198.818 241.213 196.053 233.84 198.357C226.352 200.661 221.974 204.808 221.744 207.112C221.513 209.646 223.241 217.25 223.241 217.25Z" fill="#D0EB81" stroke="#27292E" stroke-miterlimit="10" stroke-linecap="round" stroke-linejoin="round"/>
<path d="M231.421 213.563C231.421 213.563 236.144 215.061 239.715 213.909C243.286 212.757 247.203 211.259 253.77 211.72C260.336 212.181 259.414 212.296 259.414 212.296C259.414 212.296 255.728 209.992 246.742 210.338C237.642 210.914 230.845 212.872 231.421 213.563Z" fill="#D0EB81" stroke="#27292E" stroke-miterlimit="10" stroke-linecap="round" stroke-linejoin="round"/>
<path d="M248.586 212.181C248.586 212.181 250.429 213.333 256.074 214.254C261.719 215.291 261.143 213.794 259.415 212.411C257.572 211.029 249.047 211.49 248.586 212.181Z" fill="#D0EB81" stroke="#27292E" stroke-miterlimit="10" stroke-linecap="round" stroke-linejoin="round"/>
<path d="M244.554 215.176C244.554 215.176 243.632 216.328 244.323 217.48C244.899 218.632 245.245 222.318 245.245 222.779C245.245 223.125 245.13 223.701 243.862 223.586C242.48 223.47 240.867 223.01 240.867 223.01" stroke="#27292E" stroke-miterlimit="10" stroke-linecap="round" stroke-linejoin="round"/>
<path d="M239.369 217.365C239.369 218.171 238.908 218.747 238.562 218.632C238.101 218.632 237.871 217.941 237.871 217.25C237.871 216.443 238.332 215.867 238.677 215.982C239.023 216.098 239.484 216.674 239.369 217.365Z" fill="#27292E"/>
<path d="M247.779 216.789C247.779 217.595 247.318 218.171 246.972 218.056C246.512 218.056 246.281 217.365 246.281 216.674C246.281 215.867 246.742 215.291 247.088 215.406C247.548 215.406 247.779 216.098 247.779 216.789Z" fill="#27292E"/>
<path d="M235.336 214.946C235.336 214.946 237.179 211.95 240.059 212.872" stroke="#27292E" stroke-miterlimit="10" stroke-linecap="round" stroke-linejoin="round"/>
<path d="M245.82 212.296C245.82 212.296 248.585 211.374 249.161 213.563L245.82 212.296Z" fill="white"/>
<path d="M245.82 212.296C245.82 212.296 248.585 211.374 249.161 213.563" stroke="#27292E" stroke-miterlimit="10" stroke-linecap="round" stroke-linejoin="round"/>
<path d="M240.52 228.885C240.52 228.885 242.824 225.659 245.128 228.194" stroke="#27292E" stroke-miterlimit="10" stroke-linecap="round" stroke-linejoin="round"/>
<path d="M254.691 237.064C254.691 237.064 248.7 237.986 247.203 248.93C245.82 258.952 251.004 269.55 253.884 273.467C256.764 277.384 258.953 279.688 260.335 279.803C261.833 279.918 263.215 280.034 264.828 271.739C266.326 263.445 269.897 256.994 266.441 249.506C262.985 241.902 260.911 240.981 254.691 237.064Z" fill="#27292E" stroke="#27292E" stroke-miterlimit="10" stroke-linecap="round" stroke-linejoin="round"/>
<path d="M226.466 230.728C226.466 230.728 221.743 235.451 219.208 244.437C216.674 253.422 221.628 268.744 222.319 270.242C223.01 271.739 223.471 274.619 223.471 274.619C223.471 274.619 219.208 269.55 215.983 260.91C212.757 252.27 213.103 245.013 214.37 240.174C215.637 235.336 219.554 230.958 219.554 230.958C219.554 230.958 222.895 230.152 226.466 230.728Z" fill="#27292E" stroke="#27292E" stroke-miterlimit="10" stroke-linecap="round" stroke-linejoin="round"/>
<path d="M256.764 410.094C256.764 410.094 248.93 410.325 248.124 410.67C247.317 411.016 247.317 413.781 247.317 413.781C247.317 413.781 242.248 420.923 239.714 422.306C237.18 423.688 233.148 426.222 233.724 427.605C234.3 428.987 235.106 429.333 240.06 429.678C245.013 430.024 252.962 426.222 256.072 425.877C259.068 425.416 258.837 425.07 258.492 422.882C258.261 420.578 256.764 414.357 256.764 414.357C256.764 414.357 257.57 412.053 256.764 410.094Z" fill="#D0EB81" stroke="#27292E" stroke-miterlimit="10" stroke-linecap="round" stroke-linejoin="round"/>
<path d="M247.434 413.781C247.434 413.781 245.937 408.827 247.895 408.712C249.853 408.482 251.927 408.251 251.927 410.094C252.042 411.938 250.89 414.702 250.89 414.702C250.89 414.702 248.471 414.702 247.434 413.781Z" fill="white" stroke="#27292E" stroke-miterlimit="10" stroke-linecap="round" stroke-linejoin="round"/>
<path d="M251.004 414.587C251.004 414.587 248.469 418.734 246.05 420.232C243.631 421.73 242.594 420.002 242.824 419.541C242.94 419.08 247.432 413.666 247.432 413.666L251.004 414.587Z" fill="white" stroke="#27292E" stroke-miterlimit="10" stroke-linecap="round" stroke-linejoin="round"/>
<path d="M238.676 428.181C235.22 427.95 234.183 426.914 233.953 426.338C233.722 426.798 233.722 427.144 233.837 427.605C234.413 428.987 235.22 429.333 240.173 429.678C245.127 430.024 253.076 426.222 256.186 425.877C259.181 425.416 258.951 425.07 258.605 422.882C258.605 422.766 258.605 422.651 258.605 422.536C257.338 422.997 255.38 423.688 253.421 424.264C249.735 425.186 243.284 428.526 238.676 428.181Z" fill="#27292E" stroke="#27292E" stroke-miterlimit="10" stroke-linecap="round" stroke-linejoin="round"/>
<path d="M235.338 402.952C235.338 402.952 227.619 403.298 226.813 404.219C226.122 405.141 223.472 409.864 220.131 412.168C216.791 414.472 213.68 414.357 212.643 416.315C211.607 418.274 214.717 418.734 218.403 419.656C222.09 420.578 224.394 419.771 227.735 417.928C231.075 416.085 233.955 416.661 236.951 415.624C239.946 414.587 236.605 407.099 236.605 406.408C236.605 405.717 237.296 405.256 236.951 403.874C236.605 402.491 235.338 402.952 235.338 402.952Z" fill="#D0EB81" stroke="#27292E" stroke-miterlimit="10" stroke-linecap="round" stroke-linejoin="round"/>
<path d="M236.949 415.739C238.217 415.278 238.332 413.781 238.101 412.168C236.719 413.55 233.724 413.896 230.959 415.048C227.733 416.43 225.314 418.274 220.476 418.274C216.905 418.274 213.909 417.122 212.527 416.546C211.605 418.389 214.716 418.85 218.287 419.771C221.973 420.693 224.277 419.886 227.618 418.043C231.189 416.315 233.954 416.776 236.949 415.739Z" fill="#27292E" stroke="#27292E" stroke-miterlimit="10" stroke-linecap="round" stroke-linejoin="round"/>
<path d="M225.082 407.33C225.082 407.33 224.276 404.104 223.7 402.722C223.124 401.339 227.962 400.187 228.653 401.8C229.345 403.298 227.386 408.136 227.386 408.136L225.082 407.33Z" fill="white" stroke="#27292E" stroke-miterlimit="10" stroke-linecap="round" stroke-linejoin="round"/>
<path d="M227.388 408.136C227.388 408.136 225.315 412.168 222.665 413.32C220.131 414.472 219.094 412.859 219.094 412.859C219.094 412.859 223.126 410.901 224.623 407.33L227.388 408.136Z" fill="white" stroke="#27292E" stroke-miterlimit="10" stroke-linecap="round" stroke-linejoin="round"/>
<path d="M258.375 330.606C258.375 330.606 250.311 329.915 243.399 329.109C236.487 328.302 233.607 327.957 233.607 327.957C233.607 327.957 235.911 342.587 235.911 343.509C235.796 344.43 231.188 358.37 231.188 358.37L236.372 374.728C236.372 374.728 258.951 374.037 267.245 373.691C275.54 373.346 289.018 370.696 289.018 370.696C289.018 370.696 281.184 360.213 279.571 357.563C277.843 354.914 276.691 353.531 276.691 353.531L288.442 340.744C288.442 340.744 286.829 329.454 286.138 327.842C285.447 326.114 285.216 325.422 285.216 325.422C285.216 325.422 263.098 331.067 258.375 330.606Z" fill="#D0EB81"/>
<mask id="mask0_257_20265" style="mask-type:luminance" maskUnits="userSpaceOnUse" x="231" y="325" width="59" height="50">
<path d="M258.375 330.606C258.375 330.606 250.311 329.915 243.399 329.109C236.487 328.302 233.607 327.957 233.607 327.957C233.607 327.957 235.911 342.587 235.911 343.509C235.796 344.43 231.188 358.37 231.188 358.37L236.372 374.728C236.372 374.728 258.951 374.037 267.245 373.691C275.54 373.346 289.018 370.696 289.018 370.696C289.018 370.696 281.184 360.213 279.571 357.563C277.843 354.914 276.691 353.531 276.691 353.531L288.442 340.744C288.442 340.744 286.829 329.454 286.138 327.842C285.447 326.114 285.216 325.422 285.216 325.422C285.216 325.422 263.098 331.067 258.375 330.606Z" fill="white"/>
</mask>
<g mask="url(#mask0_257_20265)">
<path d="M272.89 339.246H288.212C288.097 338.555 287.981 337.749 287.866 336.827H274.848C277.728 333.141 280.954 328.533 282.682 325.998C281.761 326.229 280.493 326.574 279.111 326.805C275.54 331.758 270.586 338.555 268.858 339.938C266.785 341.55 254.113 347.886 246.855 351.458C248.468 347.31 249.85 343.163 249.62 341.896C249.504 341.205 248.698 339.477 247.546 337.403L255.38 330.146C254.458 330.03 253.306 329.915 252.154 329.8L246.394 335.099C245.242 332.91 244.09 330.722 243.053 328.878C242.017 328.763 240.98 328.648 240.173 328.533C243.284 334.178 246.97 341.32 247.2 342.242C247.316 343.509 244.436 350.882 241.786 356.987C241.556 357.563 241.786 358.139 242.247 358.485C242.477 358.715 244.436 359.867 247.085 361.595L238.215 365.051L231.879 360.789L233.031 364.475L235.45 366.088L233.722 366.779L234.413 369.083L237.869 367.701L245.357 372.654C245.588 372.77 245.818 372.885 246.048 372.885C246.279 372.885 246.625 372.77 246.855 372.654L254.458 366.203C258.721 368.853 263.444 371.618 266.9 373.576H267.015C269.089 373.461 271.393 373.23 273.812 373L268.167 367.125C270.241 368.162 273.236 368.738 276.692 368.738C279.802 368.738 283.143 368.277 286.599 367.47C286.138 366.779 285.562 366.088 285.101 365.397C278.65 366.779 272.314 366.664 269.088 364.936C267.936 364.245 267.13 363.438 267.015 362.402C266.9 361.941 267.015 361.595 267.36 361.25C268.973 359.291 275.309 358.6 280.263 358.6C279.917 358.139 279.687 357.794 279.572 357.563C279.226 357.102 278.996 356.642 278.765 356.296C274.388 356.411 267.936 357.102 265.632 359.752C264.826 360.674 264.596 361.826 264.826 362.978C264.941 363.323 264.941 363.554 265.056 363.899L256.992 355.605L257.568 349.038C258.029 348.808 258.605 348.578 259.066 348.232L277.037 353.416L278.88 351.458L262.292 346.734C266.208 344.661 269.549 342.818 270.586 342.011C270.932 341.435 271.853 340.514 272.89 339.246ZM246.048 370.466L240.749 366.894L249.735 363.323C250.541 363.899 251.463 364.475 252.384 365.051L246.048 370.466ZM270.24 372.77C268.052 371.618 264.941 369.89 261.6 367.816L264.48 366.779L270.24 372.77ZM262.637 364.936L258.951 366.203C253.652 362.978 248.007 359.406 244.551 357.218C244.897 356.526 245.242 355.72 245.588 354.798C246.74 354.222 250.541 352.379 254.919 350.19L254.458 355.835C254.458 356.181 254.573 356.526 254.804 356.757L262.637 364.936Z" fill="white"/>
</g>
<mask id="mask1_257_20265" style="mask-type:luminance" maskUnits="userSpaceOnUse" x="231" y="325" width="59" height="50">
<path d="M258.375 330.606C258.375 330.606 250.311 329.915 243.399 329.109C236.487 328.302 233.607 327.957 233.607 327.957C233.607 327.957 235.911 342.587 235.911 343.509C235.796 344.43 231.188 358.37 231.188 358.37L236.372 374.728C236.372 374.728 258.951 374.037 267.245 373.691C275.54 373.346 289.018 370.696 289.018 370.696C289.018 370.696 281.184 360.213 279.571 357.563C277.843 354.914 276.691 353.531 276.691 353.531L288.442 340.744C288.442 340.744 286.829 329.454 286.138 327.842C285.447 326.114 285.216 325.422 285.216 325.422C285.216 325.422 263.098 331.067 258.375 330.606Z" fill="white"/>
</mask>
<g mask="url(#mask1_257_20265)">
<path opacity="0.26" d="M288.442 340.744L235.911 343.509C235.796 344.43 231.188 358.37 231.188 358.37L276.691 353.531L288.442 340.744Z" fill="#27292E"/>
</g>
<mask id="mask2_257_20265" style="mask-type:luminance" maskUnits="userSpaceOnUse" x="231" y="325" width="59" height="50">
<path d="M258.375 330.606C258.375 330.606 250.311 329.915 243.399 329.109C236.487 328.302 233.607 327.957 233.607 327.957C233.607 327.957 235.911 342.587 235.911 343.509C235.796 344.43 231.188 358.37 231.188 358.37L236.372 374.728C236.372 374.728 258.951 374.037 267.245 373.691C275.54 373.346 289.018 370.696 289.018 370.696C289.018 370.696 281.184 360.213 279.571 357.563C277.843 354.914 276.691 353.531 276.691 353.531L288.442 340.744C288.442 340.744 286.829 329.454 286.138 327.842C285.447 326.114 285.216 325.422 285.216 325.422C285.216 325.422 263.098 331.067 258.375 330.606Z" fill="white"/>
</mask>
<g mask="url(#mask2_257_20265)">
<path d="M260.449 333.141L248.008 334.754" stroke="#27292E" stroke-width="0.5" stroke-miterlimit="10" stroke-linecap="round" stroke-linejoin="round"/>
</g>
<mask id="mask3_257_20265" style="mask-type:luminance" maskUnits="userSpaceOnUse" x="231" y="325" width="59" height="50">
<path d="M258.375 330.606C258.375 330.606 250.311 329.915 243.399 329.109C236.487 328.302 233.607 327.957 233.607 327.957C233.607 327.957 235.911 342.587 235.911 343.509C235.796 344.43 231.188 358.37 231.188 358.37L236.372 374.728C236.372 374.728 258.951 374.037 267.245 373.691C275.54 373.346 289.018 370.696 289.018 370.696C289.018 370.696 281.184 360.213 279.571 357.563C277.843 354.914 276.691 353.531 276.691 353.531L288.442 340.744C288.442 340.744 286.829 329.454 286.138 327.842C285.447 326.114 285.216 325.422 285.216 325.422C285.216 325.422 263.098 331.067 258.375 330.606Z" fill="white"/>
</mask>
<g mask="url(#mask3_257_20265)">
<path d="M260.677 335.445L251.922 338.67" stroke="#27292E" stroke-width="0.5" stroke-miterlimit="10" stroke-linecap="round" stroke-linejoin="round"/>
</g>
<mask id="mask4_257_20265" style="mask-type:luminance" maskUnits="userSpaceOnUse" x="231" y="325" width="59" height="50">
<path d="M258.375 330.606C258.375 330.606 250.311 329.915 243.399 329.109C236.487 328.302 233.607 327.957 233.607 327.957C233.607 327.957 235.911 342.587 235.911 343.509C235.796 344.43 231.188 358.37 231.188 358.37L236.372 374.728C236.372 374.728 258.951 374.037 267.245 373.691C275.54 373.346 289.018 370.696 289.018 370.696C289.018 370.696 281.184 360.213 279.571 357.563C277.843 354.914 276.691 353.531 276.691 353.531L288.442 340.744C288.442 340.744 286.829 329.454 286.138 327.842C285.447 326.114 285.216 325.422 285.216 325.422C285.216 325.422 263.098 331.067 258.375 330.606Z" fill="white"/>
</mask>
<g mask="url(#mask4_257_20265)">
<path d="M267.82 334.984L277.497 336.827" stroke="#27292E" stroke-width="0.5" stroke-miterlimit="10" stroke-linecap="round" stroke-linejoin="round"/>
</g>
<mask id="mask5_257_20265" style="mask-type:luminance" maskUnits="userSpaceOnUse" x="231" y="325" width="59" height="50">
<path d="M258.375 330.606C258.375 330.606 250.311 329.915 243.399 329.109C236.487 328.302 233.607 327.957 233.607 327.957C233.607 327.957 235.911 342.587 235.911 343.509C235.796 344.43 231.188 358.37 231.188 358.37L236.372 374.728C236.372 374.728 258.951 374.037 267.245 373.691C275.54 373.346 289.018 370.696 289.018 370.696C289.018 370.696 281.184 360.213 279.571 357.563C277.843 354.914 276.691 353.531 276.691 353.531L288.442 340.744C288.442 340.744 286.829 329.454 286.138 327.842C285.447 326.114 285.216 325.422 285.216 325.422C285.216 325.422 263.098 331.067 258.375 330.606Z" fill="white"/>
</mask>
<g mask="url(#mask5_257_20265)">
<path d="M268.742 332.68H275.885" stroke="#27292E" stroke-width="0.5" stroke-miterlimit="10" stroke-linecap="round" stroke-linejoin="round"/>
</g>
<path d="M258.375 330.606C258.375 330.606 250.311 329.915 243.399 329.109C236.487 328.302 233.607 327.957 233.607 327.957C233.607 327.957 235.911 342.587 235.911 343.509C235.796 344.43 231.188 358.37 231.188 358.37L236.371 374.728C236.371 374.728 258.951 374.037 267.245 373.691C275.54 373.346 289.018 370.696 289.018 370.696C289.018 370.696 281.184 360.213 279.571 357.563C277.843 354.914 276.691 353.531 276.691 353.531L288.442 340.744C288.442 340.744 286.829 329.454 286.138 327.842C285.447 326.114 285.216 325.422 285.216 325.422C285.216 325.422 263.098 331.067 258.375 330.606Z" stroke="#27292E" stroke-miterlimit="10" stroke-linecap="round" stroke-linejoin="round"/>
<path d="M271.049 282.914C271.049 279.342 270.127 275.195 270.473 270.242C270.818 265.173 270.818 252.386 268.399 248.584C265.98 244.782 258.492 241.096 258.492 241.096C258.492 241.096 254.46 243.515 253.193 248.699C251.925 253.883 253.423 260.68 253.423 260.68C253.423 260.68 258.837 278.306 258.953 278.651C259.068 279.112 259.298 284.757 258.953 290.171C258.607 295.47 259.413 299.157 260.45 303.304C261.487 307.566 262.178 319.317 262.063 321.39C261.948 323.464 260.911 324.386 259.874 325.538C258.837 326.69 257.34 328.763 258.031 330.722H259.989C259.989 330.722 260.681 333.486 260.796 334.062C260.911 334.754 260.681 338.21 261.948 338.325C263.33 338.44 264.367 336.136 264.367 336.136C264.367 336.136 267.823 336.021 268.629 333.832C269.436 331.643 268.745 325.998 268.745 325.998C268.745 325.998 270.588 311.483 271.74 302.037C272.892 292.59 271.049 286.485 271.049 282.914Z" fill="white" stroke="#27292E" stroke-miterlimit="10" stroke-linecap="round" stroke-linejoin="round"/>
<path d="M258.605 241.096C258.605 241.096 254.573 243.515 253.306 248.699C252.039 253.883 253.536 260.68 253.536 260.68C253.536 260.68 255.61 267.362 257.223 272.661C260.103 273.582 264.48 274.043 270.586 272.315C270.586 271.624 270.586 270.933 270.701 270.242C271.047 265.173 271.047 252.386 268.628 248.584C266.093 244.782 258.605 241.096 258.605 241.096Z" fill="white" stroke="#27292E" stroke-miterlimit="10" stroke-linecap="round" stroke-linejoin="round"/>
<path d="M258.837 251.234C255.15 255.266 254.344 263.445 254.344 263.445C254.344 263.445 253.307 254.69 257.109 248.469" stroke="#27292E" stroke-width="0.5" stroke-miterlimit="10" stroke-linecap="round" stroke-linejoin="round"/>
</svg>
