<svg width="204" height="32" viewBox="0 0 204 32" fill="none" xmlns="http://www.w3.org/2000/svg">
<g clip-path="url(#clip0_292_4970)">
<path d="M92.1397 31.9289C96.0502 31.9289 99.2203 31.5059 99.2203 30.9841C99.2203 30.4623 96.0502 30.0394 92.1397 30.0394C88.2292 30.0394 85.0591 30.4623 85.0591 30.9841C85.0591 31.5059 88.2292 31.9289 92.1397 31.9289Z" fill="#F54949"/>
<path d="M7.83239 15.3194C7.58858 15.9797 7.45651 16.7314 7.45651 17.5746C7.45651 18.3771 7.57842 19.1187 7.83239 19.7892C8.0762 20.4597 8.43175 21.0286 8.8889 21.506C9.34604 21.9835 9.88445 22.3492 10.5143 22.6032C11.1441 22.8571 11.8451 22.9892 12.6375 22.9892C13.4603 22.9892 14.2629 22.847 15.0451 22.5727C15.1264 22.5422 15.2076 22.5117 15.2889 22.4813V16.9956H21.6279V26.1486C20.3073 27.0324 18.8038 27.713 17.1175 28.1905C15.4311 28.6679 13.7854 28.9016 12.2006 28.9016C10.4432 28.9016 8.8381 28.6273 7.36509 28.0787C5.89207 27.5302 4.61207 26.7581 3.52509 25.7422C2.4381 24.7263 1.59493 23.5276 0.995561 22.146C0.396196 20.7644 0.101593 19.2406 0.101593 17.5746C0.101593 15.9086 0.396196 14.3746 0.995561 12.993C1.59493 11.6114 2.4381 10.4127 3.53524 9.40698C4.63239 8.40127 5.92255 7.61905 7.41588 7.07048C8.90921 6.52191 10.5549 6.24762 12.353 6.24762C14.4965 6.24762 16.4064 6.61333 18.0927 7.3346C19.7689 8.05587 21.1606 9.09206 22.2476 10.4229L17.5746 14.5371C16.894 13.7549 16.1524 13.1657 15.36 12.7594C14.5676 12.353 13.6838 12.16 12.7187 12.16C11.9162 12.16 11.1848 12.2819 10.5346 12.5359C9.88445 12.7797 9.33588 13.1454 8.87874 13.6229C8.43175 14.0902 8.0762 14.659 7.83239 15.3194ZM46.9029 13.0438C47.5124 14.4152 47.8172 15.9289 47.8172 17.5746C47.8172 19.2 47.5124 20.7137 46.9029 22.0952C46.2933 23.4768 45.44 24.6756 44.353 25.7016C43.2559 26.7175 41.9759 27.5098 40.4825 28.0686C38.9994 28.6273 37.374 28.9016 35.6267 28.9016C33.8489 28.9016 32.2235 28.6273 30.72 28.0686C29.2267 27.5098 27.9264 26.7276 26.8394 25.7016C25.7422 24.6857 24.8991 23.4768 24.2895 22.0952C23.68 20.7137 23.3752 19.2102 23.3752 17.5746C23.3752 15.9289 23.68 14.4152 24.2895 13.0438C24.8991 11.6724 25.7524 10.4737 26.8394 9.45778C27.9365 8.44191 29.2267 7.64952 30.72 7.09079C32.2133 6.53206 33.8387 6.25778 35.5962 6.25778C37.374 6.25778 38.9994 6.53206 40.4825 7.09079C41.9657 7.64952 43.2559 8.43175 44.353 9.45778C45.44 10.4737 46.2933 11.6724 46.9029 13.0438ZM40.4521 17.5746C40.4521 16.7314 40.3302 15.9695 40.0762 15.299C39.8324 14.6286 39.487 14.0597 39.04 13.6025C38.593 13.1352 38.0851 12.7797 37.4959 12.5359C36.9067 12.2921 36.2768 12.16 35.5962 12.16C34.9156 12.16 34.2857 12.2819 33.6965 12.5359C33.1073 12.7797 32.5892 13.1352 32.1524 13.6025C31.7054 14.0698 31.36 14.6387 31.1162 15.299C30.8724 15.9695 30.7403 16.7314 30.7403 17.5746C30.7403 18.4178 30.8622 19.1797 31.1162 19.8502C31.36 20.5206 31.7054 21.0895 32.1524 21.5467C32.5994 22.014 33.1073 22.3695 33.6965 22.6133C34.2857 22.8571 34.9156 22.9892 35.5962 22.9892C36.2768 22.9892 36.9067 22.8673 37.4959 22.6133C38.0851 22.3695 38.6032 22.014 39.04 21.5467C39.487 21.0794 39.8324 20.5206 40.0762 19.8502C40.3302 19.1797 40.4521 18.4178 40.4521 17.5746ZM50.7022 22.0851H59.9772V16.8229H50.7022V22.0851ZM59.1238 12.4038H65.4629V28.3937H72.767V12.4038H79.106V6.7454H59.1238V12.4038ZM113.087 20.0432H122.24V14.781H113.087V12.2413H123.51V6.7454H105.915V28.3937H123.916V22.8876H113.087V20.0432ZM143.035 21.7397L147.576 28.3937H139.784L136.117 22.9486H134.126V28.3937H126.822V6.7454H137.244C139.266 6.7454 141.013 7.07048 142.486 7.73079C143.959 8.39111 145.097 9.33587 145.9 10.5651C146.702 11.7943 147.109 13.2368 147.109 14.913C147.109 16.579 146.702 18.0216 145.9 19.2305C145.209 20.2768 144.244 21.12 143.035 21.7397ZM136.787 12.3733H134.126V17.4425H136.787C137.793 17.4425 138.545 17.219 139.032 16.7619C139.52 16.3048 139.764 15.6851 139.764 14.9029C139.764 14.1206 139.52 13.501 139.032 13.0438C138.545 12.607 137.793 12.3733 136.787 12.3733ZM152.676 20.7238C151.517 20.7238 150.552 21.0895 149.77 21.8108C148.988 22.5321 148.592 23.487 148.592 24.6857C148.592 25.8641 148.988 26.8292 149.77 27.581C150.552 28.3327 151.517 28.7086 152.676 28.7086C153.834 28.7086 154.799 28.3327 155.581 27.581C156.363 26.8292 156.759 25.8641 156.759 24.6857C156.759 23.487 156.363 22.5321 155.581 21.8108C154.799 21.0895 153.834 20.7238 152.676 20.7238ZM175.705 21.7397L180.246 28.3937H172.455L168.787 22.9486H166.796V28.3937H159.492V6.7454H169.915C171.937 6.7454 173.684 7.07048 175.157 7.73079C176.63 8.39111 177.768 9.33587 178.57 10.5651C179.373 11.7943 179.779 13.2368 179.779 14.913C179.779 16.579 179.373 18.0216 178.57 19.2305C177.879 20.2768 176.924 21.12 175.705 21.7397ZM169.458 12.3733H166.796V17.4425H169.458C170.464 17.4425 171.215 17.219 171.703 16.7619C172.19 16.3048 172.434 15.6851 172.434 14.9029C172.434 14.1206 172.19 13.501 171.703 13.0438C171.215 12.607 170.464 12.3733 169.458 12.3733ZM195.901 6.7454V18.4381C195.901 20.0838 195.606 21.2622 195.017 21.953C194.428 22.6438 193.615 22.9892 192.589 22.9892C191.584 22.9892 190.771 22.6438 190.182 21.953C189.582 21.2622 189.288 20.094 189.288 18.4381V6.7454H181.984V18.6514C181.984 21.8921 182.908 24.4013 184.767 26.1994C186.626 27.9975 189.206 28.8914 192.528 28.8914C195.85 28.8914 198.441 27.9975 200.29 26.1994C202.149 24.4013 203.073 21.8921 203.073 18.6514V6.7454H195.901ZM100.368 6.7454C100.399 7.02984 100.409 7.31429 100.409 7.60889C100.409 12.0381 92.7695 23.9543 92.4343 24.4622L92.1295 24.9397L91.8248 24.4622C91.4997 23.9543 83.8502 12.0381 83.8502 7.60889C83.8502 7.31429 83.8705 7.02984 83.8908 6.7454H79.3803L88.5333 28.3937H95.7054L104.858 6.7454H100.368Z" fill="#27292E"/>
<path d="M92.1397 0.0609512C87.9746 0.0609512 84.5917 3.44381 84.5917 7.60889C84.5917 11.3371 90.687 21.2825 92.1397 23.5886C93.5924 21.2825 99.6876 11.3371 99.6876 7.60889C99.6876 3.45397 96.3048 0.0609512 92.1397 0.0609512ZM92.1397 11.1238C90.2095 11.1238 88.6349 9.54921 88.6349 7.61905C88.6349 5.68889 90.2095 4.10413 92.1397 4.10413C94.0698 4.10413 95.6444 5.67873 95.6444 7.60889C95.6444 9.53905 94.08 11.1238 92.1397 11.1238Z" fill="#F54949"/>
</g>
<defs>
<clipPath id="clip0_292_4970">
<rect width="203.175" height="32" fill="white"/>
</clipPath>
</defs>
</svg>
