<svg width="178" height="28" viewBox="0 0 178 28" fill="none" xmlns="http://www.w3.org/2000/svg">
<g clip-path="url(#clip0_72_501)">
<path d="M80.6222 27.9378C84.0439 27.9378 86.8178 27.5676 86.8178 27.1111C86.8178 26.6545 84.0439 26.2844 80.6222 26.2844C77.2005 26.2844 74.4267 26.6545 74.4267 27.1111C74.4267 27.5676 77.2005 27.9378 80.6222 27.9378Z" fill="#F54949"/>
<path d="M6.85333 13.4043C6.63999 13.9821 6.52444 14.6399 6.52444 15.3777C6.52444 16.0799 6.6311 16.7288 6.85333 17.3154C7.06666 17.9021 7.37777 18.3999 7.77777 18.8177C8.17777 19.2354 8.64888 19.5554 9.19999 19.7777C9.75111 19.9999 10.3644 20.1154 11.0578 20.1154C11.7778 20.1154 12.48 19.991 13.1644 19.751C13.2355 19.7243 13.3067 19.6977 13.3778 19.671V14.871H18.9244V22.8799C17.7689 23.6532 16.4533 24.2488 14.9778 24.6666C13.5022 25.0843 12.0622 25.2888 10.6755 25.2888C9.13777 25.2888 7.73333 25.0488 6.44444 24.5688C5.15555 24.0888 4.03555 23.4132 3.08444 22.5243C2.13333 21.6354 1.39555 20.5866 0.871105 19.3777C0.34666 18.1688 0.0888824 16.8354 0.0888824 15.3777C0.0888824 13.9199 0.34666 12.5777 0.871105 11.3688C1.39555 10.1599 2.13333 9.111 3.09333 8.231C4.05333 7.351 5.18222 6.66655 6.48888 6.18655C7.79555 5.70655 9.23555 5.46655 10.8089 5.46655C12.6844 5.46655 14.3555 5.78655 15.8311 6.41766C17.2978 7.04877 18.5155 7.95544 19.4667 9.11989L15.3778 12.7199C14.7822 12.0354 14.1333 11.5199 13.44 11.1643C12.7467 10.8088 11.9733 10.6399 11.1289 10.6399C10.4267 10.6399 9.78666 10.7466 9.21777 10.9688C8.64888 11.1821 8.16888 11.5021 7.76888 11.9199C7.37777 12.3288 7.06666 12.8266 6.85333 13.4043ZM41.04 11.4132C41.5733 12.6132 41.84 13.9377 41.84 15.3777C41.84 16.7999 41.5733 18.1243 41.04 19.3332C40.5067 20.5421 39.76 21.591 38.8089 22.4888C37.8489 23.3777 36.7289 24.071 35.4222 24.5599C34.1244 25.0488 32.7022 25.2888 31.1733 25.2888C29.6178 25.2888 28.1955 25.0488 26.88 24.5599C25.5733 24.071 24.4356 23.3866 23.4844 22.4888C22.5244 21.5999 21.7867 20.5421 21.2533 19.3332C20.72 18.1243 20.4533 16.8088 20.4533 15.3777C20.4533 13.9377 20.72 12.6132 21.2533 11.4132C21.7867 10.2132 22.5333 9.16433 23.4844 8.27544C24.4444 7.38655 25.5733 6.69322 26.88 6.20433C28.1867 5.71544 29.6089 5.47544 31.1467 5.47544C32.7022 5.47544 34.1244 5.71544 35.4222 6.20433C36.72 6.69322 37.8489 7.37766 38.8089 8.27544C39.76 9.16433 40.5067 10.2132 41.04 11.4132ZM35.3955 15.3777C35.3955 14.6399 35.2889 13.9732 35.0667 13.3866C34.8533 12.7999 34.5511 12.3021 34.16 11.9021C33.7689 11.4932 33.3244 11.1821 32.8089 10.9688C32.2933 10.7554 31.7422 10.6399 31.1467 10.6399C30.5511 10.6399 30 10.7466 29.4844 10.9688C28.9689 11.1821 28.5156 11.4932 28.1333 11.9021C27.7422 12.311 27.44 12.8088 27.2267 13.3866C27.0133 13.9732 26.8978 14.6399 26.8978 15.3777C26.8978 16.1154 27.0044 16.7821 27.2267 17.3688C27.44 17.9554 27.7422 18.4532 28.1333 18.8532C28.5244 19.2621 28.9689 19.5732 29.4844 19.7866C30 19.9999 30.5511 20.1154 31.1467 20.1154C31.7422 20.1154 32.2933 20.0088 32.8089 19.7866C33.3244 19.5732 33.7778 19.2621 34.16 18.8532C34.5511 18.4443 34.8533 17.9554 35.0667 17.3688C35.2889 16.7821 35.3955 16.1154 35.3955 15.3777ZM44.3644 19.3243H52.48V14.7199H44.3644V19.3243ZM51.7333 10.8532H57.28V24.8443H63.6711V10.8532H69.2178V5.90211H51.7333V10.8532ZM98.9511 17.5377H106.96V12.9332H98.9511V10.711H108.071V5.90211H92.6756V24.8443H108.427V20.0266H98.9511V17.5377ZM125.156 19.0221L129.129 24.8443H122.311L119.102 20.0799H117.36V24.8443H110.969V5.90211H120.089C121.858 5.90211 123.387 6.18655 124.676 6.76433C125.964 7.34211 126.96 8.16877 127.662 9.24433C128.364 10.3199 128.72 11.5821 128.72 13.0488C128.72 14.5066 128.364 15.7688 127.662 16.8266C127.058 17.7421 126.213 18.4799 125.156 19.0221ZM119.689 10.8266H117.36V15.2621H119.689C120.569 15.2621 121.227 15.0666 121.653 14.6666C122.08 14.2666 122.293 13.7243 122.293 13.0399C122.293 12.3554 122.08 11.8132 121.653 11.4132C121.227 11.031 120.569 10.8266 119.689 10.8266ZM133.591 18.1332C132.578 18.1332 131.733 18.4532 131.049 19.0843C130.364 19.7154 130.018 20.551 130.018 21.5999C130.018 22.631 130.364 23.4754 131.049 24.1332C131.733 24.791 132.578 25.1199 133.591 25.1199C134.604 25.1199 135.449 24.791 136.133 24.1332C136.818 23.4754 137.164 22.631 137.164 21.5999C137.164 20.551 136.818 19.7154 136.133 19.0843C135.449 18.4532 134.604 18.1332 133.591 18.1332ZM153.742 19.0221L157.716 24.8443H150.898L147.689 20.0799H145.947V24.8443H139.556V5.90211H148.676C150.444 5.90211 151.973 6.18655 153.262 6.76433C154.551 7.34211 155.547 8.16877 156.249 9.24433C156.951 10.3199 157.307 11.5821 157.307 13.0488C157.307 14.5066 156.951 15.7688 156.249 16.8266C155.644 17.7421 154.809 18.4799 153.742 19.0221ZM148.276 10.8266H145.947V15.2621H148.276C149.156 15.2621 149.813 15.0666 150.24 14.6666C150.667 14.2666 150.88 13.7243 150.88 13.0399C150.88 12.3554 150.667 11.8132 150.24 11.4132C149.813 11.031 149.156 10.8266 148.276 10.8266ZM171.413 5.90211V16.1332C171.413 17.5732 171.156 18.6043 170.64 19.2088C170.124 19.8132 169.413 20.1154 168.516 20.1154C167.636 20.1154 166.924 19.8132 166.409 19.2088C165.884 18.6043 165.627 17.5821 165.627 16.1332V5.90211H159.236V16.3199C159.236 19.1554 160.044 21.351 161.671 22.9243C163.298 24.4977 165.556 25.2799 168.462 25.2799C171.369 25.2799 173.636 24.4977 175.253 22.9243C176.88 21.351 177.689 19.1554 177.689 16.3199V5.90211H171.413ZM87.8222 5.90211C87.8489 6.151 87.8578 6.39989 87.8578 6.65766C87.8578 10.5332 81.1733 20.9599 80.88 21.4043L80.6133 21.8221L80.3467 21.4043C80.0622 20.9599 73.3689 10.5332 73.3689 6.65766C73.3689 6.39989 73.3867 6.151 73.4044 5.90211H69.4578L77.4667 24.8443H83.7422L91.7511 5.90211H87.8222Z" fill="#FAF9F7"/>
<path d="M80.6222 0.0532227C76.9778 0.0532227 74.0178 3.01322 74.0178 6.65767C74.0178 9.91989 79.3511 18.6221 80.6222 20.6399C81.8933 18.6221 87.2267 9.91989 87.2267 6.65767C87.2267 3.02211 84.2667 0.0532227 80.6222 0.0532227ZM80.6222 9.73322C78.9333 9.73322 77.5556 8.35544 77.5556 6.66656C77.5556 4.97767 78.9333 3.591 80.6222 3.591C82.3111 3.591 83.6889 4.96878 83.6889 6.65767C83.6889 8.34656 82.32 9.73322 80.6222 9.73322Z" fill="#F54949"/>
</g>
<defs>
<clipPath id="clip0_72_501">
<rect width="177.778" height="28" fill="white"/>
</clipPath>
</defs>
</svg>
