<svg width="360" height="196" viewBox="0 0 360 196" fill="none" xmlns="http://www.w3.org/2000/svg">
<g clip-path="url(#clip0_191_7409)">
<path d="M166.16 106.353C166.16 106.353 184.767 139.152 202.901 142.148C225.134 145.774 257.775 126.222 257.775 126.222L239.326 108.246L201.639 108.088L181.14 66.144L166.16 106.353Z" fill="#90DFF0"/>
<path d="M96.625 160.439L97.8864 250.792L53.8926 288.952L63.0383 311.501C63.0383 311.501 127.373 280.594 137.307 266.718C147.242 252.842 148.818 219.098 148.818 219.098L181.774 252.211L194.389 323.958L219.461 322.538C219.461 322.538 216.307 269.872 216.307 250.319C216.307 230.766 166.479 163.593 166.479 163.593L96.625 160.439Z" fill="#27292E"/>
<path d="M194.228 324.903C193.755 324.903 193.282 324.588 193.124 323.957L180.509 252.526L149.603 221.463C149.13 229.505 146.607 255.207 138.092 267.191C128 281.067 66.1882 311.027 63.5075 312.289C63.1922 312.446 62.8768 312.446 62.7191 312.289C62.4038 312.131 62.2461 311.973 62.0884 311.658L52.9427 289.109C52.785 288.636 52.9427 288.163 53.2581 287.848L96.9366 250.003L95.6751 160.124C95.6751 159.808 95.8328 159.493 95.9905 159.335C96.1481 159.177 96.4635 159.02 96.7789 159.02L166.475 162.173C166.791 162.173 167.106 162.331 167.264 162.646C169.314 165.485 217.249 230.293 217.249 250.003C217.249 269.241 220.403 321.592 220.403 322.065C220.403 322.696 219.93 323.169 219.457 323.169L194.228 324.903ZM148.657 217.994C148.972 217.994 149.288 218.151 149.445 218.309L182.401 251.265C182.559 251.423 182.717 251.58 182.717 251.896L195.174 322.696L218.196 321.434C217.723 313.708 215.042 268.137 215.042 250.319C215.042 232.185 169.944 170.373 165.844 164.696L97.725 161.7L98.9865 250.792C98.9865 251.107 98.8288 251.423 98.6711 251.58L55.1503 289.267L63.5075 309.923C71.8648 305.824 127.212 278.544 136.2 265.93C145.976 252.369 147.553 219.255 147.553 218.94C147.553 218.467 147.869 218.151 148.184 217.994C148.342 217.994 148.499 217.994 148.657 217.994Z" fill="#27292E"/>
<path d="M92.0488 169.269L93.7834 125.118C93.7834 125.118 92.9949 70.4014 113.178 60.625C133.362 50.8486 173.414 55.106 181.298 66.1439C189.182 77.1818 170.575 169.269 170.575 169.269H92.0488Z" fill="#90DFF0"/>
<path d="M176.57 19.3122C176.412 14.5817 174.362 10.3242 171.051 7.01284C163.955 0.547795 148.029 -1.97516 142.195 7.64357C140.302 7.80125 138.568 8.43199 136.991 9.69346C135.257 11.428 133.837 13.6356 133.207 16.1585C129.895 25.4619 132.576 35.3959 136.203 44.5416C137.306 47.6953 139.041 50.3759 141.249 52.7412C146.767 57.9448 154.494 55.1064 160.644 52.4258C164.743 50.849 168.528 48.1684 171.524 44.6993C174.993 40.4418 176.727 32.5576 176.727 27.1964C176.885 24.6734 176.727 21.9928 176.57 19.3122Z" fill="white"/>
<path d="M148.974 56.6831C145.82 56.8408 142.824 55.5793 140.616 53.3717C138.251 51.0065 136.359 48.0105 135.255 44.6991C131.944 36.4996 128.632 25.777 132.259 15.5276C133.047 12.8469 134.467 10.4817 136.359 8.58949C137.778 7.32801 139.67 6.53959 141.562 6.22423C144.085 2.75518 147.87 0.547585 152.127 0.0745332C159.223 -0.713887 166.319 1.336 171.838 5.90884C175.307 8.90483 177.199 13.1623 177.83 18.8389C178.145 21.5196 178.145 24.2002 178.145 26.8808C178.145 32.5574 176.253 40.757 172.626 45.0145C169.63 48.4835 165.688 51.3219 161.431 53.0564C157.961 54.7909 153.389 56.6831 148.974 56.6831ZM154.966 2.43979C154.019 2.43979 153.231 2.4398 152.285 2.59749C148.5 2.91286 145.031 4.96275 142.982 8.11643C142.824 8.4318 142.508 8.58949 142.035 8.58949C140.459 8.74717 138.882 9.3779 137.62 10.4817C136.043 12.0585 134.782 14.1084 134.151 16.4737C130.84 25.9347 133.994 36.1842 137.147 44.0684C138.251 47.0644 139.828 49.745 142.035 51.9526C146.924 56.5254 153.704 54.3179 160.327 51.4795C164.269 49.9027 167.896 47.3798 170.734 44.0684C173.888 40.1263 175.622 32.5574 175.78 27.3539C175.78 24.6732 175.78 22.1503 175.464 19.4697C174.834 14.2661 173.257 10.6394 170.261 7.80107C165.846 4.33202 160.484 2.43979 154.966 2.43979Z" fill="#27292E"/>
<path d="M161.745 54.6332L160.326 68.0363C160.326 68.0363 157.172 75.1321 148.972 71.5054C144.084 69.4555 140.931 64.7249 140.615 59.5214L143.296 35.5534C143.296 35.5534 150.234 33.1881 150.865 18.9966C150.865 18.9966 159.222 18.9966 172.31 19.6273C172.31 19.6273 174.044 41.7031 171.994 48.1681C169.944 54.6332 161.745 54.6332 161.745 54.6332Z" fill="white"/>
<path d="M153.39 73.7132C151.813 73.7132 150.078 73.2402 148.659 72.6094C143.456 70.4019 139.829 65.356 139.514 59.6794L142.194 35.5537C142.194 35.0806 142.51 34.7653 142.983 34.6076C142.983 34.6076 149.29 32.2423 149.763 19.1546C149.763 18.5238 150.236 18.0508 150.867 18.0508C150.867 18.0508 159.382 18.0508 172.312 18.6815C172.943 18.6815 173.258 19.1546 173.416 19.6276C173.573 20.5737 175.15 42.0187 172.943 48.6415C171.208 53.845 166.162 55.4219 163.009 55.7373L161.747 68.1943C161.747 68.352 161.747 68.352 161.747 68.5097C160.013 71.6634 156.859 73.5555 153.39 73.7132ZM144.244 36.3421L141.721 59.6794C142.037 64.4099 145.033 68.6673 149.448 70.5595C156.07 73.3979 158.909 68.6674 159.382 67.7213L160.801 54.4758C160.801 53.845 161.274 53.5297 161.905 53.5297C162.22 53.5297 168.843 53.5297 170.735 47.8531C172.627 42.1764 171.366 24.9889 171.05 20.7314C161.274 20.2584 154.336 20.2583 151.813 20.1007C151.025 31.7693 146.136 35.396 144.244 36.3421Z" fill="#27292E"/>
<path d="M148.346 36.0264C148.188 34.765 147.715 33.6612 146.927 32.715C146.139 31.9266 145.192 31.1382 144.089 30.6652C143.616 30.3498 142.985 30.0344 142.354 30.0344C141.881 30.0344 141.408 30.0344 141.093 30.1921C140.147 30.5075 139.2 31.1382 138.57 31.9266C138.254 32.715 137.939 33.5035 138.097 34.4496C138.097 35.3957 138.097 36.3418 138.254 37.1302C139.2 40.9146 142.827 43.1222 146.612 42.3338C146.612 42.3338 146.612 42.3338 146.769 42.3338" fill="white"/>
<path d="M145.19 43.753C143.771 43.753 142.351 43.2799 140.932 42.6492C139.04 41.5454 137.779 39.6532 137.306 37.6033C137.148 36.6572 136.99 35.5534 136.99 34.6073C136.99 33.6612 137.148 32.5574 137.621 31.6113C138.252 30.5075 139.355 29.7191 140.617 29.246C141.09 29.0883 141.721 28.9307 142.351 28.9307C143.14 29.0883 143.928 29.246 144.559 29.7191C145.663 30.3498 146.767 31.1382 147.555 31.9267C148.501 33.0304 148.974 34.4496 149.132 35.8688C149.132 36.4995 148.659 36.9726 148.186 36.9726C147.555 36.9726 147.082 36.4995 146.924 36.0264C146.924 35.0803 146.451 34.1342 145.821 33.3458C145.032 32.5574 144.244 31.9267 143.298 31.6113C142.982 31.2959 142.509 31.1382 142.036 31.1382C141.721 31.1382 141.405 31.1382 141.09 31.2959C140.302 31.4536 139.671 31.9267 139.198 32.5574C138.882 33.1881 138.725 33.8189 138.882 34.4496C138.882 35.238 138.882 36.0265 139.04 36.9726C139.829 40.1262 142.825 42.0184 145.978 41.23C145.978 41.23 145.978 41.23 146.136 41.23C146.767 41.0723 147.397 41.3877 147.397 42.0184C147.555 42.6492 147.24 43.2799 146.609 43.2799C146.451 43.5953 145.821 43.753 145.19 43.753Z" fill="#27292E"/>
<path d="M161.117 61.0981C158.279 60.3097 155.756 58.5752 153.863 56.3676C152.287 54.6331 151.656 52.2678 152.287 49.9026C154.652 52.7409 158.121 54.4754 161.748 54.6331L161.117 61.0981Z" fill="#27292E"/>
<path d="M161.116 62.2018H160.959C157.805 61.4134 155.124 59.6788 153.074 57.1559C151.182 55.106 150.551 52.2677 151.34 49.587C151.497 49.2717 151.813 48.9563 152.286 48.9563C152.759 48.9563 153.074 49.114 153.39 49.4294C155.44 51.9523 158.593 53.5291 161.905 53.6868C162.22 53.6868 162.535 53.8445 162.693 54.0022C162.851 54.3176 163.008 54.4752 163.008 54.9483L162.378 61.4134C162.378 61.7287 162.22 62.0441 161.905 62.2018C161.589 62.0441 161.432 62.2018 161.116 62.2018ZM153.074 52.4253C153.232 53.6868 153.863 54.7906 154.651 55.7367C156.228 57.4712 158.12 58.7327 160.17 59.6788L160.485 55.7367C157.805 55.4213 155.282 54.3176 153.074 52.4253Z" fill="#27292E"/>
<path d="M164.585 42.9642C163.482 42.9642 162.378 42.6488 161.432 42.3334C160.801 42.1758 160.643 41.3873 160.801 40.9143C160.959 40.2836 161.747 40.1259 162.22 40.2835C163.166 40.7566 164.112 40.7566 165.058 40.7566C164.585 38.2337 163.797 35.8684 162.536 33.5031C162.22 33.0301 162.536 32.2417 163.009 32.084C163.482 31.7686 164.27 32.084 164.428 32.557C168.37 40.7566 166.951 41.8604 166.478 42.3334C166.162 42.6488 165.374 42.9642 164.585 42.9642Z" fill="#27292E"/>
<path d="M161.273 47.3799C159.853 47.3799 158.592 47.0645 157.488 46.2761C156.227 45.33 155.438 43.9108 155.281 42.1763C155.123 41.5456 155.596 41.0725 156.227 40.9148C156.857 40.7572 157.33 41.2302 157.488 41.8609C157.488 42.807 158.119 43.7531 158.907 44.3839C159.853 45.0146 161.115 45.1723 162.219 45.0146C162.849 44.8569 163.322 45.33 163.48 45.9607C163.638 46.5915 163.165 47.0645 162.534 47.2222C162.061 47.3799 161.746 47.3799 161.273 47.3799Z" fill="#27292E"/>
<path d="M159.697 30.5079C159.382 30.5079 159.067 30.3502 158.909 30.1925C158.594 29.7195 157.963 29.4041 157.332 29.4041C156.544 29.4041 155.598 29.7195 154.967 30.3502C154.494 30.8233 153.863 30.6656 153.39 30.1925C152.917 29.7195 152.917 29.0888 153.39 28.6157C154.494 27.6696 155.913 27.1965 157.332 27.1965C158.594 27.1965 159.697 27.8273 160.328 28.7734C160.801 29.2464 160.643 29.8772 160.328 30.3502C160.17 30.3502 160.013 30.5079 159.697 30.5079Z" fill="#27292E"/>
<path d="M166.319 31.9266C166.161 31.9266 166.004 31.9266 165.846 31.7689C165.373 31.4535 165.058 30.8228 165.373 30.3497C165.846 29.4036 166.792 28.6152 167.896 28.4575C169.315 28.4575 170.577 29.0883 171.365 30.1921C171.68 30.6651 171.523 31.4535 171.05 31.7689C170.734 31.9266 170.261 31.9266 169.788 31.7689C169.157 31.1382 168.527 30.8228 168.211 30.8228C167.896 30.8228 167.423 31.4535 167.423 31.4535C167.265 31.6112 166.792 31.9266 166.319 31.9266Z" fill="#27292E"/>
<path d="M152.759 73.0823L145.505 76.8667L149.763 82.701L136.99 137.26L149.132 150.978L159.697 132.371L153.547 82.701L158.435 77.4974L152.759 73.0823Z" fill="white"/>
<path d="M171.839 164.066C171.051 164.066 170.578 163.435 170.735 162.804C172.47 149.401 180.827 97.5232 180.985 97.0501C180.985 96.4194 181.615 95.9464 182.246 96.104C182.877 96.2617 183.35 96.7348 183.192 97.3655C183.192 97.3655 183.192 97.3655 183.192 97.5232C183.035 97.9962 174.677 149.717 173.101 163.12C172.943 163.593 172.47 164.066 171.839 164.066Z" fill="#27292E"/>
<path d="M262.823 147.194C298.789 147.194 327.946 118.037 327.946 82.07C327.946 46.1033 298.789 16.9465 262.823 16.9465C226.856 16.9465 197.699 46.1033 197.699 82.07C197.699 118.037 226.856 147.194 262.823 147.194Z" fill="#27292E"/>
<path d="M262.823 148.14C226.24 148.14 196.596 118.495 196.596 81.9126C196.596 45.3299 226.24 15.6853 262.823 15.6853C297.987 15.6853 327 43.1223 328.893 78.1282C330.943 114.553 303.19 145.932 266.765 147.982C265.346 148.14 264.084 148.14 262.823 148.14ZM262.981 18.0506C261.719 18.0506 260.458 18.0505 259.196 18.2082C223.875 20.2581 197.069 50.5335 199.119 85.8547C201.169 121.176 231.444 147.982 266.765 145.932C302.086 143.882 328.893 113.607 326.843 78.2859C324.793 44.5415 296.725 18.0506 262.981 18.0506Z" fill="#27292E"/>
<path d="M252.733 147.824C288.7 147.824 317.856 118.668 317.856 82.7009C317.856 46.7342 288.7 17.5774 252.733 17.5774C216.766 17.5774 187.609 46.7342 187.609 82.7009C187.609 118.668 216.766 147.824 252.733 147.824Z" fill="#90DFF0"/>
<path d="M252.729 148.771C216.146 148.771 186.659 118.968 186.817 82.5434C186.817 45.9607 216.619 16.4738 253.044 16.6315C289.627 16.6315 319.114 46.4338 318.956 82.8588C318.956 117.865 291.519 146.721 256.671 148.771C255.252 148.771 253.99 148.771 252.729 148.771ZM252.887 18.6814C251.625 18.6814 250.364 18.6814 249.102 18.8391C213.781 20.889 186.975 51.1643 189.025 86.4855C191.074 121.807 221.35 148.613 256.671 146.563C291.992 144.513 318.799 114.238 316.749 78.9167C314.699 45.0146 286.631 18.6814 252.887 18.6814Z" fill="#27292E"/>
<path d="M293.729 60.625C293.256 61.2557 292.783 61.8864 292.31 62.5172L241.851 112.976C240.117 114.711 238.855 114.711 237.121 112.976L208.738 83.6468C207.476 82.7007 207.318 80.9662 208.264 79.7047C208.422 79.3893 208.738 79.2317 209.053 79.074L216.149 72.6089C217.095 71.5051 218.829 71.3475 219.933 72.2936C220.091 72.4512 220.248 72.6089 220.406 72.7666L237.278 89.9542C239.013 91.6887 240.274 91.6887 242.009 89.9542L281.115 51.0062C282.849 49.2717 284.11 49.2717 285.845 51.0062C288.053 53.2138 290.26 55.4214 292.468 57.6289C292.941 58.2597 293.414 58.8904 293.887 59.5211L293.729 60.625Z" fill="white"/>
<path d="M189.975 119.441C189.975 119.441 203.22 117.707 205.27 116.445C207.32 115.184 212.839 106.038 215.835 105.408C218.831 104.777 218.2 111.4 215.835 114.08C213.47 116.761 227.03 106.827 229.238 109.034C232.234 112.976 232.234 118.495 229.238 122.437C225.454 127.01 203.062 135.841 191.394 136.471" fill="white"/>
<path d="M191.232 137.417C190.601 137.417 190.128 136.944 190.128 136.314C190.128 135.683 190.601 135.21 191.232 135.21C202.427 134.579 224.661 125.907 228.288 121.649C230.968 118.18 230.968 113.292 228.445 109.665C227.184 109.192 221.192 112.661 219.142 113.765C215.988 115.499 215.357 115.972 214.727 115.026C214.254 114.553 214.411 113.923 215.042 113.134C216.619 111.242 217.092 107.457 216.461 106.511C216.461 106.354 216.304 106.354 216.146 106.354C214.727 106.669 211.888 110.453 209.838 112.819C208.735 114.396 207.473 115.815 205.896 117.234C203.689 118.653 192.336 120.23 190.128 120.388C189.497 120.388 189.024 120.072 188.866 119.441C188.709 118.811 189.182 118.338 189.813 118.18C195.174 117.549 203.373 116.13 204.635 115.342C205.896 114.08 207 112.819 207.946 111.4C211.1 107.458 213.465 104.619 215.515 104.146C216.619 103.831 217.723 104.304 218.196 105.25C218.984 107.3 218.984 109.665 218.196 111.715C223.715 108.561 228.13 106.196 229.864 108.088C232.545 110.769 233.964 118.022 229.864 122.911C225.765 127.799 203.373 136.787 191.232 137.417Z" fill="#27292E"/>
<path d="M117.751 60.3101C117.751 60.3101 123.427 116.919 139.826 117.234C159.852 117.549 194.07 116.761 194.07 116.761L200.693 138.048C200.693 138.048 147.711 150.821 125.32 141.044C102.928 131.268 101.352 93.266 101.352 93.266L117.751 60.3101Z" fill="#90DFF0"/>
<path d="M155.913 118.968C146.925 118.968 139.198 118.653 137.148 117.707C131.314 115.184 120.592 78.128 118.384 70.5592C118.226 69.9284 118.542 69.2977 119.172 69.14C119.803 68.9824 120.434 69.2977 120.592 69.9285C125.322 86.643 134.31 113.922 138.094 115.499C141.879 117.076 173.731 116.445 193.915 115.499C194.545 115.499 195.018 115.972 195.176 116.603C195.176 117.234 194.703 117.707 194.072 117.864C190.761 118.022 171.366 118.968 155.913 118.968Z" fill="#27292E"/>
<path d="M149.133 145.459C140.145 145.459 131.314 144.671 125.007 142.148C103.877 134.106 100.408 104.461 100.408 103.2C100.408 102.569 100.724 101.938 101.354 101.938C101.985 101.938 102.616 102.254 102.616 102.885C102.616 103.2 106.085 132.529 125.795 139.94C145.979 147.509 191.55 138.679 192.023 138.679C192.653 138.521 193.284 138.994 193.284 139.625C193.442 140.256 192.969 140.886 192.338 140.886C178.146 143.725 163.64 145.144 149.133 145.459Z" fill="#27292E"/>
</g>
<defs>
<clipPath id="clip0_191_7409">
<rect width="360" height="196" fill="white"/>
</clipPath>
</defs>
</svg>
