<svg width="24" height="25" viewBox="0 0 24 25" fill="none" xmlns="http://www.w3.org/2000/svg">
<path d="M16.2188 4.34375V4.625H20.4375C20.9062 4.64844 21.3047 4.8125 21.6328 5.11719C21.9375 5.44531 22.1016 5.84375 22.125 6.3125V15.875H22.4062C22.9219 15.9219 23.2031 16.2031 23.25 16.7188C23.2031 17.2344 22.9219 17.5156 22.4062 17.5625H12.8438V20.6562C12.7969 21.1719 12.5156 21.4531 12 21.5C11.4844 21.4531 11.2031 21.1719 11.1562 20.6562V17.5625H1.59375C1.07812 17.5156 0.796875 17.2344 0.75 16.7188C0.796875 16.2031 1.07812 15.9219 1.59375 15.875H1.875V6.3125C1.89844 5.84375 2.0625 5.44531 2.36719 5.11719C2.69531 4.8125 3.09375 4.64844 3.5625 4.625H7.78125V4.34375C7.82812 3.82812 8.10938 3.54688 8.625 3.5C9.14062 3.54688 9.42188 3.82812 9.46875 4.34375V4.625H14.5312V4.34375C14.5781 3.82812 14.8594 3.54688 15.375 3.5C15.8906 3.54688 16.1719 3.82812 16.2188 4.34375ZM20.4375 15.875V6.3125H16.2188V8H16.5C17.0156 8.04688 17.2969 8.32812 17.3438 8.84375C17.2969 9.35938 17.0156 9.64062 16.5 9.6875H14.25C13.7344 9.64062 13.4531 9.35938 13.4062 8.84375C13.4531 8.32812 13.7344 8.04688 14.25 8H14.5312V6.3125H9.46875V8H9.75C10.2656 8.04688 10.5469 8.32812 10.5938 8.84375C10.5469 9.35938 10.2656 9.64062 9.75 9.6875H7.5C6.98438 9.64062 6.70312 9.35938 6.65625 8.84375C6.70312 8.32812 6.98438 8.04688 7.5 8H7.78125V6.3125H3.5625V15.875H20.4375Z" fill="#27292E"/>
</svg>
