<svg width="20" height="20" viewBox="0 0 20 20" fill="none" xmlns="http://www.w3.org/2000/svg">
<path d="M10.8761 8.25H11.3409C11.6508 8.77865 12.0701 9.19792 12.5987 9.50781C13.1274 9.83594 13.7198 10 14.3761 10C14.686 10 14.9776 9.96354 15.2511 9.89062V16.125C15.2511 16.3802 15.1691 16.5898 15.005 16.7539C14.8409 16.918 14.6313 17 14.3761 17C14.1209 17 13.9112 16.918 13.7472 16.7539C13.5831 16.5898 13.5011 16.3802 13.5011 16.125V12.2695L9.78234 15.25H11.3136C11.5688 15.25 11.7784 15.332 11.9425 15.4961C12.1066 15.6602 12.1886 15.8698 12.1886 16.125C12.1886 16.3802 12.1066 16.5898 11.9425 16.7539C11.7784 16.918 11.5688 17 11.3136 17H7.37609C6.62869 16.9818 6.0089 16.7266 5.51671 16.2344C5.02452 15.7422 4.76931 15.1224 4.75109 14.375V8.27734C4.71463 7.78516 4.45942 7.49349 3.98546 7.40234L3.76671 7.375C3.52973 7.33854 3.33832 7.22917 3.19249 7.04688C3.04666 6.86458 2.98286 6.64583 3.00109 6.39062C3.03754 6.15365 3.14692 5.96224 3.32921 5.81641C3.5115 5.67057 3.73025 5.60677 3.98546 5.625L4.20421 5.65234C4.87869 5.76172 5.42556 6.05339 5.84484 6.52734C6.26411 7.0013 6.48286 7.58464 6.50109 8.27734V10.6016C6.97504 9.89062 7.59484 9.32552 8.36046 8.90625C9.10786 8.48698 9.9464 8.26823 10.8761 8.25ZM15.2511 8.98828C14.9776 9.07943 14.686 9.125 14.3761 9.125C13.574 9.10677 12.9178 8.8151 12.4073 8.25C12.3162 8.14062 12.2342 8.02214 12.1612 7.89453C11.8878 7.47526 11.7511 7.01042 11.7511 6.5V3.30078C11.7693 3.11849 11.8696 3.01823 12.0519 3C12.143 3 12.2159 3.03646 12.2706 3.10938L12.6261 3.57422L13.3644 4.58594L13.5011 4.75H15.2511L15.3878 4.58594L16.1261 3.57422L16.4816 3.10938C16.5362 3.03646 16.6092 3 16.7003 3C16.8826 3.01823 16.9829 3.11849 17.0011 3.30078V6.5C17.0011 6.97396 16.8826 7.41146 16.6456 7.8125C16.3357 8.35938 15.8709 8.7513 15.2511 8.98828ZM13.9386 6.5C13.9204 6.22656 13.7745 6.08073 13.5011 6.0625C13.2276 6.08073 13.0818 6.22656 13.0636 6.5C13.0818 6.77344 13.2276 6.91927 13.5011 6.9375C13.7745 6.91927 13.9204 6.77344 13.9386 6.5ZM15.2511 6.9375C15.5245 6.91927 15.6704 6.77344 15.6886 6.5C15.6704 6.22656 15.5245 6.08073 15.2511 6.0625C14.9776 6.08073 14.8318 6.22656 14.8136 6.5C14.8318 6.77344 14.9776 6.91927 15.2511 6.9375Z" fill="#27292E"/>
</svg>
