<svg width="20" height="20" viewBox="0 0 20 20" fill="none" xmlns="http://www.w3.org/2000/svg">
<path d="M13.5469 5.3125C13.9479 5.27604 14.1667 5.05729 14.2031 4.65625C14.1667 4.25521 13.9479 4.03646 13.5469 4H11.7031C11.0286 4.01823 10.4635 4.25521 10.0078 4.71094C9.55208 5.16667 9.3151 5.73177 9.29688 6.40625V13.7578L6.91797 11.3789C6.60807 11.1237 6.29818 11.1237 5.98828 11.3789C5.73307 11.6888 5.73307 11.9987 5.98828 12.3086L9.48828 15.8086C9.79818 16.0638 10.1081 16.0638 10.418 15.8086L13.918 12.3086C14.1732 11.9987 14.1732 11.6888 13.918 11.3789C13.6081 11.1237 13.2982 11.1237 12.9883 11.3789L10.6094 13.7578V6.40625C10.6094 6.09635 10.7188 5.84115 10.9375 5.64062C11.138 5.42188 11.3932 5.3125 11.7031 5.3125H13.5469Z" fill="#939599"/>
</svg>
