<svg width="9" height="10" viewBox="0 0 9 10" fill="none" xmlns="http://www.w3.org/2000/svg">
<path d="M0.575736 8.11126C0.341421 8.34557 0.341421 8.72547 0.575736 8.95979C0.810051 9.1941 1.18995 9.1941 1.42426 8.95979L0.575736 8.11126ZM8.67107 1.46445C8.67107 1.13308 8.40244 0.864455 8.07107 0.864454L2.67107 0.864454C2.3397 0.864455 2.07107 1.13308 2.07107 1.46445C2.07107 1.79583 2.3397 2.06445 2.67107 2.06445H7.47107V6.86445C7.47107 7.19583 7.7397 7.46445 8.07107 7.46445C8.40244 7.46445 8.67107 7.19583 8.67107 6.86445L8.67107 1.46445ZM1.42426 8.95979L8.49533 1.88872L7.6468 1.04019L0.575736 8.11126L1.42426 8.95979Z" fill="currentColor"/>
</svg>
