<svg width="24" height="24" viewBox="0 0 24 24" fill="none" xmlns="http://www.w3.org/2000/svg">
<path d="M8.04058 15.1113C7.80627 15.3456 7.80627 15.7255 8.04058 15.9598C8.27489 16.1941 8.65479 16.1941 8.88911 15.9598L8.04058 15.1113ZM16.1359 8.46445C16.1359 8.13308 15.8673 7.86445 15.5359 7.86445L10.1359 7.86445C9.80454 7.86445 9.53591 8.13308 9.53591 8.46445C9.53591 8.79583 9.80454 9.06445 10.1359 9.06445H14.9359V13.8645C14.9359 14.1958 15.2045 14.4645 15.5359 14.4645C15.8673 14.4645 16.1359 14.1958 16.1359 13.8645L16.1359 8.46445ZM8.88911 15.9598L15.9602 8.88872L15.1116 8.04019L8.04058 15.1113L8.88911 15.9598Z" fill="#27292E"/>
</svg>
