<svg width="40" height="40" viewBox="0 0 40 40" fill="none" xmlns="http://www.w3.org/2000/svg">
<rect width="40" height="40" rx="20" fill="#D0EB81"/>
<path d="M16.0402 23.1113C15.8059 23.3456 15.8059 23.7255 16.0402 23.9598C16.2745 24.1941 16.6544 24.1941 16.8887 23.9598L16.0402 23.1113ZM24.1355 16.4645C24.1355 16.1331 23.8669 15.8645 23.5355 15.8645L18.1355 15.8645C17.8042 15.8645 17.5355 16.1331 17.5355 16.4645C17.5355 16.7958 17.8042 17.0645 18.1355 17.0645H22.9355V21.8645C22.9355 22.1958 23.2042 22.4645 23.5355 22.4645C23.8669 22.4645 24.1355 22.1958 24.1355 21.8645L24.1355 16.4645ZM16.8887 23.9598L23.9598 16.8887L23.1113 16.0402L16.0402 23.1113L16.8887 23.9598Z" fill="#27292E"/>
</svg>
