<svg width="40" height="40" viewBox="0 0 40 40" fill="none" xmlns="http://www.w3.org/2000/svg">
<rect width="40" height="40" rx="20" fill="currentColor"/>
<path d="M16.0402 23.1114C15.8059 23.3457 15.8059 23.7256 16.0402 23.9599C16.2745 24.1942 16.6544 24.1942 16.8887 23.9599L16.0402 23.1114ZM24.1355 16.4646C24.1355 16.1332 23.8669 15.8646 23.5355 15.8646L18.1355 15.8646C17.8042 15.8646 17.5355 16.1332 17.5355 16.4646C17.5355 16.7959 17.8042 17.0646 18.1355 17.0646H22.9355V21.8646C22.9355 22.1959 23.2042 22.4646 23.5355 22.4646C23.8669 22.4646 24.1355 22.1959 24.1355 21.8646L24.1355 16.4646ZM16.8887 23.9599L23.9598 16.8888L23.1113 16.0403L16.0402 23.1114L16.8887 23.9599Z" fill="white"/>
</svg>
