<svg width="24" height="24" viewBox="0 0 24 24" fill="none" xmlns="http://www.w3.org/2000/svg">
<path d="M18.5 11H14C13.5417 10.9583 13.2917 10.7083 13.25 10.25C13.2917 9.79167 13.5417 9.54167 14 9.5H16.8438L15.9688 8.5V8.46875C15.4688 7.86458 14.8542 7.38542 14.125 7.03125C13.3958 6.67708 12.6042 6.5 11.75 6.5C10.1875 6.54167 8.89583 7.08333 7.875 8.125C6.83333 9.14583 6.29167 10.4375 6.25 12C6.29167 13.5625 6.83333 14.8542 7.875 15.875C8.89583 16.9167 10.1875 17.4583 11.75 17.5C13.0208 17.4792 14.125 17.1146 15.0625 16.4062C15.4375 16.1562 15.7812 16.2083 16.0938 16.5625C16.3438 16.9375 16.2917 17.2812 15.9375 17.5938C14.75 18.5104 13.3542 18.9792 11.75 19C10.4375 18.9792 9.26042 18.6562 8.21875 18.0312C7.15625 17.4271 6.32292 16.5938 5.71875 15.5312C5.09375 14.4896 4.77083 13.3125 4.75 12C4.77083 10.6875 5.09375 9.51042 5.71875 8.46875C6.32292 7.40625 7.15625 6.57292 8.21875 5.96875C9.26042 5.34375 10.4375 5.02083 11.75 5C12.8333 5 13.8438 5.22917 14.7812 5.6875C15.6979 6.125 16.4792 6.73958 17.125 7.53125L17.75 8.25V5.75C17.7917 5.29167 18.0417 5.04167 18.5 5C18.9583 5.04167 19.2083 5.29167 19.25 5.75V10.25C19.2083 10.7083 18.9583 10.9583 18.5 11Z" fill="#27292E"/>
</svg>
