<svg width="24" height="25" viewBox="0 0 24 25" fill="none" xmlns="http://www.w3.org/2000/svg">
<path d="M10.875 5.1875C10.7109 5.21094 10.6172 5.30469 10.5938 5.46875V6.3125H13.4062V5.46875C13.3828 5.30469 13.2891 5.21094 13.125 5.1875H10.875ZM8.90625 5.46875C8.92969 4.90625 9.11719 4.4375 9.46875 4.0625C9.84375 3.71094 10.3125 3.52344 10.875 3.5H13.125C13.6875 3.52344 14.1562 3.71094 14.5312 4.0625C14.8828 4.4375 15.0703 4.90625 15.0938 5.46875V6.3125H15.375C16.6406 6.33594 17.707 6.76953 18.5742 7.61328C19.418 8.48047 19.8516 9.54688 19.875 10.8125V19.25C19.8516 19.8828 19.6289 20.4102 19.207 20.832C18.7852 21.2539 18.2578 21.4766 17.625 21.5H6.375C5.74219 21.4766 5.21484 21.2539 4.79297 20.832C4.37109 20.4102 4.14844 19.8828 4.125 19.25V10.8125C4.14844 9.54688 4.58203 8.48047 5.42578 7.61328C6.29297 6.76953 7.35938 6.33594 8.625 6.3125H8.90625V5.46875ZM17.0625 19.8125H17.625C17.9766 19.7891 18.1641 19.6016 18.1875 19.25V10.8125C18.1641 10.0156 17.8945 9.34766 17.3789 8.80859C16.8398 8.29297 16.1719 8.02344 15.375 8H8.625C7.82812 8.02344 7.16016 8.29297 6.62109 8.80859C6.10547 9.34766 5.83594 10.0156 5.8125 10.8125V19.25C5.83594 19.6016 6.02344 19.7891 6.375 19.8125H6.9375V14.4688C6.96094 13.7422 7.20703 13.1445 7.67578 12.6758C8.14453 12.207 8.74219 11.9609 9.46875 11.9375H14.5312C15.2578 11.9609 15.8555 12.207 16.3242 12.6758C16.793 13.1445 17.0391 13.7422 17.0625 14.4688V19.8125ZM8.625 19.8125H15.375V17.5625H8.625V19.8125ZM9.1875 9.125H14.8125C15.3281 9.17188 15.6094 9.45312 15.6562 9.96875C15.6094 10.4844 15.3281 10.7656 14.8125 10.8125H9.1875C8.67188 10.7656 8.39062 10.4844 8.34375 9.96875C8.39062 9.45312 8.67188 9.17188 9.1875 9.125ZM15.375 15.875V14.4688C15.3281 13.9531 15.0469 13.6719 14.5312 13.625H9.46875C8.95312 13.6719 8.67188 13.9531 8.625 14.4688V15.875H15.375Z" fill="#27292E"/>
</svg>
