<svg width="20" height="20" viewBox="0 0 20 20" fill="none" xmlns="http://www.w3.org/2000/svg">
<path d="M2.125 3H2.5625C3.18229 3.01823 3.70182 3.22786 4.12109 3.62891C4.52214 4.04818 4.73177 4.56771 4.75 5.1875V13.0625C4.76823 13.3359 4.91406 13.4818 5.1875 13.5H17.875C18.1302 13.5 18.3398 13.582 18.5039 13.7461C18.668 13.9102 18.75 14.1198 18.75 14.375C18.75 14.6302 18.668 14.8398 18.5039 15.0039C18.3398 15.168 18.1302 15.25 17.875 15.25H16.043C16.0977 15.3958 16.125 15.5417 16.125 15.6875C16.1068 16.0521 15.9792 16.362 15.7422 16.6172C15.487 16.8542 15.1771 16.9818 14.8125 17C14.4479 16.9818 14.138 16.8542 13.8828 16.6172C13.6458 16.362 13.5182 16.0521 13.5 15.6875C13.5 15.5417 13.5273 15.3958 13.582 15.25H8.16797C8.22266 15.3958 8.25 15.5417 8.25 15.6875C8.23177 16.0521 8.10417 16.362 7.86719 16.6172C7.61198 16.8542 7.30208 16.9818 6.9375 17C6.57292 16.9818 6.26302 16.8542 6.00781 16.6172C5.77083 16.362 5.64323 16.0521 5.625 15.6875C5.625 15.5417 5.65234 15.3958 5.70703 15.25H5.1875C4.56771 15.2318 4.04818 15.0221 3.62891 14.6211C3.22786 14.2018 3.01823 13.6823 3 13.0625V5.1875C2.98177 4.91406 2.83594 4.76823 2.5625 4.75H2.125C1.86979 4.75 1.66016 4.66797 1.49609 4.50391C1.33203 4.33984 1.25 4.13021 1.25 3.875C1.25 3.61979 1.33203 3.41016 1.49609 3.24609C1.66016 3.08203 1.86979 3 2.125 3ZM7.375 3.875H10.875C11.1302 3.875 11.3398 3.95703 11.5039 4.12109C11.668 4.28516 11.75 4.49479 11.75 4.75V10.875C11.75 11.1302 11.668 11.3398 11.5039 11.5039C11.3398 11.668 11.1302 11.75 10.875 11.75H7.375C7.11979 11.75 6.91016 11.668 6.74609 11.5039C6.58203 11.3398 6.5 11.1302 6.5 10.875V4.75C6.5 4.49479 6.58203 4.28516 6.74609 4.12109C6.91016 3.95703 7.11979 3.875 7.375 3.875ZM12.625 4.75C12.625 4.49479 12.707 4.28516 12.8711 4.12109C13.0352 3.95703 13.2448 3.875 13.5 3.875H15.25C15.5052 3.875 15.7148 3.95703 15.8789 4.12109C16.043 4.28516 16.125 4.49479 16.125 4.75V6.5C16.125 6.75521 16.043 6.96484 15.8789 7.12891C15.7148 7.29297 15.5052 7.375 15.25 7.375H13.5C13.2448 7.375 13.0352 7.29297 12.8711 7.12891C12.707 6.96484 12.625 6.75521 12.625 6.5V4.75ZM13.5 8.25H17C17.2552 8.25 17.4648 8.33203 17.6289 8.49609C17.793 8.66016 17.875 8.86979 17.875 9.125V10.875C17.875 11.1302 17.793 11.3398 17.6289 11.5039C17.4648 11.668 17.2552 11.75 17 11.75H13.5C13.2448 11.75 13.0352 11.668 12.8711 11.5039C12.707 11.3398 12.625 11.1302 12.625 10.875V9.125C12.625 8.86979 12.707 8.66016 12.8711 8.49609C13.0352 8.33203 13.2448 8.25 13.5 8.25Z" fill="#27292E"/>
</svg>
