<svg width="24" height="24" viewBox="0 0 24 24" fill="none" xmlns="http://www.w3.org/2000/svg">
<path d="M17.7375 7.5375L13.275 12L17.7375 16.4625C18.0875 16.8875 18.0875 17.3125 17.7375 17.7375C17.3125 18.0875 16.8875 18.0875 16.4625 17.7375L12 13.275L7.5375 17.7375C7.1125 18.0875 6.6875 18.0875 6.2625 17.7375C5.9125 17.3125 5.9125 16.8875 6.2625 16.4625L10.725 12L6.2625 7.5375C5.9125 7.1125 5.9125 6.6875 6.2625 6.2625C6.6875 5.9125 7.1125 5.9125 7.5375 6.2625L12 10.725L16.4625 6.2625C16.8875 5.9125 17.3125 5.9125 17.7375 6.2625C18.0875 6.6875 18.0875 7.1125 17.7375 7.5375Z" fill="#27292E"/>
</svg>
