<svg width="20" height="20" viewBox="0 0 20 20" fill="none" xmlns="http://www.w3.org/2000/svg">
<path d="M17 9.5625C16.9818 10.6198 16.6628 11.5768 16.043 12.4336C15.4232 13.2904 14.5846 13.974 13.5273 14.4844C12.4883 14.9766 11.3125 15.2318 10 15.25C8.97917 15.25 8.03125 15.0859 7.15625 14.7578C6.8099 15.013 6.31771 15.2956 5.67969 15.6055C4.98698 15.9154 4.23958 16.0885 3.4375 16.125C3.25521 16.125 3.11849 16.0339 3.02734 15.8516C2.97266 15.6693 3.00911 15.5143 3.13672 15.3867V15.3594C3.13672 15.3594 3.14583 15.3503 3.16406 15.332C3.20052 15.2956 3.24609 15.2409 3.30078 15.168C3.42839 15.0404 3.5651 14.849 3.71094 14.5938C4.02083 14.1198 4.22135 13.5456 4.3125 12.8711C3.45573 11.9232 3.01823 10.8203 3 9.5625C3.01823 8.50521 3.33724 7.54818 3.95703 6.69141C4.57682 5.83464 5.41536 5.15104 6.47266 4.64062C7.51172 4.14844 8.6875 3.89323 10 3.875C11.3125 3.89323 12.4883 4.14844 13.5273 4.64062C14.5846 5.15104 15.4232 5.83464 16.043 6.69141C16.6628 7.54818 16.9818 8.50521 17 9.5625Z" fill="#939599"/>
</svg>
