<svg width="24" height="24" viewBox="0 0 24 24" fill="none" xmlns="http://www.w3.org/2000/svg">
<path d="M20 11.5C19.9792 12.7083 19.6146 13.8021 18.9062 14.7812C18.1979 15.7604 17.2396 16.5417 16.0312 17.125C14.8438 17.6875 13.5 17.9792 12 18C10.8333 18 9.75 17.8125 8.75 17.4375C8.35417 17.7292 7.79167 18.0521 7.0625 18.4062C6.27083 18.7604 5.41667 18.9583 4.5 19C4.29167 19 4.13542 18.8958 4.03125 18.6875C3.96875 18.4792 4.01042 18.3021 4.15625 18.1562V18.125C4.15625 18.125 4.16667 18.1146 4.1875 18.0938C4.22917 18.0521 4.28125 17.9896 4.34375 17.9062C4.48958 17.7604 4.64583 17.5417 4.8125 17.25C5.16667 16.7083 5.39583 16.0521 5.5 15.2812C4.52083 14.1979 4.02083 12.9375 4 11.5C4.02083 10.2917 4.38542 9.19792 5.09375 8.21875C5.80208 7.23958 6.76042 6.45833 7.96875 5.875C9.15625 5.3125 10.5 5.02083 12 5C13.5 5.02083 14.8438 5.3125 16.0312 5.875C17.2396 6.45833 18.1979 7.23958 18.9062 8.21875C19.6146 9.19792 19.9792 10.2917 20 11.5Z" fill="currentColor"/>
</svg>
