<svg width="24" height="24" viewBox="0 0 24 24" fill="none" xmlns="http://www.w3.org/2000/svg">
<path d="M11.125 5H17.25C17.7422 5.01823 18.1523 5.19141 18.4805 5.51953C18.8086 5.84766 18.9818 6.25781 19 6.75V12.875C18.9818 13.3672 18.8086 13.7773 18.4805 14.1055C18.1523 14.4336 17.7422 14.6068 17.25 14.625H11.125C10.6328 14.6068 10.2227 14.4336 9.89453 14.1055C9.56641 13.7773 9.39323 13.3672 9.375 12.875V6.75C9.39323 6.25781 9.56641 5.84766 9.89453 5.51953C10.2227 5.19141 10.6328 5.01823 11.125 5ZM6.75 9.375H8.5V10.6875H6.75C6.47656 10.7057 6.33073 10.8516 6.3125 11.125V17.25C6.33073 17.5234 6.47656 17.6693 6.75 17.6875H12.875C13.1484 17.6693 13.2943 17.5234 13.3125 17.25V15.5H14.625V17.25C14.6068 17.7422 14.4336 18.1523 14.1055 18.4805C13.7773 18.8086 13.3672 18.9818 12.875 19H6.75C6.25781 18.9818 5.84766 18.8086 5.51953 18.4805C5.19141 18.1523 5.01823 17.7422 5 17.25V11.125C5.01823 10.6328 5.19141 10.2227 5.51953 9.89453C5.84766 9.56641 6.25781 9.39323 6.75 9.375Z" fill="#5C73E6"/>
</svg>
