<svg width="24" height="24" viewBox="0 0 24 24" fill="none" xmlns="http://www.w3.org/2000/svg">
<path d="M10.5312 5.5C10.4479 5.5 10.3854 5.54167 10.3438 5.625L9.75 6.5H14.2812L13.6875 5.625C13.625 5.54167 13.5521 5.5 13.4688 5.5H10.5312ZM16.0625 6.5H16.5H18H18.25C18.7083 6.54167 18.9583 6.79167 19 7.25C18.9583 7.70833 18.7083 7.95833 18.25 8H17.875L17.125 18.1562C17.0833 18.6771 16.875 19.1146 16.5 19.4688C16.125 19.8021 15.6771 19.9792 15.1562 20H8.84375C8.32292 19.9792 7.875 19.8021 7.5 19.4688C7.125 19.1146 6.91667 18.6771 6.875 18.1562L6.125 8H5.75C5.29167 7.95833 5.04167 7.70833 5 7.25C5.04167 6.79167 5.29167 6.54167 5.75 6.5H6H7.5H7.9375L9.09375 4.78125C9.44792 4.28125 9.92708 4.02083 10.5312 4H13.4688C14.0729 4.02083 14.5625 4.28125 14.9375 4.78125L16.0625 6.5ZM16.375 8H7.625L8.34375 18.0312C8.40625 18.3229 8.57292 18.4792 8.84375 18.5H15.1562C15.4271 18.4792 15.5938 18.3229 15.6562 18.0312L16.375 8Z" fill="currentColor"/>
</svg>
