<svg width="32" height="32" viewBox="0 0 32 32" fill="none" xmlns="http://www.w3.org/2000/svg">
<path fill-rule="evenodd" clip-rule="evenodd" d="M3.73995 6.66602C2.66995 8.52202 2.66995 11.014 2.66995 15.999C2.66995 20.983 2.66995 23.476 3.74195 25.332C4.44406 26.5481 5.45389 27.5579 6.66995 28.26C8.52595 29.332 11.0189 29.332 16.0029 29.332C20.9879 29.332 23.4799 29.332 25.3369 28.26C26.553 27.5579 27.5629 26.5481 28.2649 25.332C29.3369 23.476 29.3369 20.983 29.3369 15.999C29.3369 11.014 29.3369 8.52202 28.2649 6.66602C27.563 5.4496 26.5531 4.43941 25.3369 3.73702C23.4799 2.66602 20.9869 2.66602 16.0029 2.66602C11.0189 2.66602 8.52595 2.66602 6.66995 3.73702C5.45303 4.43913 4.44248 5.44934 3.73995 6.66602ZM16.0029 2.66602L15.5209 9.58702C15.4139 11.1244 14.7548 12.5714 13.6651 13.6611C12.5753 14.7509 11.1284 15.41 9.59095 15.517L2.66895 16L9.59095 16.481C11.1284 16.588 12.5753 17.2471 13.6651 18.3369C14.7548 19.4266 15.4139 20.8736 15.5209 22.411L16.0019 29.333L16.4839 22.411C16.5909 20.8736 17.2501 19.4266 18.3398 18.3369C19.4296 17.2471 20.8765 16.588 22.4139 16.481L29.3359 16L22.4139 15.518C20.8765 15.411 19.4296 14.7519 18.3398 13.6621C17.2501 12.5724 16.5909 11.1254 16.4839 9.58802L16.0019 2.66702L16.0029 2.66602Z" fill="currentColor"/>
</svg>
