<svg width="24" height="24" viewBox="0 0 24 24" fill="none" xmlns="http://www.w3.org/2000/svg">
<path d="M7.125 4.84473L6.625 9.28223V9.75098C6.625 10.1051 6.75 10.3968 7 10.626C7.22917 10.876 7.52083 11.001 7.875 11.001H9.875C10.2292 11.001 10.5208 10.876 10.75 10.626C11 10.3968 11.125 10.1051 11.125 9.75098V9.28223L10.625 4.84473C10.625 4.38639 10.8438 4.10514 11.2812 4.00098C11.7396 4.00098 12.0208 4.21973 12.125 4.65723L12.625 9.15723V9.75098C12.6042 10.5218 12.3333 11.1676 11.8125 11.6885C11.2917 12.2093 10.6458 12.4801 9.875 12.501H9.625V19.251C9.58333 19.7093 9.33333 19.9593 8.875 20.001C8.41667 19.9593 8.16667 19.7093 8.125 19.251V12.501H7.875C7.10417 12.4801 6.45833 12.2093 5.9375 11.6885C5.41667 11.1676 5.14583 10.5218 5.125 9.75098V9.15723L5.625 4.65723C5.72917 4.21973 6.01042 4.00098 6.46875 4.00098C6.90625 4.10514 7.125 4.38639 7.125 4.84473ZM9.625 4.75098V9.25098C9.58333 9.70931 9.33333 9.95931 8.875 10.001C8.41667 9.95931 8.16667 9.70931 8.125 9.25098V4.75098C8.16667 4.29264 8.41667 4.04264 8.875 4.00098C9.33333 4.04264 9.58333 4.29264 9.625 4.75098ZM15.375 9.50098V13.001C15.3958 13.3135 15.5625 13.4801 15.875 13.501H17.375V5.71973C17.1458 5.82389 16.9062 5.98014 16.6562 6.18848C16.3438 6.45931 16.0521 6.85514 15.7812 7.37598C15.5312 7.89681 15.3958 8.60514 15.375 9.50098ZM17.375 15.001H15.875C15.3125 14.9801 14.8438 14.7822 14.4688 14.4072C14.0938 14.0322 13.8958 13.5635 13.875 13.001V9.50098C13.9167 8.02181 14.2292 6.87598 14.8125 6.06348C15.375 5.27181 15.9792 4.73014 16.625 4.43848C17.25 4.12598 17.6667 3.98014 17.875 4.00098C18.1667 4.00098 18.4062 4.09473 18.5938 4.28223C18.7812 4.46973 18.875 4.70931 18.875 5.00098V19.251C18.8333 19.7093 18.5833 19.9593 18.125 20.001C17.6667 19.9593 17.4167 19.7093 17.375 19.251V15.001Z" fill="#27292E"/>
</svg>
