<svg width="24" height="24" viewBox="0 0 24 24" fill="none" xmlns="http://www.w3.org/2000/svg">
<path d="M5.13728 15.2634C5.28311 14.8051 5.52269 14.4196 5.85603 14.1071L15.356 4.5759C15.7727 4.2009 16.2414 4.0134 16.7623 4.0134C17.3039 4.0134 17.7727 4.2009 18.1685 4.5759L19.4185 5.8259C19.5019 5.93006 19.5852 6.03423 19.6685 6.1384C19.9185 6.53423 20.0227 6.96131 19.981 7.41965C19.9394 7.87798 19.7519 8.28423 19.4185 8.6384L9.91853 18.1384C9.87686 18.1801 9.83519 18.2217 9.79353 18.2634C9.48103 18.5342 9.12686 18.7321 8.73103 18.8571L6.29353 19.5759L4.98103 19.9509C4.68936 20.0342 4.43936 19.9717 4.23103 19.7634C4.02269 19.5551 3.96019 19.3051 4.04353 19.0134L4.41853 17.7009L5.13728 15.2634ZM6.57478 15.6696L6.38728 16.4196L5.85603 18.1384L8.32478 17.4196C8.51228 17.3571 8.68936 17.253 8.85603 17.1071L15.981 9.9509L14.0435 8.0134L6.91853 15.1384C6.89769 15.1592 6.88728 15.1696 6.88728 15.1696C6.86644 15.1905 6.85603 15.2009 6.85603 15.2009C6.73103 15.3467 6.63728 15.503 6.57478 15.6696Z" fill="currentColor"/>
</svg>
