<svg width="20" height="20" viewBox="0 0 20 20" fill="none" xmlns="http://www.w3.org/2000/svg">
<path d="M9.98633 3.875C11.0983 3.89323 12.0918 4.11198 12.9668 4.53125C13.8418 4.95052 14.6074 5.47005 15.2637 6.08984C15.9017 6.69141 16.4303 7.3112 16.8496 7.94922C17.2689 8.58724 17.5879 9.16146 17.8066 9.67188C17.8978 9.89062 17.8978 10.1094 17.8066 10.3281C17.5879 10.8385 17.2689 11.4128 16.8496 12.0508C16.4303 12.6888 15.9017 13.3086 15.2637 13.9102C14.6074 14.5299 13.8418 15.0495 12.9668 15.4688C12.0918 15.888 11.0983 16.1068 9.98633 16.125C8.87435 16.1068 7.88086 15.888 7.00586 15.4688C6.13086 15.0495 5.36523 14.5299 4.70898 13.9102C4.07096 13.3086 3.54232 12.6888 3.12305 12.0508C2.70378 11.4128 2.39388 10.8385 2.19336 10.3281C2.10221 10.1094 2.10221 9.89062 2.19336 9.67188C2.39388 9.16146 2.70378 8.58724 3.12305 7.94922C3.54232 7.3112 4.07096 6.69141 4.70898 6.08984C5.36523 5.47005 6.13086 4.95052 7.00586 4.53125C7.88086 4.11198 8.87435 3.89323 9.98633 3.875ZM6.04883 10C6.04883 10.7109 6.22201 11.3672 6.56836 11.9688C6.91471 12.5703 7.39779 13.0534 8.01758 13.418C8.63737 13.7643 9.29362 13.9375 9.98633 13.9375C10.679 13.9375 11.3353 13.7643 11.9551 13.418C12.5749 13.0534 13.0579 12.5703 13.4043 11.9688C13.7507 11.3672 13.9238 10.7109 13.9238 10C13.9238 9.28906 13.7507 8.63281 13.4043 8.03125C13.0579 7.42969 12.5749 6.94661 11.9551 6.58203C11.3353 6.23568 10.679 6.0625 9.98633 6.0625C9.29362 6.0625 8.63737 6.23568 8.01758 6.58203C7.39779 6.94661 6.91471 7.42969 6.56836 8.03125C6.22201 8.63281 6.04883 9.28906 6.04883 10ZM9.98633 8.25C9.98633 8.04948 9.95898 7.86719 9.9043 7.70312C9.86784 7.52083 9.93164 7.41146 10.0957 7.375C10.6608 7.41146 11.1712 7.60286 11.627 7.94922C12.0645 8.29557 12.3652 8.7513 12.5293 9.31641C12.6934 10.0456 12.6022 10.7109 12.2559 11.3125C11.9095 11.9141 11.3809 12.3242 10.6699 12.543C9.94076 12.707 9.27539 12.6159 8.67383 12.2695C8.07227 11.9232 7.66211 11.3945 7.44336 10.6836C7.38867 10.4831 7.36133 10.2917 7.36133 10.1094C7.39779 9.94531 7.50716 9.88151 7.68945 9.91797C7.85352 9.97266 8.03581 10 8.23633 10C8.72852 9.98177 9.13867 9.80859 9.4668 9.48047C9.79492 9.15234 9.9681 8.74219 9.98633 8.25Z" fill="#939599"/>
</svg>
