<svg width="24" height="24" viewBox="0 0 24 24" fill="none" xmlns="http://www.w3.org/2000/svg">
<path d="M5.5 13.2135C4.52083 12.2968 4.02083 11.1614 4 9.80721V9.61971C4.02083 8.49471 4.375 7.53638 5.0625 6.74471C5.75 5.93221 6.63542 5.42179 7.71875 5.21346C8.44792 5.10929 9.15625 5.16138 9.84375 5.36971C10.5104 5.57804 11.1042 5.94263 11.625 6.46346L12 6.83846L12.375 6.46346C12.8958 5.94263 13.4896 5.57804 14.1562 5.36971C14.8438 5.16138 15.5521 5.10929 16.2812 5.21346C17.3646 5.42179 18.25 5.93221 18.9375 6.74471C19.625 7.53638 19.9792 8.49471 20 9.61971V9.80721C19.9792 11.1614 19.4792 12.2968 18.5 13.2135L12.875 18.4947C12.625 18.7239 12.3333 18.8385 12 18.8385C11.6667 18.8385 11.375 18.7239 11.125 18.4947L5.5 13.2135Z" fill="currentColor"/>
</svg>
