<svg width="24" height="24" viewBox="0 0 24 24" fill="" xmlns="http://www.w3.org/2000/svg">
<path d="M11.3202 5.68638C11.704 6.04211 12.2971 6.04184 12.6805 5.68575C13.4299 4.98978 14.4688 4.55882 15.6818 4.55882C18.0119 4.55882 20 6.5765 20 9.17154C20 10.1494 19.6341 11.2101 18.993 12.3034C18.3554 13.3909 17.4821 14.4485 16.5583 15.4014C14.7101 17.3079 12.7534 18.7008 12.3631 18.9713L12.3622 18.9719L12 19.2235L11.6378 18.9719L11.6369 18.9713C11.2466 18.7008 9.28994 17.3079 7.44175 15.4014C6.51793 14.4485 5.64455 13.3909 5.00695 12.3034C4.36589 11.2101 4 10.1494 4 9.17154C4 6.57794 5.98826 4.55882 8.31818 4.55882C9.5304 4.55882 10.5699 4.99093 11.3202 5.68638Z" stroke="" stroke-width="2" stroke-linejoin="round" fill=""/>
</svg>
