<svg width="32" height="32" viewBox="0 0 32 32" fill="none" xmlns="http://www.w3.org/2000/svg">
<path fill-rule="evenodd" clip-rule="evenodd" d="M2.66992 15.999C2.66992 11.014 2.66992 8.52202 3.73992 6.66602C4.44245 5.44934 5.45301 4.43913 6.66992 3.73702C8.52592 2.66602 11.0189 2.66602 16.0029 2.66602C20.9869 2.66602 23.4799 2.66602 25.3369 3.73702C26.5531 4.43941 27.5629 5.4496 28.2649 6.66602C29.3369 8.52202 29.3369 11.014 29.3369 15.999C29.3369 20.983 29.3369 23.476 28.2649 25.332C27.5628 26.5481 26.553 27.5579 25.3369 28.26C23.4799 29.332 20.9879 29.332 16.0029 29.332C11.0189 29.332 8.52592 29.332 6.66992 28.26C5.45387 27.5579 4.44404 26.5481 3.74192 25.332C2.66992 23.476 2.66992 20.983 2.66992 15.999ZM19.4305 19.3318L22.0265 16.7358C22.6755 16.0404 23 15.2446 23 14.3483C23 13.4675 22.6755 12.6795 22.0265 11.9841C21.4238 11.4124 20.7208 11.0879 19.9172 11.0106C19.1291 10.9488 18.3951 11.1574 17.7152 11.6364L17.6689 11.6596C17.4989 11.7832 17.3985 11.9455 17.3675 12.1464C17.3366 12.3318 17.383 12.5172 17.5066 12.7026C17.6302 12.8572 17.7848 12.9499 17.9702 12.9808C18.1711 13.0272 18.3565 12.9885 18.5265 12.8649L18.5728 12.8417C18.9592 12.579 19.3687 12.4631 19.8013 12.494C20.2494 12.5249 20.6435 12.7026 20.9834 13.0272C21.3389 13.4135 21.5166 13.8539 21.5166 14.3483C21.5166 14.8583 21.3389 15.2987 20.9834 15.6695L18.3642 18.2887C17.9779 18.6441 17.5375 18.8219 17.043 18.8219C16.5486 18.8219 16.1082 18.6441 15.7219 18.2887C15.3974 17.9488 15.2196 17.5547 15.1887 17.1066C15.1578 16.674 15.2737 16.2645 15.5364 15.8781L15.5596 15.8318C15.6678 15.6618 15.7064 15.4841 15.6755 15.2987C15.6446 15.0978 15.5442 14.9355 15.3742 14.8119C15.2042 14.6883 15.0265 14.6419 14.8411 14.6728C14.6402 14.7038 14.4779 14.8042 14.3543 14.9742L14.3311 15.0205C13.8521 15.7004 13.6435 16.4422 13.7053 17.2457C13.7671 18.0338 14.0916 18.7291 14.6788 19.3318C15.3742 19.9808 16.1623 20.3053 17.043 20.3053C17.9393 20.3053 18.7351 19.9808 19.4305 19.3318ZM12.5927 13.5834L9.97351 16.1795C9.3245 16.8748 9 17.6706 9 18.5669C9 19.4477 9.3245 20.2358 9.97351 20.9311C10.5762 21.5029 11.2792 21.8274 12.0828 21.9046C12.8709 21.9664 13.6126 21.7578 14.3079 21.2788L14.3311 21.2556C14.5011 21.132 14.6015 20.9698 14.6325 20.7689C14.6634 20.5834 14.6247 20.398 14.5166 20.2126C14.3775 20.0581 14.2152 19.9653 14.0298 19.9344C13.8289 19.8881 13.6435 19.9267 13.4735 20.0503L13.4272 20.0735C13.0408 20.3362 12.6313 20.4521 12.1987 20.4212C11.7506 20.3903 11.3565 20.2126 11.0166 19.8881C10.6611 19.5018 10.4834 19.0614 10.4834 18.5669C10.4834 18.057 10.6689 17.6166 11.0397 17.2457L13.6358 14.6265C14.0221 14.2711 14.4625 14.0934 14.957 14.0934C15.4514 14.0934 15.8918 14.2711 16.2781 14.6265C16.6026 14.9664 16.7804 15.3605 16.8113 15.8086C16.8422 16.2413 16.7263 16.6508 16.4636 17.0371L16.4404 17.0834C16.3322 17.2534 16.2936 17.4389 16.3245 17.6397C16.3554 17.8252 16.4558 17.9797 16.6258 18.1033C16.7958 18.2269 16.9735 18.2733 17.1589 18.2424C17.3598 18.2115 17.5221 18.111 17.6457 17.9411L17.6689 17.8947C18.1479 17.2148 18.3565 16.4731 18.2947 15.6695C18.2329 14.8815 17.9084 14.1861 17.3212 13.5834C16.6258 12.9344 15.8377 12.6099 14.957 12.6099C14.0607 12.6099 13.2726 12.9344 12.5927 13.5834Z" fill="#27292E"/>
</svg>
