<svg width="24" height="24" viewBox="0 0 24 24" fill="none" xmlns="http://www.w3.org/2000/svg">
<g clip-path="url(#clip0_329_1391)">
<path d="M16.5004 3.00023C18.4895 2.92184 20.7543 2.70667 23 1.60251C23 8.07794 22.3635 14.2635 18.2738 18.3551L18.2737 18.3551C16.5306 20.0992 14.2416 20.971 11.948 20.971C9.94028 20.971 7.93653 20.3029 6.30075 18.9698C5.90702 18.649 5.33613 18.6746 4.97278 19.0272C5.32373 18.6625 5.34718 18.0914 5.0244 17.6988C3.71391 16.1052 3.00002 14.1248 3.00002 12.029C3.00002 9.63716 3.9297 7.39264 5.62094 5.7023L5.62125 5.70199C8.15252 3.16983 11.2212 3.09058 14.6377 3.04191C15.2431 3.03392 15.8666 3.0248 16.4998 3.00025L16.5004 3.00023Z" fill="white" stroke="#27292E" stroke-width="2" stroke-linejoin="round"/>
<path d="M12.501 17.317L12.9236 16.7087L12.9238 16.7085L13.0716 16.4957L12.5021 16.1001L12.5016 16.0997L12.5007 16.0991C12.271 15.9399 11.0987 15.1053 9.99466 13.9664C9.44292 13.3973 8.93157 12.7758 8.56298 12.1472C8.19093 11.5127 8.00104 10.9334 8.00104 10.43C8.00104 9.03973 9.06148 7.99997 10.251 7.99997C10.8969 7.99997 11.4369 8.22908 11.8212 8.58535C12.205 8.94109 12.7981 8.94081 13.1815 8.58472C13.565 8.22857 14.1044 7.99997 14.751 7.99997C15.9408 7.99997 17.001 9.03892 17.001 10.43C17.001 10.9334 16.8111 11.5127 16.4391 12.1472C16.0705 12.7758 15.5592 13.3973 15.0074 13.9664C13.9034 15.1053 12.731 15.9399 12.5014 16.0991L12.5005 16.0997L12.5 16.1L11.9305 16.4957L12.0783 16.7085L12.0785 16.7087L12.501 17.317ZM12.501 17.317L13.071 16.921L12.501 7.85197C11.926 7.31897 11.141 6.99997 10.251 6.99997C8.45904 6.99997 7.00104 8.53897 7.00104 10.43C7.00104 13.412 11.426 16.571 11.931 16.921L12.501 17.317Z" stroke="#27292E" stroke-width="2" stroke-linejoin="round"/>
</g>
<defs>
<clipPath id="clip0_329_1391">
<rect width="24" height="24" fill="white"/>
</clipPath>
</defs>
</svg>
