<svg width="20" height="20" viewBox="0 0 20 20" fill="none" xmlns="http://www.w3.org/2000/svg">
<path d="M4.3125 11.0617C3.45573 10.2596 3.01823 9.26611 3 8.08122V7.91716C3.01823 6.93278 3.32812 6.09424 3.92969 5.40153C4.53125 4.69059 5.30599 4.24398 6.25391 4.06169C6.89193 3.97054 7.51172 4.01611 8.11328 4.1984C8.69661 4.3807 9.21615 4.69971 9.67188 5.15544L10 5.48356L10.3281 5.15544C10.7839 4.69971 11.3034 4.3807 11.8867 4.1984C12.4883 4.01611 13.1081 3.97054 13.7461 4.06169C14.694 4.24398 15.4688 4.69059 16.0703 5.40153C16.6719 6.09424 16.9818 6.93278 17 7.91716V8.08122C16.9818 9.26611 16.5443 10.2596 15.6875 11.0617L10.7656 15.6828C10.5469 15.8833 10.2917 15.9836 10 15.9836C9.70833 15.9836 9.45312 15.8833 9.23438 15.6828L4.3125 11.0617Z" fill="#939599"/>
</svg>
