<svg width="20" height="20" viewBox="0 0 20 20" fill="none" xmlns="http://www.w3.org/2000/svg">
<path d="M8.14062 3.95577C7.61198 4.11983 7.22005 4.42972 6.96484 4.88545C6.70964 5.34118 6.65495 5.84248 6.80078 6.38936L6.9375 6.93623C7.02865 7.2279 7.13802 7.51957 7.26562 7.81123H4.75C4.25781 7.82946 3.84766 8.00264 3.51953 8.33077C3.19141 8.65889 3.01823 9.06905 3 9.56123C3.01823 10.0534 3.19141 10.4636 3.51953 10.7917C3.46484 10.9558 3.4375 11.1289 3.4375 11.3112C3.45573 11.9128 3.68359 12.3776 4.12109 12.7058C4.10286 12.8151 4.09375 12.9336 4.09375 13.0612C4.11198 13.6446 4.33073 14.1003 4.75 14.4284C4.76823 14.9206 4.94141 15.3217 5.26953 15.6315C5.59766 15.9597 6.00781 16.1237 6.5 16.1237H9.15234C9.77214 16.1237 10.3464 15.9506 10.875 15.6042L12.543 14.4831C12.8711 14.2279 12.9349 13.9271 12.7344 13.5808C12.4792 13.2709 12.1784 13.2071 11.832 13.3894L10.1367 14.5105C9.84505 14.711 9.51693 14.8112 9.15234 14.8112H6.5C6.22656 14.793 6.08073 14.6472 6.0625 14.3737C6.0625 14.3373 6.07161 14.3008 6.08984 14.2644C6.16276 13.8998 6.02604 13.6355 5.67969 13.4714C5.51562 13.3985 5.42448 13.2618 5.40625 13.0612C5.40625 12.9519 5.43359 12.8607 5.48828 12.7878C5.63411 12.6055 5.67057 12.3959 5.59766 12.1589C5.50651 11.9401 5.34245 11.8034 5.10547 11.7487C4.88672 11.694 4.76823 11.5482 4.75 11.3112C4.75 11.2019 4.78646 11.1016 4.85938 11.0105C5.00521 10.8464 5.05078 10.655 4.99609 10.4362C4.94141 10.2175 4.80469 10.0625 4.58594 9.97139C4.42188 9.89847 4.33073 9.76176 4.3125 9.56123C4.33073 9.2878 4.47656 9.14196 4.75 9.12373H8.41406C8.66927 9.12373 8.86068 9.00525 8.98828 8.76827C9.09766 8.53129 9.07943 8.30342 8.93359 8.08467C8.60547 7.62894 8.36849 7.12764 8.22266 6.58077L8.05859 6.03389C7.98568 5.63285 8.13151 5.35941 8.49609 5.21358C8.89714 5.14066 9.17057 5.2865 9.31641 5.65108L9.48047 6.19795C9.64453 6.76306 9.91797 7.26436 10.3008 7.70186L11.6953 9.23311C11.987 9.50655 12.2969 9.52478 12.625 9.2878C12.8984 8.9779 12.9167 8.66801 12.6797 8.35811L11.2578 6.79952C11.0208 6.52608 10.8477 6.20707 10.7383 5.84248L10.5742 5.29561C10.4102 4.76696 10.1003 4.37504 9.64453 4.11983C9.1888 3.86462 8.6875 3.80993 8.14062 3.95577ZM16.125 8.24873H14.375C14.1198 8.24873 13.9102 8.33077 13.7461 8.49483C13.582 8.65889 13.5 8.86853 13.5 9.12373V15.2487C13.5 15.5039 13.582 15.7136 13.7461 15.8776C13.9102 16.0417 14.1198 16.1237 14.375 16.1237H16.125C16.3802 16.1237 16.5898 16.0417 16.7539 15.8776C16.918 15.7136 17 15.5039 17 15.2487V9.12373C17 8.86853 16.918 8.65889 16.7539 8.49483C16.5898 8.33077 16.3802 8.24873 16.125 8.24873Z" fill="currentColor"/>
</svg>
