<svg width="12" height="12" viewBox="0 0 12 12" fill="none" xmlns="http://www.w3.org/2000/svg">
<path d="M7.5 0H11.25C11.4688 0 11.6484 0.0703125 11.7891 0.210938C11.9297 0.351562 12 0.53125 12 0.75V4.5C12 4.71875 11.9297 4.89844 11.7891 5.03906C11.6484 5.17969 11.4688 5.25 11.25 5.25C11.0312 5.25 10.8516 5.17969 10.7109 5.03906C10.5703 4.89844 10.5 4.71875 10.5 4.5V2.55469L5.78906 7.28906C5.63281 7.42969 5.45312 7.5 5.25 7.5C5.04688 7.5 4.86719 7.42969 4.71094 7.28906C4.57031 7.13281 4.5 6.95312 4.5 6.75C4.5 6.54688 4.57031 6.36719 4.71094 6.21094L9.44531 1.5H7.5C7.28125 1.5 7.10156 1.42969 6.96094 1.28906C6.82031 1.14844 6.75 0.96875 6.75 0.75C6.75 0.53125 6.82031 0.351562 6.96094 0.210938C7.10156 0.0703125 7.28125 0 7.5 0ZM1.875 0.75H4.5C4.71875 0.75 4.89844 0.820312 5.03906 0.960938C5.17969 1.10156 5.25 1.28125 5.25 1.5C5.25 1.71875 5.17969 1.89844 5.03906 2.03906C4.89844 2.17969 4.71875 2.25 4.5 2.25H1.875C1.64062 2.26562 1.51562 2.39062 1.5 2.625V10.125C1.51562 10.3594 1.64062 10.4844 1.875 10.5H9.375C9.60938 10.4844 9.73438 10.3594 9.75 10.125V7.5C9.75 7.28125 9.82031 7.10156 9.96094 6.96094C10.1016 6.82031 10.2812 6.75 10.5 6.75C10.7188 6.75 10.8984 6.82031 11.0391 6.96094C11.1797 7.10156 11.25 7.28125 11.25 7.5V10.125C11.2344 10.6562 11.0547 11.1016 10.7109 11.4609C10.3516 11.8047 9.90625 11.9844 9.375 12H1.875C1.34375 11.9844 0.898438 11.8047 0.539062 11.4609C0.195312 11.1016 0.015625 10.6562 0 10.125V2.625C0.015625 2.09375 0.195312 1.64844 0.539062 1.28906C0.898438 0.945312 1.34375 0.765625 1.875 0.75Z" fill="#5C73E6"/>
</svg>
