<svg width="24" height="24" viewBox="0 0 24 24" fill="none" xmlns="http://www.w3.org/2000/svg">
<path d="M16.5 10.0156C16.4583 8.74479 16.0208 7.68229 15.1875 6.82812C14.3333 5.99479 13.2708 5.55729 12 5.51562C10.7292 5.55729 9.66667 5.99479 8.8125 6.82812C7.97917 7.68229 7.54167 8.74479 7.5 10.0156C7.5 10.4115 7.65625 11.0052 7.96875 11.7969C8.32292 12.5885 8.77083 13.4219 9.3125 14.2969C9.77083 15.026 10.2292 15.724 10.6875 16.3906C11.1667 17.0573 11.6042 17.6406 12 18.1406C12.3958 17.6406 12.8333 17.0573 13.3125 16.3906C13.7917 15.724 14.25 15.026 14.6875 14.2969C15.2292 13.4219 15.6771 12.5885 16.0312 11.7969C16.3438 11.0052 16.5 10.4115 16.5 10.0156ZM18 10.0156C17.9583 10.9531 17.625 12.0365 17 13.2656C16.3542 14.4948 15.625 15.6823 14.8125 16.8281C14 17.9948 13.3125 18.9219 12.75 19.6094C12.5417 19.8594 12.2917 19.9844 12 19.9844C11.7083 19.9844 11.4583 19.8594 11.25 19.6094C10.6875 18.9219 10 17.9948 9.1875 16.8281C8.375 15.6823 7.64583 14.4948 7 13.2656C6.375 12.0365 6.04167 10.9531 6 10.0156C6.04167 8.30729 6.625 6.89062 7.75 5.76562C8.875 4.64062 10.2917 4.05729 12 4.01562C13.7083 4.05729 15.125 4.64062 16.25 5.76562C17.375 6.89062 17.9583 8.30729 18 10.0156ZM13 10.0156C13 9.72396 12.9062 9.48438 12.7188 9.29688C12.5312 9.10938 12.2917 9.01562 12 9.01562C11.7083 9.01562 11.4688 9.10938 11.2812 9.29688C11.0938 9.48438 11 9.72396 11 10.0156C11 10.3073 11.0938 10.5469 11.2812 10.7344C11.4688 10.9219 11.7083 11.0156 12 11.0156C12.2917 11.0156 12.5312 10.9219 12.7188 10.7344C12.9062 10.5469 13 10.3073 13 10.0156ZM9.5 10.0156C9.52083 9.07812 9.9375 8.35938 10.75 7.85938C11.5833 7.40104 12.4167 7.40104 13.25 7.85938C14.0625 8.35938 14.4792 9.07812 14.5 10.0156C14.4792 10.9531 14.0625 11.6719 13.25 12.1719C12.4167 12.6302 11.5833 12.6302 10.75 12.1719C9.9375 11.6719 9.52083 10.9531 9.5 10.0156Z" fill="#27292E"/>
</svg>
