<svg width="24" height="24" viewBox="0 0 24 24" fill="none" xmlns="http://www.w3.org/2000/svg">
<path d="M15.8125 7.3125L19.6562 11.1562C19.8854 11.3854 20 11.6667 20 12C20 12.3333 19.8854 12.6146 19.6562 12.8438L15.8125 16.6875C15.6042 16.8958 15.3542 17 15.0625 17C14.7708 17 14.5208 16.8958 14.3125 16.6875C14.1042 16.4792 14 16.2292 14 15.9375V14H10C9.70833 14 9.46875 13.9062 9.28125 13.7188C9.09375 13.5312 9 13.2917 9 13V11C9 10.7083 9.09375 10.4688 9.28125 10.2812C9.46875 10.0938 9.70833 10 10 10H14V8.0625C14 7.77083 14.1042 7.52083 14.3125 7.3125C14.5208 7.10417 14.7708 7 15.0625 7C15.3542 7 15.6042 7.10417 15.8125 7.3125ZM9 7H7C6.70833 7 6.46875 7.09375 6.28125 7.28125C6.09375 7.46875 6 7.70833 6 8V16C6 16.2917 6.09375 16.5312 6.28125 16.7188C6.46875 16.9062 6.70833 17 7 17H9C9.29167 17 9.53125 17.0938 9.71875 17.2812C9.90625 17.4688 10 17.7083 10 18C10 18.2917 9.90625 18.5312 9.71875 18.7188C9.53125 18.9062 9.29167 19 9 19H7C6.14583 18.9792 5.4375 18.6875 4.875 18.125C4.3125 17.5625 4.02083 16.8542 4 16V8C4.02083 7.14583 4.3125 6.4375 4.875 5.875C5.4375 5.3125 6.14583 5.02083 7 5H9C9.29167 5 9.53125 5.09375 9.71875 5.28125C9.90625 5.46875 10 5.70833 10 6C10 6.29167 9.90625 6.53125 9.71875 6.71875C9.53125 6.90625 9.29167 7 9 7Z" fill="#27292E"/>
</svg>
