<svg width="24" height="24" viewBox="0 0 24 24" fill="none" xmlns="http://www.w3.org/2000/svg">
<path d="M5.5 6H18.5C18.9167 6.02083 19.2708 6.16667 19.5625 6.4375C19.8333 6.72917 19.9792 7.08333 20 7.5C19.9792 8 19.7812 8.39583 19.4062 8.6875L12.5938 13.8125C12.1979 14.0625 11.8021 14.0625 11.4062 13.8125L4.59375 8.6875C4.21875 8.39583 4.02083 8 4 7.5C4.02083 7.08333 4.16667 6.72917 4.4375 6.4375C4.72917 6.16667 5.08333 6.02083 5.5 6ZM4 9.5L10.8125 14.5938C11.1667 14.8646 11.5625 15 12 15C12.4375 15 12.8333 14.8646 13.1875 14.5938L20 9.5V16C19.9792 16.5625 19.7812 17.0312 19.4062 17.4062C19.0312 17.7812 18.5625 17.9792 18 18H6C5.4375 17.9792 4.96875 17.7812 4.59375 17.4062C4.21875 17.0312 4.02083 16.5625 4 16V9.5Z" fill="#F5A393"/>
</svg>
