<svg width="24" height="24" viewBox="0 0 24 24" fill="none" xmlns="http://www.w3.org/2000/svg">
<path d="M17.875 11.4375C17.125 12.1458 16.2604 12.5 15.2812 12.5L12.75 14.75V19.25C12.7083 19.7083 12.4583 19.9583 12 20C11.5417 19.9583 11.2917 19.7083 11.25 19.25V16.0625L7.1875 19.6562C6.91667 19.8854 6.60417 20 6.25 20C5.875 20 5.55208 19.8646 5.28125 19.5938L4.40625 18.7188C4.13542 18.4479 4 18.125 4 17.75C4 17.3958 4.11458 17.0833 4.34375 16.8125L11.5 8.71875C11.5208 7.73958 11.875 6.875 12.5625 6.125L13.625 5.0625C14.3958 4.35417 15.2812 4 16.2812 4C17.2604 4 18.1354 4.36458 18.9062 5.09375C19.6354 5.86458 20 6.73958 20 7.71875C20 8.71875 19.6458 9.60417 18.9375 10.375L17.875 11.4375ZM15.3125 11C15.875 10.9792 16.375 10.7708 16.8125 10.375L13.625 7.1875C13.2292 7.625 13.0208 8.125 13 8.6875L15.3125 11ZM17.875 9.3125C18.2917 8.85417 18.5 8.32292 18.5 7.71875C18.5 7.13542 18.2812 6.61458 17.8438 6.15625C17.3854 5.71875 16.8646 5.5 16.2812 5.5C15.6771 5.5 15.1458 5.70833 14.6875 6.125L17.875 9.3125ZM12.2812 10.0938L5.53125 17.75L6.28125 18.4688L13.9062 11.7188L12.2812 10.0938Z" fill="#27292E"/>
</svg>
