<svg width="24" height="25" viewBox="0 0 24 25" fill="none" xmlns="http://www.w3.org/2000/svg">
<path d="M8.90625 6.3125C8.39062 6.35938 8.10938 6.64062 8.0625 7.15625V17.8438C8.0625 18.1484 8.01562 18.4297 7.92188 18.6875H18.4688C18.9844 18.6406 19.2656 18.3594 19.3125 17.8438V7.15625C19.2656 6.64062 18.9844 6.35938 18.4688 6.3125H8.90625ZM5.53125 18.6875C6.04688 18.6406 6.32812 18.3594 6.375 17.8438V7.15625C6.39844 6.42969 6.64453 5.83203 7.11328 5.36328C7.58203 4.89453 8.17969 4.64844 8.90625 4.625H18.4688C19.1953 4.64844 19.793 4.89453 20.2617 5.36328C20.7305 5.83203 20.9766 6.42969 21 7.15625V17.8438C20.9766 18.5703 20.7305 19.168 20.2617 19.6367C19.793 20.1055 19.1953 20.3516 18.4688 20.375H5.53125C4.80469 20.3516 4.20703 20.1055 3.73828 19.6367C3.26953 19.168 3.02344 18.5703 3 17.8438V7.4375C3.04688 6.92188 3.32812 6.64062 3.84375 6.59375C4.35938 6.64062 4.64062 6.92188 4.6875 7.4375V17.8438C4.73438 18.3594 5.01562 18.6406 5.53125 18.6875ZM9.1875 8.28125C9.23438 7.76562 9.51562 7.48438 10.0312 7.4375H17.3438C17.8594 7.48438 18.1406 7.76562 18.1875 8.28125V11.0938C18.1406 11.6094 17.8594 11.8906 17.3438 11.9375H10.0312C9.51562 11.8906 9.23438 11.6094 9.1875 11.0938V8.28125ZM10.0312 13.0625H12.2812C12.7969 13.1094 13.0781 13.3906 13.125 13.9062C13.0781 14.4219 12.7969 14.7031 12.2812 14.75H10.0312C9.51562 14.7031 9.23438 14.4219 9.1875 13.9062C9.23438 13.3906 9.51562 13.1094 10.0312 13.0625ZM15.0938 13.0625H17.3438C17.8594 13.1094 18.1406 13.3906 18.1875 13.9062C18.1406 14.4219 17.8594 14.7031 17.3438 14.75H15.0938C14.5781 14.7031 14.2969 14.4219 14.25 13.9062C14.2969 13.3906 14.5781 13.1094 15.0938 13.0625ZM10.0312 15.875H12.2812C12.7969 15.9219 13.0781 16.2031 13.125 16.7188C13.0781 17.2344 12.7969 17.5156 12.2812 17.5625H10.0312C9.51562 17.5156 9.23438 17.2344 9.1875 16.7188C9.23438 16.2031 9.51562 15.9219 10.0312 15.875ZM15.0938 15.875H17.3438C17.8594 15.9219 18.1406 16.2031 18.1875 16.7188C18.1406 17.2344 17.8594 17.5156 17.3438 17.5625H15.0938C14.5781 17.5156 14.2969 17.2344 14.25 16.7188C14.2969 16.2031 14.5781 15.9219 15.0938 15.875Z" fill="#27292E"/>
</svg>
