<svg width="32" height="32" viewBox="0 0 32 32" fill="none" xmlns="http://www.w3.org/2000/svg">
<path fill-rule="evenodd" clip-rule="evenodd" d="M3.73992 6.66602C2.66992 8.52202 2.66992 11.014 2.66992 15.999C2.66992 20.983 2.66992 23.476 3.74192 25.332C4.44404 26.5481 5.45387 27.5579 6.66992 28.26C8.52592 29.332 11.0189 29.332 16.0029 29.332C20.9879 29.332 23.4799 29.332 25.3369 28.26C26.553 27.5579 27.5628 26.5481 28.2649 25.332C29.3369 23.476 29.3369 20.983 29.3369 15.999C29.3369 11.014 29.3369 8.52202 28.2649 6.66602C27.5629 5.4496 26.5531 4.43941 25.3369 3.73702C23.4799 2.66602 20.9869 2.66602 16.0029 2.66602C11.0189 2.66602 8.52592 2.66602 6.66992 3.73702C5.45301 4.43913 4.44245 5.44934 3.73992 6.66602ZM17.7219 12.129C17.7219 11.186 16.9509 10.419 16.0019 10.419C15.0549 10.419 14.2829 11.186 14.2829 12.129C14.2829 13.071 15.0549 13.838 16.0029 13.838C16.9509 13.838 17.7219 13.072 17.7219 12.129ZM20.1549 12.129C20.1549 14.405 18.2929 16.257 16.0019 16.257C13.7119 16.257 11.8499 14.405 11.8499 12.129C11.8499 9.85102 13.7119 7.99902 16.0019 7.99902C18.2919 7.99902 20.1549 9.85102 20.1549 12.129ZM20.0939 18.632C19.3429 19.102 18.5279 19.434 17.6819 19.625L20.0039 21.934C20.1168 22.0459 20.2064 22.1791 20.2676 22.3259C20.3287 22.4726 20.3602 22.63 20.3602 22.789C20.3602 22.948 20.3287 23.1054 20.2676 23.2521C20.2064 23.3989 20.1168 23.5321 20.0039 23.644C19.7753 23.8712 19.4662 23.9987 19.1439 23.9987C18.8217 23.9987 18.5125 23.8712 18.2839 23.644L16.0019 21.376L13.7219 23.644C13.4934 23.8717 13.184 23.9996 12.8614 23.9996C12.5388 23.9996 12.2294 23.8717 12.0009 23.644C11.8881 23.532 11.7986 23.3988 11.7376 23.2521C11.6765 23.1053 11.645 22.948 11.645 22.789C11.645 22.6301 11.6765 22.4727 11.7376 22.326C11.7986 22.1792 11.8881 22.046 12.0009 21.934L14.3209 19.625C13.4677 19.4313 12.653 19.0956 11.9109 18.632C11.776 18.5479 11.659 18.4379 11.5668 18.3083C11.4745 18.1788 11.4088 18.0323 11.3734 17.8773C11.338 17.7222 11.3336 17.5618 11.3605 17.405C11.3873 17.2483 11.4449 17.0984 11.5299 16.964C11.7025 16.6919 11.9758 16.4992 12.29 16.428C12.6043 16.3567 12.9339 16.4129 13.2069 16.584C14.046 17.1052 15.0141 17.3814 16.0019 17.3814C16.9897 17.3814 17.9578 17.1052 18.7969 16.584C19.0701 16.4128 19.3999 16.3567 19.7143 16.4279C20.0287 16.4991 20.3022 16.6918 20.4749 16.964C20.5599 17.0984 20.6175 17.2483 20.6444 17.405C20.6712 17.5618 20.6668 17.7222 20.6314 17.8773C20.596 18.0323 20.5303 18.1788 20.4381 18.3083C20.3458 18.4379 20.2288 18.5479 20.0939 18.632Z" fill="#ED812B"/>
</svg>
