<svg width="32" height="32" viewBox="0 0 32 32" fill="none" xmlns="http://www.w3.org/2000/svg">
<path fill-rule="evenodd" clip-rule="evenodd" d="M3.74004 6.66602C2.67004 8.52202 2.67004 11.014 2.67004 15.999C2.67004 20.983 2.67004 23.476 3.74204 25.332C4.44416 26.5481 5.45399 27.5579 6.67004 28.26C8.52604 29.332 11.019 29.332 16.003 29.332C20.988 29.332 23.48 29.332 25.337 28.26C26.5531 27.5579 27.5629 26.5481 28.265 25.332C29.337 23.476 29.337 20.983 29.337 15.999C29.337 11.014 29.337 8.52202 28.265 6.66602C27.5631 5.4496 26.5532 4.43941 25.337 3.73702C23.48 2.66602 20.987 2.66602 16.003 2.66602C11.019 2.66602 8.52604 2.66602 6.67004 3.73702C5.45313 4.43913 4.44258 5.44934 3.74004 6.66602ZM17.722 12.129C17.722 11.186 16.951 10.419 16.002 10.419C15.055 10.419 14.283 11.186 14.283 12.129C14.283 13.071 15.055 13.838 16.003 13.838C16.951 13.838 17.722 13.072 17.722 12.129ZM20.155 12.129C20.155 14.405 18.293 16.257 16.002 16.257C13.712 16.257 11.85 14.405 11.85 12.129C11.85 9.85102 13.712 7.99902 16.002 7.99902C18.292 7.99902 20.155 9.85102 20.155 12.129ZM20.094 18.632C19.343 19.102 18.528 19.434 17.682 19.625L20.004 21.934C20.1169 22.0459 20.2066 22.1791 20.2677 22.3259C20.3289 22.4726 20.3603 22.63 20.3603 22.789C20.3603 22.948 20.3289 23.1054 20.2677 23.2521C20.2066 23.3989 20.1169 23.5321 20.004 23.644C19.7755 23.8712 19.4663 23.9987 19.144 23.9987C18.8218 23.9987 18.5126 23.8712 18.284 23.644L16.002 21.376L13.722 23.644C13.4936 23.8717 13.1841 23.9996 12.8615 23.9996C12.539 23.9996 12.2295 23.8717 12.001 23.644C11.8883 23.532 11.7988 23.3988 11.7377 23.2521C11.6766 23.1053 11.6452 22.948 11.6452 22.789C11.6452 22.6301 11.6766 22.4727 11.7377 22.326C11.7988 22.1792 11.8883 22.046 12.001 21.934L14.321 19.625C13.4678 19.4313 12.6531 19.0956 11.911 18.632C11.7761 18.5479 11.6592 18.4379 11.5669 18.3083C11.4747 18.1788 11.4089 18.0323 11.3735 17.8773C11.3381 17.7222 11.3337 17.5618 11.3606 17.405C11.3874 17.2483 11.445 17.0984 11.53 16.964C11.7026 16.6919 11.9759 16.4992 12.2901 16.428C12.6044 16.3567 12.934 16.4129 13.207 16.584C14.0461 17.1052 15.0142 17.3814 16.002 17.3814C16.9898 17.3814 17.958 17.1052 18.797 16.584C19.0702 16.4128 19.4 16.3567 19.7144 16.4279C20.0288 16.4991 20.3023 16.6918 20.475 16.964C20.5601 17.0984 20.6176 17.2483 20.6445 17.405C20.6714 17.5618 20.667 17.7222 20.6316 17.8773C20.5961 18.0323 20.5304 18.1788 20.4382 18.3083C20.3459 18.4379 20.229 18.5479 20.094 18.632Z" fill="currentColor"/>
</svg>
