<svg width="20" height="20" viewBox="0 0 20 20" fill="none" xmlns="http://www.w3.org/2000/svg">
<path d="M5.625 3.875H14.375C14.8672 3.89323 15.2773 4.06641 15.6055 4.39453C15.9336 4.72266 16.1068 5.13281 16.125 5.625V14.375C16.1068 14.8672 15.9336 15.2773 15.6055 15.6055C15.2773 15.9336 14.8672 16.1068 14.375 16.125H5.625C5.13281 16.1068 4.72266 15.9336 4.39453 15.6055C4.06641 15.2773 3.89323 14.8672 3.875 14.375V5.625C3.89323 5.13281 4.06641 4.72266 4.39453 4.39453C4.72266 4.06641 5.13281 3.89323 5.625 3.875ZM9.125 10V8.25H10.4375C10.6927 8.25 10.9023 8.33203 11.0664 8.49609C11.2305 8.66016 11.3125 8.86979 11.3125 9.125C11.3125 9.38021 11.2305 9.58984 11.0664 9.75391C10.9023 9.91797 10.6927 10 10.4375 10H9.125ZM10.4375 11.75C11.1849 11.7318 11.8047 11.4766 12.2969 10.9844C12.7891 10.4922 13.0443 9.8724 13.0625 9.125C13.0443 8.3776 12.7891 7.75781 12.2969 7.26562C11.8047 6.77344 11.1849 6.51823 10.4375 6.5H8.46875C8.15885 6.5 7.90365 6.60938 7.70312 6.82812C7.48438 7.02865 7.375 7.28385 7.375 7.59375V12.625C7.375 12.8802 7.45703 13.0898 7.62109 13.2539C7.78516 13.418 7.99479 13.5 8.25 13.5C8.50521 13.5 8.71484 13.418 8.87891 13.2539C9.04297 13.0898 9.125 12.8802 9.125 12.625V11.75H10.4375Z" fill="#27292E"/>
</svg>
