<svg width="24" height="24" viewBox="0 0 24 24" fill="none" xmlns="http://www.w3.org/2000/svg">
<path d="M9.15625 4.78125L10.4062 7.78125C10.5938 8.34375 10.4688 8.82292 10.0312 9.21875L8.5 10.4688C9.02083 11.5729 9.70833 12.5625 10.5625 13.4375C11.4375 14.2917 12.4271 14.9792 13.5312 15.5L14.7812 13.9688C15.1771 13.5312 15.6562 13.4062 16.2188 13.5938L19.2188 14.8438C19.5312 14.9688 19.75 15.1667 19.875 15.4375C20 15.7292 20.0312 16.0312 19.9688 16.3438L19.2188 19.0938C19.0104 19.6562 18.6042 19.9583 18 20C15.3958 19.9792 13.0417 19.3438 10.9375 18.0938C8.83333 16.8438 7.15625 15.1667 5.90625 13.0625C4.65625 10.9583 4.02083 8.60417 4 6C4.04167 5.39583 4.34375 4.98958 4.90625 4.78125L7.65625 4.03125C7.96875 3.96875 8.27083 4 8.5625 4.125C8.83333 4.25 9.03125 4.46875 9.15625 4.78125Z" fill="#90DFF0"/>
</svg>
