<svg width="24" height="24" viewBox="0 0 24 24" fill="none" xmlns="http://www.w3.org/2000/svg">
<g clip-path="url(#clip0_329_2557)">
<path d="M8.45325 2.67252L8.45324 2.67252C7.9427 1.63789 6.91636 1 5.763 1H3.503C3.15626 1 2.84566 1.17283 2.66338 1.46579L8.45325 2.67252ZM8.45325 2.67252L8.83063 3.43728M8.45325 2.67252L8.83063 3.43728M8.83063 3.43728C7.13735 3.90002 5.5945 4.72276 4.28901 5.82037L2.61601 2.42799C2.61597 2.4279 2.61592 2.4278 2.61587 2.4277C2.46263 2.11647 2.47982 1.76137 2.66322 1.46605L8.83063 3.43728ZM21.408 2.42799L19.7273 5.83353C18.4184 4.72934 16.87 3.90174 15.1694 3.43717L15.5468 2.67252L15.5468 2.67252C16.0573 1.63789 17.0836 1 18.237 1H20.52C20.8667 1 21.1771 1.17272 21.3594 1.4664L21.36 1.46744C21.5435 1.76223 21.561 2.11716 21.4081 2.42771C21.4081 2.4278 21.408 2.4279 21.408 2.42799ZM20.001 15C20.001 19.4106 16.4108 23 12.001 23C7.59107 23 4 19.4105 4 15C4 10.5894 7.59022 7 12 7C16.4099 7 20.001 10.5895 20.001 15Z" fill="white" stroke="#27292E" stroke-width="2" stroke-linejoin="round"/>
<path d="M12.3543 14.0183L12.5492 14.766H13.322H14.4042L13.6432 15.1889L12.8957 15.6043L13.1901 16.4072L13.6644 17.7009L12.6117 16.8869L12 16.4139L11.3883 16.8869L10.3356 17.7009L10.8099 16.4072L11.1042 15.6043L10.3567 15.1889L9.59571 14.766H10.678H11.4507L11.6456 14.0183L12 12.659L12.3543 14.0183Z" stroke="#27292E" stroke-width="2"/>
</g>
<defs>
<clipPath id="clip0_329_2557">
<rect width="24" height="24" fill="white"/>
</clipPath>
</defs>
</svg>
