<svg width="24" height="25" viewBox="0 0 24 25" fill="none" xmlns="http://www.w3.org/2000/svg">
<path d="M18.4336 8.98438C19.043 7.95312 19.3359 7.25 19.3125 6.875C19.2891 6.40625 19.125 6.00781 18.8203 5.67969C18.4922 5.375 18.0938 5.21094 17.625 5.1875C17.1562 5.21094 16.7578 5.375 16.4297 5.67969C16.125 6.00781 15.9609 6.40625 15.9375 6.875C15.9141 7.25 16.207 7.95312 16.8164 8.98438C17.0742 9.38281 17.3438 9.75781 17.625 10.1094C17.9062 9.75781 18.1758 9.38281 18.4336 8.98438ZM18.0117 12.3242C17.8711 12.4883 17.707 12.5469 17.5195 12.5H14.5312C14.1328 12.5 13.8047 12.6406 13.5469 12.9219C13.2656 13.1797 13.125 13.5078 13.125 13.9062C13.125 14.3047 13.2656 14.6328 13.5469 14.8906C13.8047 15.1719 14.1328 15.3125 14.5312 15.3125H17.9062C18.7734 15.3359 19.5 15.6406 20.0859 16.2266C20.6719 16.8125 20.9766 17.5391 21 18.4062C20.9766 19.2734 20.6719 20 20.0859 20.5859C19.5 21.1719 18.7734 21.4766 17.9062 21.5H7.92188C8.22656 21.1484 8.57812 20.7148 8.97656 20.1992C9.07031 20.082 9.16406 19.9531 9.25781 19.8125H17.9062C18.3047 19.8125 18.6328 19.6719 18.8906 19.3906C19.1719 19.1328 19.3125 18.8047 19.3125 18.4062C19.3125 18.0078 19.1719 17.6797 18.8906 17.4219C18.6328 17.1406 18.3047 17 17.9062 17H14.5312C13.6641 16.9766 12.9375 16.6719 12.3516 16.0859C11.7656 15.5 11.4609 14.7734 11.4375 13.9062C11.4609 13.0391 11.7656 12.3125 12.3516 11.7266C12.9375 11.1406 13.6641 10.8359 14.5312 10.8125H16.043C15.5742 10.1797 15.1641 9.51172 14.8125 8.80859C14.4609 8.12891 14.2734 7.48438 14.25 6.875C14.2734 5.91406 14.6016 5.11719 15.2344 4.48438C15.8672 3.85156 16.6641 3.52344 17.625 3.5C18.5859 3.52344 19.3828 3.85156 20.0156 4.48438C20.6484 5.11719 20.9766 5.91406 21 6.875C20.9766 7.48438 20.7891 8.14062 20.4375 8.84375C20.0625 9.54688 19.6523 10.2148 19.207 10.8477C18.7383 11.457 18.3398 11.9492 18.0117 12.3242ZM7.18359 17.8438C7.79297 16.9062 8.08594 16.25 8.0625 15.875C8.03906 15.4062 7.875 15.0078 7.57031 14.6797C7.24219 14.375 6.84375 14.2109 6.375 14.1875C5.90625 14.2109 5.50781 14.375 5.17969 14.6797C4.875 15.0078 4.71094 15.4062 4.6875 15.875C4.66406 16.25 4.95703 16.9062 5.56641 17.8438C5.82422 18.2422 6.09375 18.6172 6.375 18.9688C6.65625 18.6172 6.92578 18.2422 7.18359 17.8438ZM7.85156 19.8125C7.59375 20.1406 7.35938 20.4219 7.14844 20.6562C7.00781 20.7969 6.89062 20.9258 6.79688 21.043C6.79688 21.043 6.79688 21.0547 6.79688 21.0781C6.77344 21.0781 6.76172 21.0781 6.76172 21.0781C6.50391 21.3125 6.24609 21.3125 5.98828 21.0781C5.68359 20.75 5.29688 20.293 4.82812 19.707C4.35938 19.1211 3.9375 18.4883 3.5625 17.8086C3.21094 17.1289 3.02344 16.4844 3 15.875C3.02344 14.9141 3.35156 14.1172 3.98438 13.4844C4.61719 12.8516 5.41406 12.5234 6.375 12.5C7.33594 12.5234 8.13281 12.8516 8.76562 13.4844C9.39844 14.1172 9.72656 14.9141 9.75 15.875C9.72656 16.5078 9.52734 17.1758 9.15234 17.8789C8.75391 18.582 8.32031 19.2266 7.85156 19.8125Z" fill="#27292E"/>
</svg>
