<svg width="25" height="24" viewBox="0 0 25 24" fill="none" xmlns="http://www.w3.org/2000/svg">
<path fill-rule="evenodd" clip-rule="evenodd" d="M14.6746 10.5C14.6746 12.7091 12.8838 14.5 10.6746 14.5C8.46548 14.5 6.67462 12.7091 6.67462 10.5C6.67462 8.29086 8.46548 6.5 10.6746 6.5C12.8838 6.5 14.6746 8.29086 14.6746 10.5ZM14.1512 15.3907C13.1703 16.0892 11.9705 16.5 10.6746 16.5C7.36091 16.5 4.67462 13.8137 4.67462 10.5C4.67462 7.18629 7.36091 4.5 10.6746 4.5C13.9883 4.5 16.6746 7.18629 16.6746 10.5C16.6746 11.7958 16.2638 12.9957 15.5654 13.9765L19.6244 18.0355C20.0149 18.4261 20.0149 19.0592 19.6244 19.4497C19.2338 19.8403 18.6007 19.8403 18.2102 19.4497L14.1512 15.3907Z" fill="#27292E"/>
</svg>
