<svg width="20" height="20" viewBox="0 0 20 20" fill="none" xmlns="http://www.w3.org/2000/svg">
<path d="M17.6289 4.50391L12.3789 9.75391L13.3086 10.6836C13.4362 10.8112 13.5 10.957 13.5 11.1211C13.4635 11.5039 13.2539 11.7135 12.8711 11.75H12.0781L9.125 8.79688V8.00391C9.16146 7.62109 9.37109 7.41146 9.75391 7.375C9.91797 7.375 10.0638 7.4388 10.1914 7.56641L11.1211 8.49609L16.3711 3.24609C16.5534 3.08203 16.763 3 17 3C17.237 3 17.4466 3.08203 17.6289 3.24609C17.793 3.42839 17.875 3.63802 17.875 3.875C17.875 4.11198 17.793 4.32161 17.6289 4.50391ZM11.4492 12.6523C11.5404 13.8737 11.1576 14.931 10.3008 15.8242C9.51693 16.5898 8.56901 16.9818 7.45703 17H2.72656C2.36198 16.9635 2.16146 16.763 2.125 16.3984C2.125 16.2161 2.1888 16.0612 2.31641 15.9336L5.78906 12.8438C5.84375 12.7891 5.84375 12.7253 5.78906 12.6523C5.7526 12.5977 5.69792 12.5885 5.625 12.625L4.23047 13.3086C4.02995 13.3815 3.91146 13.3086 3.875 13.0898C3.89323 12.1966 4.21224 11.431 4.83203 10.793L5.05078 10.5742C5.94401 9.71745 7.0013 9.33464 8.22266 9.42578L11.4492 12.6523Z" fill="#27292E"/>
</svg>
