<svg width="24" height="24" viewBox="0 0 24 24" fill="none" xmlns="http://www.w3.org/2000/svg">
<path d="M19.5006 9.21875C19.5839 9.51042 19.5214 9.76042 19.3131 9.96875L18.3443 10.8438C18.0943 11.0938 17.9797 11.3854 18.0006 11.7188C18.0006 11.8229 18.0006 11.9167 18.0006 12C18.0006 12.0833 18.0006 12.1771 18.0006 12.2812C17.9797 12.6146 18.0943 12.9062 18.3443 13.1562L19.3131 14.0312C19.5214 14.2396 19.5839 14.4896 19.5006 14.7812C19.3547 15.1562 19.1881 15.5208 19.0006 15.875L18.8443 16.125C18.636 16.4583 18.4068 16.7812 18.1568 17.0938C17.9485 17.3229 17.6985 17.3958 17.4068 17.3125L16.1568 16.9062C15.8235 16.8229 15.511 16.875 15.2193 17.0625C15.0735 17.1667 14.9172 17.2604 14.7506 17.3438C14.4589 17.4896 14.261 17.7292 14.1568 18.0625L13.9068 19.3438C13.8235 19.6354 13.6256 19.8125 13.3131 19.875C12.8964 19.9583 12.4589 20 12.0006 20C11.5422 20 11.0943 19.9583 10.6568 19.875C10.3651 19.8125 10.1776 19.6354 10.0943 19.3438L9.81306 18.0625C9.72972 17.7292 9.53181 17.4896 9.21931 17.3438C9.07347 17.2396 8.91722 17.1458 8.75056 17.0625C8.45889 16.875 8.15681 16.8229 7.84431 16.9062L6.59431 17.3125C6.30264 17.3958 6.05264 17.3229 5.84431 17.0938C5.57347 16.7812 5.33389 16.4583 5.12556 16.125L5.00056 15.875C4.81306 15.5208 4.64639 15.1667 4.50056 14.8125C4.41722 14.5 4.47972 14.2396 4.68806 14.0312L5.65681 13.1562C5.90681 12.9062 6.02139 12.6146 6.00056 12.2812C6.00056 12.1979 6.00056 12.1042 6.00056 12C6.00056 11.9167 6.00056 11.8229 6.00056 11.7188C6.02139 11.3854 5.90681 11.0938 5.65681 10.8438L4.68806 9.96875C4.47972 9.76042 4.41722 9.51042 4.50056 9.21875C4.64639 8.84375 4.81306 8.47917 5.00056 8.125L5.15681 7.875C5.34431 7.54167 5.57347 7.21875 5.84431 6.90625C6.05264 6.67708 6.30264 6.60417 6.59431 6.6875L7.84431 7.09375C8.15681 7.17708 8.46931 7.125 8.78181 6.9375C8.92764 6.83333 9.08389 6.73958 9.25056 6.65625C9.54222 6.51042 9.72972 6.27083 9.81306 5.9375L10.0943 4.65625C10.1776 4.36458 10.3756 4.1875 10.6881 4.125C11.1047 4.04167 11.5422 4 12.0006 4C12.4589 4 12.9068 4.04167 13.3443 4.125C13.636 4.1875 13.8235 4.36458 13.9068 4.65625L14.1881 5.9375C14.2714 6.27083 14.4589 6.51042 14.7506 6.65625C14.9172 6.73958 15.0839 6.83333 15.2506 6.9375C15.5214 7.125 15.8235 7.17708 16.1568 7.09375L17.4068 6.6875C17.6985 6.60417 17.9485 6.67708 18.1568 6.90625C18.4276 7.21875 18.6672 7.54167 18.8756 7.875L19.0006 8.125C19.1881 8.47917 19.3547 8.84375 19.5006 9.21875ZM12.0006 14.5C12.9381 14.4792 13.6568 14.0625 14.1568 13.25C14.6151 12.4167 14.6151 11.5833 14.1568 10.75C13.6568 9.9375 12.9381 9.52083 12.0006 9.5C11.0631 9.52083 10.3443 9.9375 9.84431 10.75C9.38597 11.5833 9.38597 12.4167 9.84431 13.25C10.3443 14.0625 11.0631 14.4792 12.0006 14.5Z" fill="currentColor"/>
</svg>
