<svg width="24" height="24" viewBox="0 0 24 24" fill="none" xmlns="http://www.w3.org/2000/svg">
<path d="M14.125 7.50094V5.28207C14.1278 5.2487 14.1328 5.22712 14.1366 5.21471C14.1408 5.20086 14.1445 5.19486 14.146 5.19252C14.1476 5.19016 14.1519 5.18401 14.1636 5.17401C14.1727 5.16622 14.1879 5.15474 14.2118 5.14101C14.2485 5.12788 14.27 5.12492 14.279 5.12438C14.2793 5.12451 14.2796 5.12465 14.2799 5.1248C14.2857 5.1276 14.302 5.13645 14.3282 5.15845L19.9406 10.2096C19.9411 10.21 19.9415 10.2105 19.942 10.2109C19.9825 10.248 19.9927 10.2696 19.9943 10.2731C19.9952 10.2751 20 10.2843 20 10.3134C20 10.3426 19.9952 10.3518 19.9943 10.3538C19.9927 10.3572 19.9825 10.3789 19.942 10.416C19.9415 10.4164 19.9411 10.4168 19.9406 10.4173L14.3282 15.4684C14.302 15.4904 14.2857 15.4993 14.2799 15.5021C14.2796 15.5022 14.2793 15.5024 14.279 15.5025C14.27 15.502 14.2485 15.499 14.2118 15.4859C14.1879 15.4721 14.1727 15.4607 14.1636 15.4529C14.1519 15.4429 14.1476 15.4367 14.146 15.4344C14.1445 15.432 14.1408 15.426 14.1366 15.4122C14.1328 15.3998 14.1278 15.3782 14.125 15.3448V13.1259V12.1259H13.125H9.75H9.73781L9.72562 12.1262C8.52885 12.1554 7.4809 12.5746 6.65227 13.4032C5.82364 14.2318 5.40449 15.2798 5.3753 16.4766L5.37447 16.5105L5.37594 16.5444C5.39599 17.0054 5.46229 17.4537 5.60607 17.8564C5.2858 17.5127 4.9657 17.0607 4.65314 16.4825L4.64823 16.4734L4.64312 16.4644C4.25778 15.7854 4.02415 14.8786 4.00027 13.693C4.04516 12.1846 4.56035 10.9916 5.52805 10.0433L5.53527 10.0362L5.54234 10.029C6.49261 9.05933 7.68847 8.54401 9.20127 8.50094H13.125H14.125V7.50094ZM14.2841 5.1244C14.2841 5.12445 14.2833 5.12446 14.2817 5.12428C14.2834 5.12426 14.2842 5.12435 14.2841 5.1244ZM14.2841 15.5025C14.2841 15.5025 14.2833 15.5026 14.2817 15.5026C14.2834 15.5024 14.2842 15.5024 14.2841 15.5025Z" stroke="#27292E" stroke-width="2"/>
</svg>
