<svg width="24" height="24" viewBox="0 0 24 24" fill="none" xmlns="http://www.w3.org/2000/svg">
<path d="M5 5C5.29167 5 5.53125 5.09375 5.71875 5.28125C5.90625 5.46875 6 5.70833 6 6V16.5C6.02083 16.8125 6.1875 16.9792 6.5 17H19C19.2917 17 19.5312 17.0938 19.7188 17.2812C19.9062 17.4688 20 17.7083 20 18C20 18.2917 19.9062 18.5312 19.7188 18.7188C19.5312 18.9062 19.2917 19 19 19H6.5C5.79167 18.9792 5.19792 18.7396 4.71875 18.2812C4.26042 17.8021 4.02083 17.2083 4 16.5V6C4 5.70833 4.09375 5.46875 4.28125 5.28125C4.46875 5.09375 4.70833 5 5 5ZM9 11C9.29167 11 9.53125 11.0938 9.71875 11.2812C9.90625 11.4688 10 11.7083 10 12V14C10 14.2917 9.90625 14.5312 9.71875 14.7188C9.53125 14.9062 9.29167 15 9 15C8.70833 15 8.46875 14.9062 8.28125 14.7188C8.09375 14.5312 8 14.2917 8 14V12C8 11.7083 8.09375 11.4688 8.28125 11.2812C8.46875 11.0938 8.70833 11 9 11ZM13 9V11C13 11.2917 12.9062 11.5312 12.7188 11.7188C12.5312 11.9062 12.2917 12 12 12C11.7083 12 11.4688 11.9062 11.2812 11.7188C11.0938 11.5312 11 11.2917 11 11V9C11 8.70833 11.0938 8.46875 11.2812 8.28125C11.4688 8.09375 11.7083 8 12 8C12.2917 8 12.5312 8.09375 12.7188 8.28125C12.9062 8.46875 13 8.70833 13 9ZM15 6C15.2917 6 15.5312 6.09375 15.7188 6.28125C15.9062 6.46875 16 6.70833 16 7V9C16 9.29167 15.9062 9.53125 15.7188 9.71875C15.5312 9.90625 15.2917 10 15 10C14.7083 10 14.4688 9.90625 14.2812 9.71875C14.0938 9.53125 14 9.29167 14 9V7C14 6.70833 14.0938 6.46875 14.2812 6.28125C14.4688 6.09375 14.7083 6 15 6ZM19 7V14C19 14.2917 18.9062 14.5312 18.7188 14.7188C18.5312 14.9062 18.2917 15 18 15C17.7083 15 17.4688 14.9062 17.2812 14.7188C17.0938 14.5312 17 14.2917 17 14V7C17 6.70833 17.0938 6.46875 17.2812 6.28125C17.4688 6.09375 17.7083 6 18 6C18.2917 6 18.5312 6.09375 18.7188 6.28125C18.9062 6.46875 19 6.70833 19 7Z" fill="currentColor"/>
</svg>
