<svg width="24" height="25" viewBox="0 0 24 25" fill="none" xmlns="http://www.w3.org/2000/svg">
<path d="M10.7695 4.64612C11.2617 4.78674 11.4844 5.11487 11.4375 5.63049L10.9102 8.26721H14.8125L15.375 5.27893C15.5391 4.78674 15.8789 4.57581 16.3945 4.64612C16.8867 4.78674 17.0977 5.11487 17.0273 5.63049L16.5352 8.26721H19.0312C19.5469 8.31409 19.8281 8.59534 19.875 9.11096C19.8281 9.62659 19.5469 9.90784 19.0312 9.95471H16.1836L15.1641 15.0172H17.9062C18.4219 15.0641 18.7031 15.3453 18.75 15.861C18.7031 16.3766 18.4219 16.6578 17.9062 16.7047H14.8477L14.25 19.693C14.0859 20.1852 13.7461 20.4078 13.2305 20.361C12.7383 20.1969 12.5273 19.8571 12.5977 19.3414L13.125 16.7047H9.22266L8.625 19.693C8.46094 20.1852 8.12109 20.4078 7.60547 20.361C7.11328 20.1969 6.90234 19.8571 6.97266 19.3414L7.5 16.7047H4.96875C4.45312 16.6578 4.17188 16.3766 4.125 15.861C4.17188 15.3453 4.45312 15.0641 4.96875 15.0172H7.81641L8.83594 9.95471H6.09375C5.57812 9.90784 5.29688 9.62659 5.25 9.11096C5.29688 8.59534 5.57812 8.31409 6.09375 8.26721H9.1875L9.75 5.27893C9.91406 4.78674 10.2539 4.57581 10.7695 4.64612ZM10.5586 9.95471L9.53906 15.0172H13.4414L14.4609 9.95471H10.5586Z" fill="currentColor"/>
</svg>
