<svg width="32" height="32" viewBox="0 0 32 32" fill="none" xmlns="http://www.w3.org/2000/svg">
<path fill-rule="evenodd" clip-rule="evenodd" d="M10.6689 2.66598H21.3359C23.4577 2.66598 25.4925 3.50883 26.9928 5.00912C28.4931 6.50941 29.3359 8.54425 29.3359 10.666V21.332C29.3359 23.4537 28.4931 25.4885 26.9928 26.9888C25.4925 28.4891 23.4577 29.332 21.3359 29.332H10.6689C8.54721 29.332 6.51238 28.4891 5.01209 26.9888C3.5118 25.4885 2.66895 23.4537 2.66895 21.332V10.665C2.66895 8.54325 3.5118 6.50841 5.01209 5.00812C6.51238 3.50783 8.54721 2.66598 10.6689 2.66598ZM21.3369 22.698C21.3369 22.698 20.9599 23.62 19.9529 23.18L16.1789 20.286L13.7459 22.488C13.7459 22.488 13.5579 22.635 13.3479 22.551C13.3479 22.551 13.1589 22.531 12.9499 21.838C12.4905 20.3649 12.0361 18.8902 11.5869 17.414L7.83295 16.156C7.83295 16.156 7.26695 15.946 7.20395 15.506C7.14094 15.066 7.85395 14.814 7.85395 14.814L22.7629 8.96398C22.7629 8.96398 23.9789 8.41798 23.9999 9.31998L21.3369 22.698ZM21.1049 11.69C21.1249 11.375 20.6009 11.69 20.6009 11.69L12.3609 16.932C12.3035 16.969 12.26 17.0241 12.2372 17.0885C12.2144 17.1529 12.2136 17.2231 12.2349 17.288L13.2199 20.518C13.2829 20.706 13.5559 20.685 13.5979 20.476L13.8279 18.505C13.8275 18.4669 13.837 18.4294 13.8554 18.3961C13.8738 18.3628 13.9005 18.3349 13.9329 18.315C14.7299 17.603 20.6639 12.277 20.9159 12.025C21.1879 11.732 21.1049 11.69 21.1049 11.69Z" fill="currentColor"/>
</svg>
