<svg width="32" height="32" viewBox="0 0 32 32" fill="none" xmlns="http://www.w3.org/2000/svg">
<path fill-rule="evenodd" clip-rule="evenodd" d="M10.6699 2.66598H21.3369C23.4587 2.66598 25.4935 3.50883 26.9938 5.00912C28.4941 6.50941 29.3369 8.54425 29.3369 10.666V21.332C29.3369 23.4537 28.4941 25.4885 26.9938 26.9888C25.4935 28.4891 23.4587 29.332 21.3369 29.332H10.6699C8.54819 29.332 6.51336 28.4891 5.01307 26.9888C3.51278 25.4885 2.66992 23.4537 2.66992 21.332V10.665C2.66992 8.54325 3.51278 6.50841 5.01307 5.00812C6.51336 3.50783 8.54819 2.66598 10.6699 2.66598ZM21.3379 22.698C21.3379 22.698 20.9609 23.62 19.9539 23.18L16.1799 20.286L13.7469 22.488C13.7469 22.488 13.5589 22.635 13.3489 22.551C13.3489 22.551 13.1599 22.531 12.9509 21.838C12.4915 20.3649 12.0371 18.8902 11.5879 17.414L7.83392 16.156C7.83392 16.156 7.26792 15.946 7.20492 15.506C7.14192 15.066 7.85492 14.814 7.85492 14.814L22.7639 8.96398C22.7639 8.96398 23.9799 8.41798 24.0009 9.31998L21.3379 22.698ZM21.1059 11.69C21.1259 11.375 20.6019 11.69 20.6019 11.69L12.3619 16.932C12.3045 16.969 12.261 17.0241 12.2382 17.0885C12.2154 17.1529 12.2146 17.2231 12.2359 17.288L13.2209 20.518C13.2839 20.706 13.5569 20.685 13.5989 20.476L13.8289 18.505C13.8285 18.4669 13.838 18.4294 13.8564 18.3961C13.8748 18.3628 13.9015 18.3349 13.9339 18.315C14.7309 17.603 20.6649 12.277 20.9169 12.025C21.1889 11.732 21.1059 11.69 21.1059 11.69Z" fill="#0088CC"/>
</svg>
