<svg width="24" height="24" viewBox="0 0 24 24" fill="none" xmlns="http://www.w3.org/2000/svg">
<g clip-path="url(#clip0_329_731)">
<path d="M22 13H23V19.5C23 21.4287 21.4287 23 19.5 23H15V21C15 20.0959 14.7714 19.2708 14.1395 18.6971C13.5272 18.1412 12.7281 18 12 18C11.2719 18 10.4728 18.1412 9.86046 18.6971C9.22855 19.2708 9 20.0959 9 21V23H4.5C2.57128 23 1 21.4287 1 19.5V13H2H22Z" fill="white" stroke="#27292E" stroke-width="2"/>
<path d="M17 3H18V9H14C14 8.92806 14.0006 8.84967 14.0012 8.76819C14.0027 8.57819 14.0043 8.37136 13.9987 8.19033C13.9904 7.92538 13.9661 7.60193 13.8698 7.29026C13.7677 6.96006 13.5703 6.59816 13.1932 6.336C12.8269 6.08139 12.4042 6 12 6C11.5958 6 11.1731 6.08139 10.8068 6.336C10.4297 6.59816 10.2323 6.96006 10.1302 7.29026C10.0339 7.60193 10.0096 7.92538 10.0013 8.19033C9.99573 8.37136 9.99731 8.57819 9.99877 8.76819C9.9994 8.84967 10 8.92806 10 9H6V3H7H9H10H11H13H14H15H17Z" fill="white" stroke="#27292E" stroke-width="2"/>
</g>
<defs>
<clipPath id="clip0_329_731">
<rect width="24" height="24" fill="white"/>
</clipPath>
</defs>
</svg>
