<svg width="20" height="20" viewBox="0 0 20 20" fill="none" xmlns="http://www.w3.org/2000/svg">
<path d="M6.69141 6.19922L5.98047 8.25H14.0195L13.3086 6.19922C13.1628 5.83464 12.8893 5.64323 12.4883 5.625H7.51172C7.11068 5.64323 6.83724 5.83464 6.69141 6.19922ZM4.09375 8.38672L5.05078 5.625C5.23307 5.09635 5.55208 4.67708 6.00781 4.36719C6.44531 4.03906 6.94661 3.875 7.51172 3.875H12.4883C13.0534 3.875 13.5547 4.03906 13.9922 4.36719C14.4479 4.67708 14.7669 5.09635 14.9492 5.625L15.9062 8.38672C16.2344 8.51432 16.4987 8.72396 16.6992 9.01562C16.8997 9.30729 17 9.63542 17 10V15.25C17 15.5052 16.918 15.7148 16.7539 15.8789C16.5898 16.043 16.3802 16.125 16.125 16.125H15.25C14.9948 16.125 14.7852 16.043 14.6211 15.8789C14.457 15.7148 14.375 15.5052 14.375 15.25V13.9375H5.625V15.25C5.625 15.5052 5.54297 15.7148 5.37891 15.8789C5.21484 16.043 5.00521 16.125 4.75 16.125H3.875C3.61979 16.125 3.41016 16.043 3.24609 15.8789C3.08203 15.7148 3 15.5052 3 15.25V10C3 9.63542 3.10026 9.30729 3.30078 9.01562C3.5013 8.72396 3.76562 8.51432 4.09375 8.38672ZM6.5 10.875C6.5 10.6198 6.41797 10.4102 6.25391 10.2461C6.08984 10.082 5.88021 10 5.625 10C5.36979 10 5.16016 10.082 4.99609 10.2461C4.83203 10.4102 4.75 10.6198 4.75 10.875C4.75 11.1302 4.83203 11.3398 4.99609 11.5039C5.16016 11.668 5.36979 11.75 5.625 11.75C5.88021 11.75 6.08984 11.668 6.25391 11.5039C6.41797 11.3398 6.5 11.1302 6.5 10.875ZM14.375 11.75C14.6302 11.75 14.8398 11.668 15.0039 11.5039C15.168 11.3398 15.25 11.1302 15.25 10.875C15.25 10.6198 15.168 10.4102 15.0039 10.2461C14.8398 10.082 14.6302 10 14.375 10C14.1198 10 13.9102 10.082 13.7461 10.2461C13.582 10.4102 13.5 10.6198 13.5 10.875C13.5 11.1302 13.582 11.3398 13.7461 11.5039C13.9102 11.668 14.1198 11.75 14.375 11.75Z" fill="#27292E"/>
</svg>
