<svg width="24" height="24" viewBox="0 0 24 24" fill="none" xmlns="http://www.w3.org/2000/svg">
<path d="M20 22C20 22.5523 20.4477 23 21 23H3C3.55228 23 4 22.5523 4 22V13.999C4 13.4481 3.55449 13.001 3.00363 12.999C2.45067 12.997 2 12.5453 2 11.992C2 11.6212 2.2008 11.2845 2.52442 11.1087L2.52593 11.1079L11.1223 6.41791C11.1259 6.41641 11.1366 6.41205 11.1581 6.40438C11.1736 6.39886 11.187 6.39424 11.2058 6.38782C11.2146 6.38478 11.2247 6.38133 11.2367 6.3772C11.2689 6.36607 11.3119 6.35109 11.358 6.33334C11.7442 6.18481 11.999 5.81377 11.999 5.4C11.999 5.8165 12.2572 6.18939 12.647 6.336C12.6908 6.35247 12.732 6.3667 12.7627 6.37724C12.7695 6.37957 12.7757 6.38171 12.7815 6.3837C12.8051 6.39179 12.8213 6.39733 12.8381 6.40337C12.8608 6.41149 12.8714 6.41597 12.8746 6.41731L21.4742 11.1079L21.4761 11.1089C21.798 11.2836 22 11.6218 22 11.992C22 12.5456 21.55 12.997 20.9964 12.999C20.4455 13.001 20 13.4481 20 13.999V22ZM11.999 5C11.999 4.94082 11.9939 4.88284 11.984 4.82649V1.417C11.984 1.18674 12.1708 1 12.401 1C12.4812 1 12.5569 1.02218 12.621 1.06236C12.6552 1.08381 12.6907 1.10317 12.7273 1.12033L14.7935 2.08966L12.4718 3.53029C12.1778 3.71268 11.999 4.03406 11.999 4.38V5Z" fill="white" stroke="#27292E" stroke-width="2" stroke-linejoin="round"/>
<path d="M8 14V22M12 14V22M16 14V22" stroke="#27292E" stroke-width="2" stroke-linecap="round" stroke-linejoin="round"/>
</svg>
