<svg width="32" height="32" viewBox="0 0 32 32" fill="none" xmlns="http://www.w3.org/2000/svg">
<path fill-rule="evenodd" clip-rule="evenodd" d="M3.73992 6.66602C2.66992 8.52202 2.66992 11.014 2.66992 15.999C2.66992 20.983 2.66992 23.476 3.74192 25.332C4.44404 26.5481 5.45387 27.5579 6.66992 28.26C8.52592 29.332 11.0189 29.332 16.0029 29.332C20.9879 29.332 23.4799 29.332 25.3369 28.26C26.553 27.5579 27.5628 26.5481 28.2649 25.332C29.3369 23.476 29.3369 20.983 29.3369 15.999C29.3369 11.014 29.3369 8.52202 28.2649 6.66602C27.5629 5.4496 26.5531 4.43941 25.3369 3.73702C23.4799 2.66602 20.9869 2.66602 16.0029 2.66602C11.0189 2.66602 8.52592 2.66602 6.66992 3.73702C5.45301 4.43913 4.44245 5.44934 3.73992 6.66602ZM7.66892 10.999H9.61292C10.1099 10.999 10.2969 11.216 10.4829 11.755C11.4349 14.525 13.0379 16.946 13.6969 16.946C13.9449 16.946 14.0569 16.832 14.0569 16.204V13.341C14.0129 12.526 13.7279 12.173 13.5169 11.912C13.3869 11.752 13.2849 11.625 13.2849 11.446C13.2849 11.228 13.4709 10.999 13.7799 10.999H16.8359C17.2479 10.999 17.3909 11.219 17.3909 11.714V15.566C17.3909 15.978 17.5709 16.122 17.6939 16.122C17.9409 16.122 18.1469 15.978 18.5999 15.525C19.9999 13.959 20.9899 11.549 20.9899 11.549C21.1129 11.26 21.3409 10.999 21.8359 10.999H23.7799C24.3679 10.999 24.4919 11.302 24.3679 11.714C24.1379 12.766 22.0799 15.718 21.7869 16.134L21.7519 16.184C21.5459 16.514 21.4639 16.678 21.7519 17.049C21.8529 17.191 22.0699 17.404 22.3179 17.646C22.5729 17.896 22.8609 18.178 23.0909 18.45C23.9259 19.39 24.5559 20.182 24.7309 20.729C24.8909 21.277 24.6129 21.555 24.0579 21.555H22.1129C21.5929 21.555 21.3299 21.263 20.7629 20.632C20.5229 20.365 20.2279 20.037 19.8359 19.645C18.6829 18.532 18.1879 18.388 17.8999 18.388C17.5079 18.388 17.3909 18.498 17.3909 19.054V20.798C17.3909 21.277 17.2379 21.555 16.0019 21.555C13.9419 21.555 11.6789 20.304 10.0719 17.997C7.66192 14.618 7.00192 12.064 7.00192 11.549C7.00192 11.26 7.11292 10.999 7.66892 10.999Z" fill="#45668E"/>
</svg>
