<svg width="32" height="32" viewBox="0 0 32 32" fill="none" xmlns="http://www.w3.org/2000/svg">
<path fill-rule="evenodd" clip-rule="evenodd" d="M3.74004 6.66602C2.67004 8.52202 2.67004 11.014 2.67004 15.999C2.67004 20.983 2.67004 23.476 3.74204 25.332C4.44416 26.5481 5.45399 27.5579 6.67004 28.26C8.52604 29.332 11.019 29.332 16.003 29.332C20.988 29.332 23.48 29.332 25.337 28.26C26.5531 27.5579 27.5629 26.5481 28.265 25.332C29.337 23.476 29.337 20.983 29.337 15.999C29.337 11.014 29.337 8.52202 28.265 6.66602C27.5631 5.4496 26.5532 4.43941 25.337 3.73702C23.48 2.66602 20.987 2.66602 16.003 2.66602C11.019 2.66602 8.52604 2.66602 6.67004 3.73702C5.45313 4.43913 4.44258 5.44934 3.74004 6.66602ZM7.66904 10.999H9.61304C10.11 10.999 10.297 11.216 10.483 11.755C11.435 14.525 13.038 16.946 13.697 16.946C13.945 16.946 14.057 16.832 14.057 16.204V13.341C14.013 12.526 13.728 12.173 13.517 11.912C13.387 11.752 13.285 11.625 13.285 11.446C13.285 11.228 13.471 10.999 13.78 10.999H16.836C17.248 10.999 17.391 11.219 17.391 11.714V15.566C17.391 15.978 17.571 16.122 17.694 16.122C17.941 16.122 18.147 15.978 18.6 15.525C20 13.959 20.99 11.549 20.99 11.549C21.113 11.26 21.341 10.999 21.836 10.999H23.78C24.368 10.999 24.492 11.302 24.368 11.714C24.138 12.766 22.08 15.718 21.787 16.134L21.752 16.184C21.546 16.514 21.464 16.678 21.752 17.049C21.853 17.191 22.07 17.404 22.318 17.646C22.573 17.896 22.861 18.178 23.091 18.45C23.926 19.39 24.556 20.182 24.731 20.729C24.891 21.277 24.613 21.555 24.058 21.555H22.113C21.593 21.555 21.33 21.263 20.763 20.632C20.523 20.365 20.228 20.037 19.836 19.645C18.683 18.532 18.188 18.388 17.9 18.388C17.508 18.388 17.391 18.498 17.391 19.054V20.798C17.391 21.277 17.238 21.555 16.002 21.555C13.942 21.555 11.679 20.304 10.072 17.997C7.66204 14.618 7.00204 12.064 7.00204 11.549C7.00204 11.26 7.11304 10.999 7.66904 10.999Z" fill="currentColor"/>
</svg>
