<svg width="24" height="24" viewBox="0 0 24 24" fill="none" xmlns="http://www.w3.org/2000/svg">
<path d="M15 12C15 12.6875 14.9688 13.3542 14.9062 14H9.09375C9.03125 13.3542 9 12.6875 9 12C9 11.3125 9.03125 10.6458 9.09375 10H14.9062C14.9688 10.6458 15 11.3125 15 12ZM15.9062 10H19.75C19.9167 10.6458 20 11.3125 20 12C20 12.6875 19.9167 13.3542 19.75 14H15.9062C15.9688 13.3542 16 12.6875 16 12C16 11.3125 15.9688 10.6458 15.9062 10ZM19.4062 9H15.7812C15.4479 6.95833 14.8646 5.375 14.0312 4.25C15.2812 4.60417 16.375 5.1875 17.3125 6C18.2292 6.83333 18.9271 7.83333 19.4062 9ZM14.75 9H9.25C9.4375 7.85417 9.71875 6.86458 10.0938 6.03125C10.4271 5.30208 10.7708 4.77083 11.125 4.4375C11.4792 4.125 11.7708 3.97917 12 4C12.2292 3.97917 12.5208 4.125 12.875 4.4375C13.2292 4.77083 13.5729 5.30208 13.9062 6.03125C14.2812 6.86458 14.5625 7.85417 14.75 9ZM8.21875 9H4.59375C5.07292 7.83333 5.77083 6.83333 6.6875 6C7.625 5.1875 8.71875 4.60417 9.96875 4.25C9.13542 5.375 8.55208 6.95833 8.21875 9ZM4.25 10H8.09375C8.03125 10.6458 8 11.3125 8 12C8 12.6875 8.03125 13.3542 8.09375 14H4.25C4.08333 13.3542 4 12.6875 4 12C4 11.3125 4.08333 10.6458 4.25 10ZM10.0938 17.9688C9.71875 17.1354 9.4375 16.1458 9.25 15H14.75C14.5625 16.1458 14.2812 17.1354 13.9062 17.9688C13.5729 18.6979 13.2292 19.2292 12.875 19.5625C12.5208 19.875 12.2292 20.0208 12 20C11.7708 20.0208 11.4792 19.875 11.125 19.5625C10.7708 19.2292 10.4271 18.6979 10.0938 17.9688ZM8.21875 15C8.55208 17.0417 9.13542 18.625 9.96875 19.75C8.71875 19.3958 7.625 18.8125 6.6875 18C5.77083 17.1667 5.07292 16.1667 4.59375 15H8.21875ZM19.4062 15C18.9271 16.1667 18.2292 17.1667 17.3125 18C16.375 18.8125 15.2917 19.3958 14.0625 19.75C14.875 18.625 15.4479 17.0417 15.7812 15H19.4062Z" fill="#C5AAFA"/>
</svg>
