<svg width="40" height="40" viewBox="0 0 40 40" fill="none" xmlns="http://www.w3.org/2000/svg">
<rect width="40" height="40" rx="20" fill="#D0EB81"/>
<path d="M25.9062 18.2363C26.2161 18.2546 26.4714 18.3639 26.6719 18.5645C26.8906 18.7832 27 19.0475 27 19.3574V20.2871C26.9818 20.7428 26.7721 21.071 26.3711 21.2715L19.6992 24.3887L17.9492 26.1387C17.3477 26.7038 16.6641 26.9863 15.8984 26.9863C15.0964 26.9681 14.4219 26.6947 13.875 26.166C13.3099 25.6191 13.0182 24.9264 13 24.0879C13 23.3405 13.2826 22.666 13.8477 22.0645L15.5977 20.3145L18.7148 13.6426C18.9154 13.2415 19.2435 13.0319 19.6992 13.0137H20.6562C20.9661 13.0137 21.2305 13.123 21.4492 13.3418C21.6497 13.5423 21.7773 13.7884 21.832 14.0801V15.2012H23.7734C24.0651 15.2012 24.3112 15.3014 24.5117 15.502C24.7122 15.7025 24.8216 15.9577 24.8398 16.2676V18.2363H25.9062ZM23.5 16.4863H21.8047L21.0117 18.9746L23.5 18.1816V16.4863ZM15.3242 22.4473L17.5664 24.6895L18.1406 24.1152L15.8984 21.873L15.3242 22.4473ZM19.8359 14.2988L18.7422 16.6777L20.4375 15.666V14.2988H19.8359ZM20.1367 17.3613L17.7852 18.7559L16.7734 20.8613L17.4844 21.5723L19.4258 19.6582L20.1367 17.3613ZM15.8984 25.7012C16.263 25.7012 16.6094 25.5645 16.9375 25.291L14.7227 23.0762C14.4492 23.3861 14.3125 23.7324 14.3125 24.1152C14.349 24.6803 14.5404 25.0814 14.8867 25.3184C15.2331 25.5736 15.5703 25.7012 15.8984 25.7012ZM19.125 23.2402L21.2578 22.2285L22.625 19.877L20.3555 20.5879L18.4141 22.5293L19.125 23.2402ZM25.6875 20.1777H25.6602V19.5762H24.293L23.3359 21.2715L25.6875 20.1777Z" fill="#27292E"/>
</svg>
