<svg width="40" height="40" viewBox="0 0 40 40" fill="none" xmlns="http://www.w3.org/2000/svg">
<rect width="40" height="40" rx="20" fill="#D0EB81"/>
<path d="M23.2812 13.6562V13.875H26.5625C26.9271 13.8932 27.237 14.0208 27.4922 14.2578C27.7292 14.513 27.8568 14.8229 27.875 15.1875V22.625H28.0938C28.4948 22.6615 28.7135 22.8802 28.75 23.2812C28.7135 23.6823 28.4948 23.901 28.0938 23.9375H20.6562V26.3438C20.6198 26.7448 20.401 26.9635 20 27C19.599 26.9635 19.3802 26.7448 19.3438 26.3438V23.9375H11.9062C11.5052 23.901 11.2865 23.6823 11.25 23.2812C11.2865 22.8802 11.5052 22.6615 11.9062 22.625H12.125V15.1875C12.1432 14.8229 12.2708 14.513 12.5078 14.2578C12.763 14.0208 13.0729 13.8932 13.4375 13.875H16.7188V13.6562C16.7552 13.2552 16.974 13.0365 17.375 13C17.776 13.0365 17.9948 13.2552 18.0312 13.6562V13.875H21.9688V13.6562C22.0052 13.2552 22.224 13.0365 22.625 13C23.026 13.0365 23.2448 13.2552 23.2812 13.6562ZM26.5625 22.625V15.1875H23.2812V16.5H23.5C23.901 16.5365 24.1198 16.7552 24.1562 17.1562C24.1198 17.5573 23.901 17.776 23.5 17.8125H21.75C21.349 17.776 21.1302 17.5573 21.0938 17.1562C21.1302 16.7552 21.349 16.5365 21.75 16.5H21.9688V15.1875H18.0312V16.5H18.25C18.651 16.5365 18.8698 16.7552 18.9062 17.1562C18.8698 17.5573 18.651 17.776 18.25 17.8125H16.5C16.099 17.776 15.8802 17.5573 15.8438 17.1562C15.8802 16.7552 16.099 16.5365 16.5 16.5H16.7188V15.1875H13.4375V22.625H26.5625Z" fill="#27292E"/>
</svg>
