<svg width="40" height="40" viewBox="0 0 40 40" fill="none" xmlns="http://www.w3.org/2000/svg">
<rect width="40" height="40" rx="20" fill="#D0EB81"/>
<path d="M15.7344 13.7391L15.2969 17.6219V18.0321C15.2969 18.342 15.4062 18.5972 15.625 18.7977C15.8255 19.0165 16.0807 19.1259 16.3906 19.1259H18.1406C18.4505 19.1259 18.7057 19.0165 18.9062 18.7977C19.125 18.5972 19.2344 18.342 19.2344 18.0321V17.6219L18.7969 13.7391C18.7969 13.3381 18.9883 13.092 19.3711 13.0009C19.7721 13.0009 20.0182 13.1923 20.1094 13.5751L20.5469 17.5126V18.0321C20.5286 18.7066 20.2917 19.2717 19.8359 19.7274C19.3802 20.1831 18.8151 20.4201 18.1406 20.4384H17.9219V26.3446C17.8854 26.7456 17.6667 26.9644 17.2656 27.0009C16.8646 26.9644 16.6458 26.7456 16.6094 26.3446V20.4384H16.3906C15.7161 20.4201 15.151 20.1831 14.6953 19.7274C14.2396 19.2717 14.0026 18.7066 13.9844 18.0321V17.5126L14.4219 13.5751C14.513 13.1923 14.7591 13.0009 15.1602 13.0009C15.543 13.092 15.7344 13.3381 15.7344 13.7391ZM17.9219 13.6571V17.5946C17.8854 17.9956 17.6667 18.2144 17.2656 18.2509C16.8646 18.2144 16.6458 17.9956 16.6094 17.5946V13.6571C16.6458 13.2561 16.8646 13.0373 17.2656 13.0009C17.6667 13.0373 17.8854 13.2561 17.9219 13.6571ZM22.9531 17.8134V20.8759C22.9714 21.1493 23.1172 21.2951 23.3906 21.3134H24.7031V14.5048C24.5026 14.5959 24.293 14.7326 24.0742 14.9149C23.8008 15.1519 23.5456 15.4983 23.3086 15.954C23.0898 16.4097 22.9714 17.0295 22.9531 17.8134ZM24.7031 22.6259H23.3906C22.8984 22.6076 22.4883 22.4344 22.1602 22.1063C21.832 21.7782 21.6589 21.368 21.6406 20.8759V17.8134C21.6771 16.5191 21.9505 15.5165 22.4609 14.8055C22.9531 14.1128 23.4818 13.6389 24.0469 13.3837C24.5938 13.1102 24.9583 12.9826 25.1406 13.0009C25.3958 13.0009 25.6055 13.0829 25.7695 13.2469C25.9336 13.411 26.0156 13.6206 26.0156 13.8759V26.3446C25.9792 26.7456 25.7604 26.9644 25.3594 27.0009C24.9583 26.9644 24.7396 26.7456 24.7031 26.3446V22.6259Z" fill="#27292E"/>
</svg>
