<svg width="40" height="40" viewBox="0 0 40 40" fill="none" xmlns="http://www.w3.org/2000/svg">
<rect width="40" height="40" rx="20" fill="#D0EB81"/>
<path d="M12.5625 14.4219V17.2656H25.4688C26.3984 17.2839 27.1732 17.6029 27.793 18.2227C28.4128 18.8424 28.7318 19.6172 28.75 20.5469V25.5781C28.7135 25.9792 28.4948 26.1979 28.0938 26.2344C27.6927 26.1979 27.474 25.9792 27.4375 25.5781V23.3906H12.5625V25.3594C12.526 25.7604 12.3073 25.9792 11.9062 26.0156C11.5052 25.9792 11.2865 25.7604 11.25 25.3594V14.4219C11.2865 14.0208 11.5052 13.8021 11.9062 13.7656C12.3073 13.8021 12.526 14.0208 12.5625 14.4219ZM27.4375 22.0781V20.5469C27.4193 19.9818 27.2279 19.5169 26.8633 19.1523C26.4987 18.7878 26.0339 18.5964 25.4688 18.5781H12.5625V22.0781H27.4375Z" fill="#27292E"/>
</svg>
