<svg width="40" height="40" viewBox="0 0 40 40" fill="none" xmlns="http://www.w3.org/2000/svg">
<rect width="40" height="40" rx="20" fill="#D0EB81"/>
<path d="M15.625 14.75C15.625 14.4948 15.707 14.2852 15.8711 14.1211C16.0352 13.957 16.2448 13.875 16.5 13.875H17.375C17.6302 13.875 17.8398 13.957 18.0039 14.1211C18.168 14.2852 18.25 14.4948 18.25 14.75V15.1875H15.625V14.75ZM14.6406 17.3203C14.7135 16.9557 14.8867 16.6549 15.1602 16.418C15.4336 16.181 15.7617 16.0625 16.1445 16.0625H18.4688C18.8698 16.099 19.0885 16.3177 19.125 16.7188V17.375H20.875V16.7188C20.9115 16.3177 21.1302 16.099 21.5312 16.0625H23.8555C24.2383 16.0625 24.5664 16.181 24.8398 16.418C25.1133 16.6549 25.2865 16.9557 25.3594 17.3203L25.4961 18.0586C25.6055 18.6055 25.806 19.125 26.0977 19.6172L26.1523 19.7266C26.7174 20.6745 27 21.6862 27 22.7617V24.5938C26.9818 25.0312 26.8359 25.3958 26.5625 25.6875C26.2708 25.9609 25.9062 26.1068 25.4688 26.125H22.4062C21.9688 26.1068 21.6042 25.9609 21.3125 25.6875C21.0391 25.3958 20.8932 25.0312 20.875 24.5938V20.875H19.125V24.5938C19.1068 25.0312 18.9609 25.3958 18.6875 25.6875C18.3958 25.9609 18.0312 26.1068 17.5938 26.125H14.5312C14.0938 26.1068 13.7292 25.9609 13.4375 25.6875C13.1641 25.3958 13.0182 25.0312 13 24.5938V22.7617C13 21.668 13.2826 20.6562 13.8477 19.7266L13.9023 19.6172C14.194 19.125 14.3945 18.6055 14.5039 18.0586L14.6406 17.3203ZM16.1445 17.375C16.0169 17.375 15.944 17.4388 15.9258 17.5664L15.7891 18.3047C15.6615 19.0156 15.4154 19.6719 15.0508 20.2734L14.9688 20.4102C14.5312 21.1393 14.3125 21.9232 14.3125 22.7617V24.5938C14.3307 24.7214 14.4036 24.7943 14.5312 24.8125H17.5938C17.7214 24.7943 17.7943 24.7214 17.8125 24.5938V17.375H16.1445ZM23.8555 17.375H22.1875V24.5938C22.2057 24.7214 22.2786 24.7943 22.4062 24.8125H25.4688C25.5964 24.7943 25.6693 24.7214 25.6875 24.5938V22.7617C25.6875 21.9232 25.4688 21.1393 25.0312 20.4102L24.9766 20.2734C24.5938 19.6719 24.3385 19.0156 24.2109 18.3047L24.0742 17.5664C24.056 17.4388 23.9831 17.375 23.8555 17.375ZM22.625 13.875H23.5C23.7552 13.875 23.9648 13.957 24.1289 14.1211C24.293 14.2852 24.375 14.4948 24.375 14.75V15.1875H21.75V14.75C21.75 14.4948 21.832 14.2852 21.9961 14.1211C22.1602 13.957 22.3698 13.875 22.625 13.875Z" fill="#27292E"/>
</svg>
