<svg width="20" height="20" viewBox="0 0 20 20" fill="none" xmlns="http://www.w3.org/2000/svg">
<path d="M2.72656 8.55078C2.54427 8.71484 2.33464 8.79688 2.09766 8.79688C1.87891 8.79688 1.67839 8.70573 1.49609 8.52344C1.33203 8.34115 1.25 8.13151 1.25 7.89453C1.25 7.65755 1.34115 7.45703 1.52344 7.29297C2.63542 6.21745 3.91146 5.37891 5.35156 4.77734C6.79167 4.19401 8.34115 3.89323 10 3.875C11.6589 3.89323 13.2083 4.19401 14.6484 4.77734C16.0885 5.37891 17.3646 6.21745 18.4766 7.29297C18.6589 7.45703 18.75 7.65755 18.75 7.89453C18.75 8.13151 18.668 8.34115 18.5039 8.52344C18.3216 8.70573 18.1211 8.79688 17.9023 8.79688C17.6654 8.79688 17.4557 8.71484 17.2734 8.55078C16.3255 7.63932 15.2318 6.92839 13.9922 6.41797C12.7526 5.88932 11.4219 5.625 10 5.625C8.57812 5.625 7.2474 5.88932 6.00781 6.41797C4.76823 6.92839 3.67448 7.63932 2.72656 8.55078ZM10 10C8.41406 10.0365 7.0651 10.5469 5.95312 11.5312C5.7526 11.6953 5.54297 11.7682 5.32422 11.75C5.08724 11.7318 4.88672 11.6315 4.72266 11.4492C4.55859 11.2669 4.48568 11.0573 4.50391 10.8203C4.52214 10.5833 4.6224 10.3828 4.80469 10.2188C5.4974 9.59896 6.28125 9.11589 7.15625 8.76953C8.04948 8.42318 8.9974 8.25 10 8.25C11.0026 8.25 11.9505 8.42318 12.8438 8.76953C13.7188 9.11589 14.5117 9.59896 15.2227 10.2188C15.4049 10.3828 15.4961 10.5833 15.4961 10.8203C15.5143 11.0573 15.4414 11.2669 15.2773 11.4492C15.1133 11.6315 14.9128 11.7318 14.6758 11.75C14.457 11.7682 14.2474 11.6953 14.0469 11.5312C12.9349 10.5469 11.5859 10.0365 10 10ZM11.75 14.375C11.7318 15.0312 11.4401 15.5326 10.875 15.8789C10.2917 16.207 9.70833 16.207 9.125 15.8789C8.5599 15.5326 8.26823 15.0312 8.25 14.375C8.26823 13.7188 8.5599 13.2174 9.125 12.8711C9.70833 12.543 10.2917 12.543 10.875 12.8711C11.4401 13.2174 11.7318 13.7188 11.75 14.375Z" fill="#27292E"/>
</svg>
