<svg xmlns="http://www.w3.org/2000/svg" xmlns:xlink="http://www.w3.org/1999/xlink"><defs>
<clipPath id="clip0_329_1391">
<rect width="24" height="24" fill="white"/>
</clipPath>

<clipPath id="clip0_329_2557">
<rect width="24" height="24" fill="white"/>
</clipPath>

<clipPath id="clip0_53_723">
<rect width="52" height="11" fill="white"/>
</clipPath>

<clipPath id="clip0_329_4632">
<rect width="24" height="24" fill="white"/>
</clipPath>

<clipPath id="clip0_329_731">
<rect width="24" height="24" fill="white"/>
</clipPath>
</defs><symbol id="afisha" viewBox="0 0 24 25"><g fill="none">
<path d="M16.2188 4.34375V4.625H20.4375C20.9062 4.64844 21.3047 4.8125 21.6328 5.11719C21.9375 5.44531 22.1016 5.84375 22.125 6.3125V15.875H22.4062C22.9219 15.9219 23.2031 16.2031 23.25 16.7188C23.2031 17.2344 22.9219 17.5156 22.4062 17.5625H12.8438V20.6562C12.7969 21.1719 12.5156 21.4531 12 21.5C11.4844 21.4531 11.2031 21.1719 11.1562 20.6562V17.5625H1.59375C1.07812 17.5156 0.796875 17.2344 0.75 16.7188C0.796875 16.2031 1.07812 15.9219 1.59375 15.875H1.875V6.3125C1.89844 5.84375 2.0625 5.44531 2.36719 5.11719C2.69531 4.8125 3.09375 4.64844 3.5625 4.625H7.78125V4.34375C7.82812 3.82812 8.10938 3.54688 8.625 3.5C9.14062 3.54688 9.42188 3.82812 9.46875 4.34375V4.625H14.5312V4.34375C14.5781 3.82812 14.8594 3.54688 15.375 3.5C15.8906 3.54688 16.1719 3.82812 16.2188 4.34375ZM20.4375 15.875V6.3125H16.2188V8H16.5C17.0156 8.04688 17.2969 8.32812 17.3438 8.84375C17.2969 9.35938 17.0156 9.64062 16.5 9.6875H14.25C13.7344 9.64062 13.4531 9.35938 13.4062 8.84375C13.4531 8.32812 13.7344 8.04688 14.25 8H14.5312V6.3125H9.46875V8H9.75C10.2656 8.04688 10.5469 8.32812 10.5938 8.84375C10.5469 9.35938 10.2656 9.64062 9.75 9.6875H7.5C6.98438 9.64062 6.70312 9.35938 6.65625 8.84375C6.70312 8.32812 6.98438 8.04688 7.5 8H7.78125V6.3125H3.5625V15.875H20.4375Z" fill="#27292E"/>
</g></symbol><symbol id="animals" viewBox="0 0 20 20"><g fill="none">
<path d="M10.8761 8.25H11.3409C11.6508 8.77865 12.0701 9.19792 12.5987 9.50781C13.1274 9.83594 13.7198 10 14.3761 10C14.686 10 14.9776 9.96354 15.2511 9.89062V16.125C15.2511 16.3802 15.1691 16.5898 15.005 16.7539C14.8409 16.918 14.6313 17 14.3761 17C14.1209 17 13.9112 16.918 13.7472 16.7539C13.5831 16.5898 13.5011 16.3802 13.5011 16.125V12.2695L9.78234 15.25H11.3136C11.5688 15.25 11.7784 15.332 11.9425 15.4961C12.1066 15.6602 12.1886 15.8698 12.1886 16.125C12.1886 16.3802 12.1066 16.5898 11.9425 16.7539C11.7784 16.918 11.5688 17 11.3136 17H7.37609C6.62869 16.9818 6.0089 16.7266 5.51671 16.2344C5.02452 15.7422 4.76931 15.1224 4.75109 14.375V8.27734C4.71463 7.78516 4.45942 7.49349 3.98546 7.40234L3.76671 7.375C3.52973 7.33854 3.33832 7.22917 3.19249 7.04688C3.04666 6.86458 2.98286 6.64583 3.00109 6.39062C3.03754 6.15365 3.14692 5.96224 3.32921 5.81641C3.5115 5.67057 3.73025 5.60677 3.98546 5.625L4.20421 5.65234C4.87869 5.76172 5.42556 6.05339 5.84484 6.52734C6.26411 7.0013 6.48286 7.58464 6.50109 8.27734V10.6016C6.97504 9.89062 7.59484 9.32552 8.36046 8.90625C9.10786 8.48698 9.9464 8.26823 10.8761 8.25ZM15.2511 8.98828C14.9776 9.07943 14.686 9.125 14.3761 9.125C13.574 9.10677 12.9178 8.8151 12.4073 8.25C12.3162 8.14062 12.2342 8.02214 12.1612 7.89453C11.8878 7.47526 11.7511 7.01042 11.7511 6.5V3.30078C11.7693 3.11849 11.8696 3.01823 12.0519 3C12.143 3 12.2159 3.03646 12.2706 3.10938L12.6261 3.57422L13.3644 4.58594L13.5011 4.75H15.2511L15.3878 4.58594L16.1261 3.57422L16.4816 3.10938C16.5362 3.03646 16.6092 3 16.7003 3C16.8826 3.01823 16.9829 3.11849 17.0011 3.30078V6.5C17.0011 6.97396 16.8826 7.41146 16.6456 7.8125C16.3357 8.35938 15.8709 8.7513 15.2511 8.98828ZM13.9386 6.5C13.9204 6.22656 13.7745 6.08073 13.5011 6.0625C13.2276 6.08073 13.0818 6.22656 13.0636 6.5C13.0818 6.77344 13.2276 6.91927 13.5011 6.9375C13.7745 6.91927 13.9204 6.77344 13.9386 6.5ZM15.2511 6.9375C15.5245 6.91927 15.6704 6.77344 15.6886 6.5C15.6704 6.22656 15.5245 6.08073 15.2511 6.0625C14.9776 6.08073 14.8318 6.22656 14.8136 6.5C14.8318 6.77344 14.9776 6.91927 15.2511 6.9375Z" fill="#27292E"/>
</g></symbol><symbol id="arrow-about" viewBox="0 0 24 24"><g fill="none">
<path d="M8.04058 15.1113C7.80627 15.3456 7.80627 15.7255 8.04058 15.9598C8.27489 16.1941 8.65479 16.1941 8.88911 15.9598L8.04058 15.1113ZM16.1359 8.46445C16.1359 8.13308 15.8673 7.86445 15.5359 7.86445L10.1359 7.86445C9.80454 7.86445 9.53591 8.13308 9.53591 8.46445C9.53591 8.79583 9.80454 9.06445 10.1359 9.06445H14.9359V13.8645C14.9359 14.1958 15.2045 14.4645 15.5359 14.4645C15.8673 14.4645 16.1359 14.1958 16.1359 13.8645L16.1359 8.46445ZM8.88911 15.9598L15.9602 8.88872L15.1116 8.04019L8.04058 15.1113L8.88911 15.9598Z" fill="#27292E"/>
</g></symbol><symbol id="arrow-black" viewBox="0 0 40 40"><g fill="none">
<rect width="40" height="40" rx="20" fill="#D0EB81"/>
<path d="M16.0402 23.1113C15.8059 23.3456 15.8059 23.7255 16.0402 23.9598C16.2745 24.1941 16.6544 24.1941 16.8887 23.9598L16.0402 23.1113ZM24.1355 16.4645C24.1355 16.1331 23.8669 15.8645 23.5355 15.8645L18.1355 15.8645C17.8042 15.8645 17.5355 16.1331 17.5355 16.4645C17.5355 16.7958 17.8042 17.0645 18.1355 17.0645H22.9355V21.8645C22.9355 22.1958 23.2042 22.4645 23.5355 22.4645C23.8669 22.4645 24.1355 22.1958 24.1355 21.8645L24.1355 16.4645ZM16.8887 23.9598L23.9598 16.8887L23.1113 16.0402L16.0402 23.1113L16.8887 23.9598Z" fill="#27292E"/>
</g></symbol><symbol id="arrow-more" viewBox="0 0 24 24"><g fill="none">
<path d="M18.5 11H14C13.5417 10.9583 13.2917 10.7083 13.25 10.25C13.2917 9.79167 13.5417 9.54167 14 9.5H16.8438L15.9688 8.5V8.46875C15.4688 7.86458 14.8542 7.38542 14.125 7.03125C13.3958 6.67708 12.6042 6.5 11.75 6.5C10.1875 6.54167 8.89583 7.08333 7.875 8.125C6.83333 9.14583 6.29167 10.4375 6.25 12C6.29167 13.5625 6.83333 14.8542 7.875 15.875C8.89583 16.9167 10.1875 17.4583 11.75 17.5C13.0208 17.4792 14.125 17.1146 15.0625 16.4062C15.4375 16.1562 15.7812 16.2083 16.0938 16.5625C16.3438 16.9375 16.2917 17.2812 15.9375 17.5938C14.75 18.5104 13.3542 18.9792 11.75 19C10.4375 18.9792 9.26042 18.6562 8.21875 18.0312C7.15625 17.4271 6.32292 16.5938 5.71875 15.5312C5.09375 14.4896 4.77083 13.3125 4.75 12C4.77083 10.6875 5.09375 9.51042 5.71875 8.46875C6.32292 7.40625 7.15625 6.57292 8.21875 5.96875C9.26042 5.34375 10.4375 5.02083 11.75 5C12.8333 5 13.8438 5.22917 14.7812 5.6875C15.6979 6.125 16.4792 6.73958 17.125 7.53125L17.75 8.25V5.75C17.7917 5.29167 18.0417 5.04167 18.5 5C18.9583 5.04167 19.2083 5.29167 19.25 5.75V10.25C19.2083 10.7083 18.9583 10.9583 18.5 11Z" fill="#27292E"/>
</g></symbol><symbol id="arrow-nav" viewBox="0 0 6 9"><g fill="none">
<path fill-rule="evenodd" clip-rule="evenodd" d="M3.99411 8.74272L0.17573 4.92434C-0.0585841 4.69003 -0.0585841 4.31013 0.17573 4.07582L3.99411 0.25744C4.22842 0.0231248 4.60832 0.0231247 4.84263 0.25744C5.07695 0.491755 5.07695 0.871653 4.84264 1.10597L1.94175 4.00686C1.50919 4.50012 1.94175 4.00686 1.50919 4.50012C1.94175 4.9933 1.50919 4.50012 1.94175 4.9933L4.84264 7.89419C5.07695 8.12851 5.07695 8.50841 4.84264 8.74272C4.60832 8.97704 4.22842 8.97704 3.99411 8.74272Z" fill="#27292E"/>
</g></symbol><symbol id="arrow-total" viewBox="0 0 9 10"><g fill="none">
<path d="M0.575736 8.11126C0.341421 8.34557 0.341421 8.72547 0.575736 8.95979C0.810051 9.1941 1.18995 9.1941 1.42426 8.95979L0.575736 8.11126ZM8.67107 1.46445C8.67107 1.13308 8.40244 0.864455 8.07107 0.864454L2.67107 0.864454C2.3397 0.864455 2.07107 1.13308 2.07107 1.46445C2.07107 1.79583 2.3397 2.06445 2.67107 2.06445H7.47107V6.86445C7.47107 7.19583 7.7397 7.46445 8.07107 7.46445C8.40244 7.46445 8.67107 7.19583 8.67107 6.86445L8.67107 1.46445ZM1.42426 8.95979L8.49533 1.88872L7.6468 1.04019L0.575736 8.11126L1.42426 8.95979Z" fill="currentColor"/>
</g></symbol><symbol id="arrow-turn-down" viewBox="0 0 20 20"><g fill="none">
<path d="M13.5469 5.3125C13.9479 5.27604 14.1667 5.05729 14.2031 4.65625C14.1667 4.25521 13.9479 4.03646 13.5469 4H11.7031C11.0286 4.01823 10.4635 4.25521 10.0078 4.71094C9.55208 5.16667 9.3151 5.73177 9.29688 6.40625V13.7578L6.91797 11.3789C6.60807 11.1237 6.29818 11.1237 5.98828 11.3789C5.73307 11.6888 5.73307 11.9987 5.98828 12.3086L9.48828 15.8086C9.79818 16.0638 10.1081 16.0638 10.418 15.8086L13.918 12.3086C14.1732 11.9987 14.1732 11.6888 13.918 11.3789C13.6081 11.1237 13.2982 11.1237 12.9883 11.3789L10.6094 13.7578V6.40625C10.6094 6.09635 10.7188 5.84115 10.9375 5.64062C11.138 5.42188 11.3932 5.3125 11.7031 5.3125H13.5469Z" fill="#939599"/>
</g></symbol><symbol id="arrow-white" viewBox="0 0 40 40"><g fill="none">
<rect width="40" height="40" rx="20" fill="currentColor"/>
<path d="M16.0402 23.1114C15.8059 23.3457 15.8059 23.7256 16.0402 23.9599C16.2745 24.1942 16.6544 24.1942 16.8887 23.9599L16.0402 23.1114ZM24.1355 16.4646C24.1355 16.1332 23.8669 15.8646 23.5355 15.8646L18.1355 15.8646C17.8042 15.8646 17.5355 16.1332 17.5355 16.4646C17.5355 16.7959 17.8042 17.0646 18.1355 17.0646H22.9355V21.8646C22.9355 22.1959 23.2042 22.4646 23.5355 22.4646C23.8669 22.4646 24.1355 22.1959 24.1355 21.8646L24.1355 16.4646ZM16.8887 23.9599L23.9598 16.8888L23.1113 16.0403L16.0402 23.1114L16.8887 23.9599Z" fill="white"/>
</g></symbol><symbol id="bag" viewBox="0 0 24 25"><g fill="none">
<path d="M10.875 5.1875C10.7109 5.21094 10.6172 5.30469 10.5938 5.46875V6.3125H13.4062V5.46875C13.3828 5.30469 13.2891 5.21094 13.125 5.1875H10.875ZM8.90625 5.46875C8.92969 4.90625 9.11719 4.4375 9.46875 4.0625C9.84375 3.71094 10.3125 3.52344 10.875 3.5H13.125C13.6875 3.52344 14.1562 3.71094 14.5312 4.0625C14.8828 4.4375 15.0703 4.90625 15.0938 5.46875V6.3125H15.375C16.6406 6.33594 17.707 6.76953 18.5742 7.61328C19.418 8.48047 19.8516 9.54688 19.875 10.8125V19.25C19.8516 19.8828 19.6289 20.4102 19.207 20.832C18.7852 21.2539 18.2578 21.4766 17.625 21.5H6.375C5.74219 21.4766 5.21484 21.2539 4.79297 20.832C4.37109 20.4102 4.14844 19.8828 4.125 19.25V10.8125C4.14844 9.54688 4.58203 8.48047 5.42578 7.61328C6.29297 6.76953 7.35938 6.33594 8.625 6.3125H8.90625V5.46875ZM17.0625 19.8125H17.625C17.9766 19.7891 18.1641 19.6016 18.1875 19.25V10.8125C18.1641 10.0156 17.8945 9.34766 17.3789 8.80859C16.8398 8.29297 16.1719 8.02344 15.375 8H8.625C7.82812 8.02344 7.16016 8.29297 6.62109 8.80859C6.10547 9.34766 5.83594 10.0156 5.8125 10.8125V19.25C5.83594 19.6016 6.02344 19.7891 6.375 19.8125H6.9375V14.4688C6.96094 13.7422 7.20703 13.1445 7.67578 12.6758C8.14453 12.207 8.74219 11.9609 9.46875 11.9375H14.5312C15.2578 11.9609 15.8555 12.207 16.3242 12.6758C16.793 13.1445 17.0391 13.7422 17.0625 14.4688V19.8125ZM8.625 19.8125H15.375V17.5625H8.625V19.8125ZM9.1875 9.125H14.8125C15.3281 9.17188 15.6094 9.45312 15.6562 9.96875C15.6094 10.4844 15.3281 10.7656 14.8125 10.8125H9.1875C8.67188 10.7656 8.39062 10.4844 8.34375 9.96875C8.39062 9.45312 8.67188 9.17188 9.1875 9.125ZM15.375 15.875V14.4688C15.3281 13.9531 15.0469 13.6719 14.5312 13.625H9.46875C8.95312 13.6719 8.67188 13.9531 8.625 14.4688V15.875H15.375Z" fill="#27292E"/>
</g></symbol><symbol id="baggage" viewBox="0 0 20 20"><g fill="none">
<path d="M2.125 3H2.5625C3.18229 3.01823 3.70182 3.22786 4.12109 3.62891C4.52214 4.04818 4.73177 4.56771 4.75 5.1875V13.0625C4.76823 13.3359 4.91406 13.4818 5.1875 13.5H17.875C18.1302 13.5 18.3398 13.582 18.5039 13.7461C18.668 13.9102 18.75 14.1198 18.75 14.375C18.75 14.6302 18.668 14.8398 18.5039 15.0039C18.3398 15.168 18.1302 15.25 17.875 15.25H16.043C16.0977 15.3958 16.125 15.5417 16.125 15.6875C16.1068 16.0521 15.9792 16.362 15.7422 16.6172C15.487 16.8542 15.1771 16.9818 14.8125 17C14.4479 16.9818 14.138 16.8542 13.8828 16.6172C13.6458 16.362 13.5182 16.0521 13.5 15.6875C13.5 15.5417 13.5273 15.3958 13.582 15.25H8.16797C8.22266 15.3958 8.25 15.5417 8.25 15.6875C8.23177 16.0521 8.10417 16.362 7.86719 16.6172C7.61198 16.8542 7.30208 16.9818 6.9375 17C6.57292 16.9818 6.26302 16.8542 6.00781 16.6172C5.77083 16.362 5.64323 16.0521 5.625 15.6875C5.625 15.5417 5.65234 15.3958 5.70703 15.25H5.1875C4.56771 15.2318 4.04818 15.0221 3.62891 14.6211C3.22786 14.2018 3.01823 13.6823 3 13.0625V5.1875C2.98177 4.91406 2.83594 4.76823 2.5625 4.75H2.125C1.86979 4.75 1.66016 4.66797 1.49609 4.50391C1.33203 4.33984 1.25 4.13021 1.25 3.875C1.25 3.61979 1.33203 3.41016 1.49609 3.24609C1.66016 3.08203 1.86979 3 2.125 3ZM7.375 3.875H10.875C11.1302 3.875 11.3398 3.95703 11.5039 4.12109C11.668 4.28516 11.75 4.49479 11.75 4.75V10.875C11.75 11.1302 11.668 11.3398 11.5039 11.5039C11.3398 11.668 11.1302 11.75 10.875 11.75H7.375C7.11979 11.75 6.91016 11.668 6.74609 11.5039C6.58203 11.3398 6.5 11.1302 6.5 10.875V4.75C6.5 4.49479 6.58203 4.28516 6.74609 4.12109C6.91016 3.95703 7.11979 3.875 7.375 3.875ZM12.625 4.75C12.625 4.49479 12.707 4.28516 12.8711 4.12109C13.0352 3.95703 13.2448 3.875 13.5 3.875H15.25C15.5052 3.875 15.7148 3.95703 15.8789 4.12109C16.043 4.28516 16.125 4.49479 16.125 4.75V6.5C16.125 6.75521 16.043 6.96484 15.8789 7.12891C15.7148 7.29297 15.5052 7.375 15.25 7.375H13.5C13.2448 7.375 13.0352 7.29297 12.8711 7.12891C12.707 6.96484 12.625 6.75521 12.625 6.5V4.75ZM13.5 8.25H17C17.2552 8.25 17.4648 8.33203 17.6289 8.49609C17.793 8.66016 17.875 8.86979 17.875 9.125V10.875C17.875 11.1302 17.793 11.3398 17.6289 11.5039C17.4648 11.668 17.2552 11.75 17 11.75H13.5C13.2448 11.75 13.0352 11.668 12.8711 11.5039C12.707 11.3398 12.625 11.1302 12.625 10.875V9.125C12.625 8.86979 12.707 8.66016 12.8711 8.49609C13.0352 8.33203 13.2448 8.25 13.5 8.25Z" fill="#27292E"/>
</g></symbol><symbol id="check" viewBox="0 0 12 8"><g fill="none">
<path d="M11.2654 0.346314C11.5782 0.700876 11.5782 1.04501 11.2654 1.37872L5.00615 7.63793C4.67244 7.95078 4.32831 7.95078 3.97374 7.63793L0.718994 4.38318C0.427002 4.04948 0.427002 3.70535 0.718994 3.35078C1.07356 3.05879 1.42812 3.05879 1.78268 3.35078L4.50559 6.07369L10.233 0.346314C10.5875 0.0543212 10.9317 0.0543212 11.2654 0.346314Z" fill="#5C73E6"/>
</g></symbol><symbol id="close" viewBox="0 0 24 24"><g fill="none">
<path d="M17.7375 7.5375L13.275 12L17.7375 16.4625C18.0875 16.8875 18.0875 17.3125 17.7375 17.7375C17.3125 18.0875 16.8875 18.0875 16.4625 17.7375L12 13.275L7.5375 17.7375C7.1125 18.0875 6.6875 18.0875 6.2625 17.7375C5.9125 17.3125 5.9125 16.8875 6.2625 16.4625L10.725 12L6.2625 7.5375C5.9125 7.1125 5.9125 6.6875 6.2625 6.2625C6.6875 5.9125 7.1125 5.9125 7.5375 6.2625L12 10.725L16.4625 6.2625C16.8875 5.9125 17.3125 5.9125 17.7375 6.2625C18.0875 6.6875 18.0875 7.1125 17.7375 7.5375Z" fill="#27292E"/>
</g></symbol><symbol id="comment-acc" viewBox="0 0 24 24"><g fill="none">
<path d="M20 11.5C19.9792 12.7083 19.6146 13.8021 18.9062 14.7812C18.1979 15.7604 17.2396 16.5417 16.0312 17.125C14.8438 17.6875 13.5 17.9792 12 18C10.8333 18 9.75 17.8125 8.75 17.4375C8.35417 17.7292 7.79167 18.0521 7.0625 18.4062C6.27083 18.7604 5.41667 18.9583 4.5 19C4.29167 19 4.13542 18.8958 4.03125 18.6875C3.96875 18.4792 4.01042 18.3021 4.15625 18.1562V18.125C4.15625 18.125 4.16667 18.1146 4.1875 18.0938C4.22917 18.0521 4.28125 17.9896 4.34375 17.9062C4.48958 17.7604 4.64583 17.5417 4.8125 17.25C5.16667 16.7083 5.39583 16.0521 5.5 15.2812C4.52083 14.1979 4.02083 12.9375 4 11.5C4.02083 10.2917 4.38542 9.19792 5.09375 8.21875C5.80208 7.23958 6.76042 6.45833 7.96875 5.875C9.15625 5.3125 10.5 5.02083 12 5C13.5 5.02083 14.8438 5.3125 16.0312 5.875C17.2396 6.45833 18.1979 7.23958 18.9062 8.21875C19.6146 9.19792 19.9792 10.2917 20 11.5Z" fill="currentColor"/>
</g></symbol><symbol id="comment" viewBox="0 0 20 20"><g fill="none">
<path d="M17 9.5625C16.9818 10.6198 16.6628 11.5768 16.043 12.4336C15.4232 13.2904 14.5846 13.974 13.5273 14.4844C12.4883 14.9766 11.3125 15.2318 10 15.25C8.97917 15.25 8.03125 15.0859 7.15625 14.7578C6.8099 15.013 6.31771 15.2956 5.67969 15.6055C4.98698 15.9154 4.23958 16.0885 3.4375 16.125C3.25521 16.125 3.11849 16.0339 3.02734 15.8516C2.97266 15.6693 3.00911 15.5143 3.13672 15.3867V15.3594C3.13672 15.3594 3.14583 15.3503 3.16406 15.332C3.20052 15.2956 3.24609 15.2409 3.30078 15.168C3.42839 15.0404 3.5651 14.849 3.71094 14.5938C4.02083 14.1198 4.22135 13.5456 4.3125 12.8711C3.45573 11.9232 3.01823 10.8203 3 9.5625C3.01823 8.50521 3.33724 7.54818 3.95703 6.69141C4.57682 5.83464 5.41536 5.15104 6.47266 4.64062C7.51172 4.14844 8.6875 3.89323 10 3.875C11.3125 3.89323 12.4883 4.14844 13.5273 4.64062C14.5846 5.15104 15.4232 5.83464 16.043 6.69141C16.6628 7.54818 16.9818 8.50521 17 9.5625Z" fill="#939599"/>
</g></symbol><symbol id="copy-about" viewBox="0 0 24 24"><g fill="none">
<path d="M11.125 5H17.25C17.7422 5.01823 18.1523 5.19141 18.4805 5.51953C18.8086 5.84766 18.9818 6.25781 19 6.75V12.875C18.9818 13.3672 18.8086 13.7773 18.4805 14.1055C18.1523 14.4336 17.7422 14.6068 17.25 14.625H11.125C10.6328 14.6068 10.2227 14.4336 9.89453 14.1055C9.56641 13.7773 9.39323 13.3672 9.375 12.875V6.75C9.39323 6.25781 9.56641 5.84766 9.89453 5.51953C10.2227 5.19141 10.6328 5.01823 11.125 5ZM6.75 9.375H8.5V10.6875H6.75C6.47656 10.7057 6.33073 10.8516 6.3125 11.125V17.25C6.33073 17.5234 6.47656 17.6693 6.75 17.6875H12.875C13.1484 17.6693 13.2943 17.5234 13.3125 17.25V15.5H14.625V17.25C14.6068 17.7422 14.4336 18.1523 14.1055 18.4805C13.7773 18.8086 13.3672 18.9818 12.875 19H6.75C6.25781 18.9818 5.84766 18.8086 5.51953 18.4805C5.19141 18.1523 5.01823 17.7422 5 17.25V11.125C5.01823 10.6328 5.19141 10.2227 5.51953 9.89453C5.84766 9.56641 6.25781 9.39323 6.75 9.375Z" fill="#5C73E6"/>
</g></symbol><symbol id="delete" viewBox="0 0 24 24"><g fill="none">
<path d="M10.5312 5.5C10.4479 5.5 10.3854 5.54167 10.3438 5.625L9.75 6.5H14.2812L13.6875 5.625C13.625 5.54167 13.5521 5.5 13.4688 5.5H10.5312ZM16.0625 6.5H16.5H18H18.25C18.7083 6.54167 18.9583 6.79167 19 7.25C18.9583 7.70833 18.7083 7.95833 18.25 8H17.875L17.125 18.1562C17.0833 18.6771 16.875 19.1146 16.5 19.4688C16.125 19.8021 15.6771 19.9792 15.1562 20H8.84375C8.32292 19.9792 7.875 19.8021 7.5 19.4688C7.125 19.1146 6.91667 18.6771 6.875 18.1562L6.125 8H5.75C5.29167 7.95833 5.04167 7.70833 5 7.25C5.04167 6.79167 5.29167 6.54167 5.75 6.5H6H7.5H7.9375L9.09375 4.78125C9.44792 4.28125 9.92708 4.02083 10.5312 4H13.4688C14.0729 4.02083 14.5625 4.28125 14.9375 4.78125L16.0625 6.5ZM16.375 8H7.625L8.34375 18.0312C8.40625 18.3229 8.57292 18.4792 8.84375 18.5H15.1562C15.4271 18.4792 15.5938 18.3229 15.6562 18.0312L16.375 8Z" fill="currentColor"/>
</g></symbol><symbol id="dzen" viewBox="0 0 32 32"><g fill="none">
<path fill-rule="evenodd" clip-rule="evenodd" d="M3.73995 6.66602C2.66995 8.52202 2.66995 11.014 2.66995 15.999C2.66995 20.983 2.66995 23.476 3.74195 25.332C4.44406 26.5481 5.45389 27.5579 6.66995 28.26C8.52595 29.332 11.0189 29.332 16.0029 29.332C20.9879 29.332 23.4799 29.332 25.3369 28.26C26.553 27.5579 27.5629 26.5481 28.2649 25.332C29.3369 23.476 29.3369 20.983 29.3369 15.999C29.3369 11.014 29.3369 8.52202 28.2649 6.66602C27.563 5.4496 26.5531 4.43941 25.3369 3.73702C23.4799 2.66602 20.9869 2.66602 16.0029 2.66602C11.0189 2.66602 8.52595 2.66602 6.66995 3.73702C5.45303 4.43913 4.44248 5.44934 3.73995 6.66602ZM16.0029 2.66602L15.5209 9.58702C15.4139 11.1244 14.7548 12.5714 13.6651 13.6611C12.5753 14.7509 11.1284 15.41 9.59095 15.517L2.66895 16L9.59095 16.481C11.1284 16.588 12.5753 17.2471 13.6651 18.3369C14.7548 19.4266 15.4139 20.8736 15.5209 22.411L16.0019 29.333L16.4839 22.411C16.5909 20.8736 17.2501 19.4266 18.3398 18.3369C19.4296 17.2471 20.8765 16.588 22.4139 16.481L29.3359 16L22.4139 15.518C20.8765 15.411 19.4296 14.7519 18.3398 13.6621C17.2501 12.5724 16.5909 11.1254 16.4839 9.58802L16.0019 2.66702L16.0029 2.66602Z" fill="currentColor"/>
</g></symbol><symbol id="eat" viewBox="0 0 24 24"><g fill="none">
<path d="M7.125 4.84473L6.625 9.28223V9.75098C6.625 10.1051 6.75 10.3968 7 10.626C7.22917 10.876 7.52083 11.001 7.875 11.001H9.875C10.2292 11.001 10.5208 10.876 10.75 10.626C11 10.3968 11.125 10.1051 11.125 9.75098V9.28223L10.625 4.84473C10.625 4.38639 10.8438 4.10514 11.2812 4.00098C11.7396 4.00098 12.0208 4.21973 12.125 4.65723L12.625 9.15723V9.75098C12.6042 10.5218 12.3333 11.1676 11.8125 11.6885C11.2917 12.2093 10.6458 12.4801 9.875 12.501H9.625V19.251C9.58333 19.7093 9.33333 19.9593 8.875 20.001C8.41667 19.9593 8.16667 19.7093 8.125 19.251V12.501H7.875C7.10417 12.4801 6.45833 12.2093 5.9375 11.6885C5.41667 11.1676 5.14583 10.5218 5.125 9.75098V9.15723L5.625 4.65723C5.72917 4.21973 6.01042 4.00098 6.46875 4.00098C6.90625 4.10514 7.125 4.38639 7.125 4.84473ZM9.625 4.75098V9.25098C9.58333 9.70931 9.33333 9.95931 8.875 10.001C8.41667 9.95931 8.16667 9.70931 8.125 9.25098V4.75098C8.16667 4.29264 8.41667 4.04264 8.875 4.00098C9.33333 4.04264 9.58333 4.29264 9.625 4.75098ZM15.375 9.50098V13.001C15.3958 13.3135 15.5625 13.4801 15.875 13.501H17.375V5.71973C17.1458 5.82389 16.9062 5.98014 16.6562 6.18848C16.3438 6.45931 16.0521 6.85514 15.7812 7.37598C15.5312 7.89681 15.3958 8.60514 15.375 9.50098ZM17.375 15.001H15.875C15.3125 14.9801 14.8438 14.7822 14.4688 14.4072C14.0938 14.0322 13.8958 13.5635 13.875 13.001V9.50098C13.9167 8.02181 14.2292 6.87598 14.8125 6.06348C15.375 5.27181 15.9792 4.73014 16.625 4.43848C17.25 4.12598 17.6667 3.98014 17.875 4.00098C18.1667 4.00098 18.4062 4.09473 18.5938 4.28223C18.7812 4.46973 18.875 4.70931 18.875 5.00098V19.251C18.8333 19.7093 18.5833 19.9593 18.125 20.001C17.6667 19.9593 17.4167 19.7093 17.375 19.251V15.001Z" fill="#27292E"/>
</g></symbol><symbol id="edit" viewBox="0 0 24 24"><g fill="none">
<path d="M5.13728 15.2634C5.28311 14.8051 5.52269 14.4196 5.85603 14.1071L15.356 4.5759C15.7727 4.2009 16.2414 4.0134 16.7623 4.0134C17.3039 4.0134 17.7727 4.2009 18.1685 4.5759L19.4185 5.8259C19.5019 5.93006 19.5852 6.03423 19.6685 6.1384C19.9185 6.53423 20.0227 6.96131 19.981 7.41965C19.9394 7.87798 19.7519 8.28423 19.4185 8.6384L9.91853 18.1384C9.87686 18.1801 9.83519 18.2217 9.79353 18.2634C9.48103 18.5342 9.12686 18.7321 8.73103 18.8571L6.29353 19.5759L4.98103 19.9509C4.68936 20.0342 4.43936 19.9717 4.23103 19.7634C4.02269 19.5551 3.96019 19.3051 4.04353 19.0134L4.41853 17.7009L5.13728 15.2634ZM6.57478 15.6696L6.38728 16.4196L5.85603 18.1384L8.32478 17.4196C8.51228 17.3571 8.68936 17.253 8.85603 17.1071L15.981 9.9509L14.0435 8.0134L6.91853 15.1384C6.89769 15.1592 6.88728 15.1696 6.88728 15.1696C6.86644 15.1905 6.85603 15.2009 6.85603 15.2009C6.73103 15.3467 6.63728 15.503 6.57478 15.6696Z" fill="currentColor"/>
</g></symbol><symbol id="eye" viewBox="0 0 20 20"><g fill="none">
<path d="M9.98633 3.875C11.0983 3.89323 12.0918 4.11198 12.9668 4.53125C13.8418 4.95052 14.6074 5.47005 15.2637 6.08984C15.9017 6.69141 16.4303 7.3112 16.8496 7.94922C17.2689 8.58724 17.5879 9.16146 17.8066 9.67188C17.8978 9.89062 17.8978 10.1094 17.8066 10.3281C17.5879 10.8385 17.2689 11.4128 16.8496 12.0508C16.4303 12.6888 15.9017 13.3086 15.2637 13.9102C14.6074 14.5299 13.8418 15.0495 12.9668 15.4688C12.0918 15.888 11.0983 16.1068 9.98633 16.125C8.87435 16.1068 7.88086 15.888 7.00586 15.4688C6.13086 15.0495 5.36523 14.5299 4.70898 13.9102C4.07096 13.3086 3.54232 12.6888 3.12305 12.0508C2.70378 11.4128 2.39388 10.8385 2.19336 10.3281C2.10221 10.1094 2.10221 9.89062 2.19336 9.67188C2.39388 9.16146 2.70378 8.58724 3.12305 7.94922C3.54232 7.3112 4.07096 6.69141 4.70898 6.08984C5.36523 5.47005 6.13086 4.95052 7.00586 4.53125C7.88086 4.11198 8.87435 3.89323 9.98633 3.875ZM6.04883 10C6.04883 10.7109 6.22201 11.3672 6.56836 11.9688C6.91471 12.5703 7.39779 13.0534 8.01758 13.418C8.63737 13.7643 9.29362 13.9375 9.98633 13.9375C10.679 13.9375 11.3353 13.7643 11.9551 13.418C12.5749 13.0534 13.0579 12.5703 13.4043 11.9688C13.7507 11.3672 13.9238 10.7109 13.9238 10C13.9238 9.28906 13.7507 8.63281 13.4043 8.03125C13.0579 7.42969 12.5749 6.94661 11.9551 6.58203C11.3353 6.23568 10.679 6.0625 9.98633 6.0625C9.29362 6.0625 8.63737 6.23568 8.01758 6.58203C7.39779 6.94661 6.91471 7.42969 6.56836 8.03125C6.22201 8.63281 6.04883 9.28906 6.04883 10ZM9.98633 8.25C9.98633 8.04948 9.95898 7.86719 9.9043 7.70312C9.86784 7.52083 9.93164 7.41146 10.0957 7.375C10.6608 7.41146 11.1712 7.60286 11.627 7.94922C12.0645 8.29557 12.3652 8.7513 12.5293 9.31641C12.6934 10.0456 12.6022 10.7109 12.2559 11.3125C11.9095 11.9141 11.3809 12.3242 10.6699 12.543C9.94076 12.707 9.27539 12.6159 8.67383 12.2695C8.07227 11.9232 7.66211 11.3945 7.44336 10.6836C7.38867 10.4831 7.36133 10.2917 7.36133 10.1094C7.39779 9.94531 7.50716 9.88151 7.68945 9.91797C7.85352 9.97266 8.03581 10 8.23633 10C8.72852 9.98177 9.13867 9.80859 9.4668 9.48047C9.79492 9.15234 9.9681 8.74219 9.98633 8.25Z" fill="#939599"/>
</g></symbol><symbol id="heart-acc" viewBox="0 0 24 24"><g fill="none">
<path d="M5.5 13.2135C4.52083 12.2968 4.02083 11.1614 4 9.80721V9.61971C4.02083 8.49471 4.375 7.53638 5.0625 6.74471C5.75 5.93221 6.63542 5.42179 7.71875 5.21346C8.44792 5.10929 9.15625 5.16138 9.84375 5.36971C10.5104 5.57804 11.1042 5.94263 11.625 6.46346L12 6.83846L12.375 6.46346C12.8958 5.94263 13.4896 5.57804 14.1562 5.36971C14.8438 5.16138 15.5521 5.10929 16.2812 5.21346C17.3646 5.42179 18.25 5.93221 18.9375 6.74471C19.625 7.53638 19.9792 8.49471 20 9.61971V9.80721C19.9792 11.1614 19.4792 12.2968 18.5 13.2135L12.875 18.4947C12.625 18.7239 12.3333 18.8385 12 18.8385C11.6667 18.8385 11.375 18.7239 11.125 18.4947L5.5 13.2135Z" fill="currentColor"/>
</g></symbol><symbol id="heart" viewBox="0 0 24 24"><g fill="">
<path d="M11.3202 5.68638C11.704 6.04211 12.2971 6.04184 12.6805 5.68575C13.4299 4.98978 14.4688 4.55882 15.6818 4.55882C18.0119 4.55882 20 6.5765 20 9.17154C20 10.1494 19.6341 11.2101 18.993 12.3034C18.3554 13.3909 17.4821 14.4485 16.5583 15.4014C14.7101 17.3079 12.7534 18.7008 12.3631 18.9713L12.3622 18.9719L12 19.2235L11.6378 18.9719L11.6369 18.9713C11.2466 18.7008 9.28994 17.3079 7.44175 15.4014C6.51793 14.4485 5.64455 13.3909 5.00695 12.3034C4.36589 11.2101 4 10.1494 4 9.17154C4 6.57794 5.98826 4.55882 8.31818 4.55882C9.5304 4.55882 10.5699 4.99093 11.3202 5.68638Z" stroke="" stroke-width="2" stroke-linejoin="round" fill=""/>
</g></symbol><symbol id="href-about" viewBox="0 0 32 32"><g fill="none">
<path fill-rule="evenodd" clip-rule="evenodd" d="M2.66992 15.999C2.66992 11.014 2.66992 8.52202 3.73992 6.66602C4.44245 5.44934 5.45301 4.43913 6.66992 3.73702C8.52592 2.66602 11.0189 2.66602 16.0029 2.66602C20.9869 2.66602 23.4799 2.66602 25.3369 3.73702C26.5531 4.43941 27.5629 5.4496 28.2649 6.66602C29.3369 8.52202 29.3369 11.014 29.3369 15.999C29.3369 20.983 29.3369 23.476 28.2649 25.332C27.5628 26.5481 26.553 27.5579 25.3369 28.26C23.4799 29.332 20.9879 29.332 16.0029 29.332C11.0189 29.332 8.52592 29.332 6.66992 28.26C5.45387 27.5579 4.44404 26.5481 3.74192 25.332C2.66992 23.476 2.66992 20.983 2.66992 15.999ZM19.4305 19.3318L22.0265 16.7358C22.6755 16.0404 23 15.2446 23 14.3483C23 13.4675 22.6755 12.6795 22.0265 11.9841C21.4238 11.4124 20.7208 11.0879 19.9172 11.0106C19.1291 10.9488 18.3951 11.1574 17.7152 11.6364L17.6689 11.6596C17.4989 11.7832 17.3985 11.9455 17.3675 12.1464C17.3366 12.3318 17.383 12.5172 17.5066 12.7026C17.6302 12.8572 17.7848 12.9499 17.9702 12.9808C18.1711 13.0272 18.3565 12.9885 18.5265 12.8649L18.5728 12.8417C18.9592 12.579 19.3687 12.4631 19.8013 12.494C20.2494 12.5249 20.6435 12.7026 20.9834 13.0272C21.3389 13.4135 21.5166 13.8539 21.5166 14.3483C21.5166 14.8583 21.3389 15.2987 20.9834 15.6695L18.3642 18.2887C17.9779 18.6441 17.5375 18.8219 17.043 18.8219C16.5486 18.8219 16.1082 18.6441 15.7219 18.2887C15.3974 17.9488 15.2196 17.5547 15.1887 17.1066C15.1578 16.674 15.2737 16.2645 15.5364 15.8781L15.5596 15.8318C15.6678 15.6618 15.7064 15.4841 15.6755 15.2987C15.6446 15.0978 15.5442 14.9355 15.3742 14.8119C15.2042 14.6883 15.0265 14.6419 14.8411 14.6728C14.6402 14.7038 14.4779 14.8042 14.3543 14.9742L14.3311 15.0205C13.8521 15.7004 13.6435 16.4422 13.7053 17.2457C13.7671 18.0338 14.0916 18.7291 14.6788 19.3318C15.3742 19.9808 16.1623 20.3053 17.043 20.3053C17.9393 20.3053 18.7351 19.9808 19.4305 19.3318ZM12.5927 13.5834L9.97351 16.1795C9.3245 16.8748 9 17.6706 9 18.5669C9 19.4477 9.3245 20.2358 9.97351 20.9311C10.5762 21.5029 11.2792 21.8274 12.0828 21.9046C12.8709 21.9664 13.6126 21.7578 14.3079 21.2788L14.3311 21.2556C14.5011 21.132 14.6015 20.9698 14.6325 20.7689C14.6634 20.5834 14.6247 20.398 14.5166 20.2126C14.3775 20.0581 14.2152 19.9653 14.0298 19.9344C13.8289 19.8881 13.6435 19.9267 13.4735 20.0503L13.4272 20.0735C13.0408 20.3362 12.6313 20.4521 12.1987 20.4212C11.7506 20.3903 11.3565 20.2126 11.0166 19.8881C10.6611 19.5018 10.4834 19.0614 10.4834 18.5669C10.4834 18.057 10.6689 17.6166 11.0397 17.2457L13.6358 14.6265C14.0221 14.2711 14.4625 14.0934 14.957 14.0934C15.4514 14.0934 15.8918 14.2711 16.2781 14.6265C16.6026 14.9664 16.7804 15.3605 16.8113 15.8086C16.8422 16.2413 16.7263 16.6508 16.4636 17.0371L16.4404 17.0834C16.3322 17.2534 16.2936 17.4389 16.3245 17.6397C16.3554 17.8252 16.4558 17.9797 16.6258 18.1033C16.7958 18.2269 16.9735 18.2733 17.1589 18.2424C17.3598 18.2115 17.5221 18.111 17.6457 17.9411L17.6689 17.8947C18.1479 17.2148 18.3565 16.4731 18.2947 15.6695C18.2329 14.8815 17.9084 14.1861 17.3212 13.5834C16.6258 12.9344 15.8377 12.6099 14.957 12.6099C14.0607 12.6099 13.2726 12.9344 12.5927 13.5834Z" fill="#27292E"/>
</g></symbol><symbol id="icon-close" viewBox="0 0 24 24"><g fill="none">
<path fill-rule="evenodd" clip-rule="evenodd" d="M18.7071 5.29289C19.0976 5.68342 19.0976 6.31658 18.7071 6.70711L6.70711 18.7071C6.31658 19.0976 5.68342 19.0976 5.29289 18.7071C4.90237 18.3166 4.90237 17.6834 5.29289 17.2929L17.2929 5.29289C17.6834 4.90237 18.3166 4.90237 18.7071 5.29289Z" fill="currentColor"/>
<path fill-rule="evenodd" clip-rule="evenodd" d="M5.29289 5.29289C5.68342 4.90237 6.31658 4.90237 6.70711 5.29289L18.7071 17.2929C19.0976 17.6834 19.0976 18.3166 18.7071 18.7071C18.3166 19.0976 17.6834 19.0976 17.2929 18.7071L5.29289 6.70711C4.90237 6.31658 4.90237 5.68342 5.29289 5.29289Z" fill="currentColor"/>
</g></symbol><symbol id="konakovo" viewBox="0 0 24 24"><g fill="none">
<g clip-path="url(#clip0_329_1391)">
<path d="M16.5004 3.00023C18.4895 2.92184 20.7543 2.70667 23 1.60251C23 8.07794 22.3635 14.2635 18.2738 18.3551L18.2737 18.3551C16.5306 20.0992 14.2416 20.971 11.948 20.971C9.94028 20.971 7.93653 20.3029 6.30075 18.9698C5.90702 18.649 5.33613 18.6746 4.97278 19.0272C5.32373 18.6625 5.34718 18.0914 5.0244 17.6988C3.71391 16.1052 3.00002 14.1248 3.00002 12.029C3.00002 9.63716 3.9297 7.39264 5.62094 5.7023L5.62125 5.70199C8.15252 3.16983 11.2212 3.09058 14.6377 3.04191C15.2431 3.03392 15.8666 3.0248 16.4998 3.00025L16.5004 3.00023Z" fill="white" stroke="#27292E" stroke-width="2" stroke-linejoin="round"/>
<path d="M12.501 17.317L12.9236 16.7087L12.9238 16.7085L13.0716 16.4957L12.5021 16.1001L12.5016 16.0997L12.5007 16.0991C12.271 15.9399 11.0987 15.1053 9.99466 13.9664C9.44292 13.3973 8.93157 12.7758 8.56298 12.1472C8.19093 11.5127 8.00104 10.9334 8.00104 10.43C8.00104 9.03973 9.06148 7.99997 10.251 7.99997C10.8969 7.99997 11.4369 8.22908 11.8212 8.58535C12.205 8.94109 12.7981 8.94081 13.1815 8.58472C13.565 8.22857 14.1044 7.99997 14.751 7.99997C15.9408 7.99997 17.001 9.03892 17.001 10.43C17.001 10.9334 16.8111 11.5127 16.4391 12.1472C16.0705 12.7758 15.5592 13.3973 15.0074 13.9664C13.9034 15.1053 12.731 15.9399 12.5014 16.0991L12.5005 16.0997L12.5 16.1L11.9305 16.4957L12.0783 16.7085L12.0785 16.7087L12.501 17.317ZM12.501 17.317L13.071 16.921L12.501 7.85197C11.926 7.31897 11.141 6.99997 10.251 6.99997C8.45904 6.99997 7.00104 8.53897 7.00104 10.43C7.00104 13.412 11.426 16.571 11.931 16.921L12.501 17.317Z" stroke="#27292E" stroke-width="2" stroke-linejoin="round"/>
</g>

</g></symbol><symbol id="like-finger" viewBox="0 0 20 20"><g fill="none">
<path d="M8.14062 3.95577C7.61198 4.11983 7.22005 4.42972 6.96484 4.88545C6.70964 5.34118 6.65495 5.84248 6.80078 6.38936L6.9375 6.93623C7.02865 7.2279 7.13802 7.51957 7.26562 7.81123H4.75C4.25781 7.82946 3.84766 8.00264 3.51953 8.33077C3.19141 8.65889 3.01823 9.06905 3 9.56123C3.01823 10.0534 3.19141 10.4636 3.51953 10.7917C3.46484 10.9558 3.4375 11.1289 3.4375 11.3112C3.45573 11.9128 3.68359 12.3776 4.12109 12.7058C4.10286 12.8151 4.09375 12.9336 4.09375 13.0612C4.11198 13.6446 4.33073 14.1003 4.75 14.4284C4.76823 14.9206 4.94141 15.3217 5.26953 15.6315C5.59766 15.9597 6.00781 16.1237 6.5 16.1237H9.15234C9.77214 16.1237 10.3464 15.9506 10.875 15.6042L12.543 14.4831C12.8711 14.2279 12.9349 13.9271 12.7344 13.5808C12.4792 13.2709 12.1784 13.2071 11.832 13.3894L10.1367 14.5105C9.84505 14.711 9.51693 14.8112 9.15234 14.8112H6.5C6.22656 14.793 6.08073 14.6472 6.0625 14.3737C6.0625 14.3373 6.07161 14.3008 6.08984 14.2644C6.16276 13.8998 6.02604 13.6355 5.67969 13.4714C5.51562 13.3985 5.42448 13.2618 5.40625 13.0612C5.40625 12.9519 5.43359 12.8607 5.48828 12.7878C5.63411 12.6055 5.67057 12.3959 5.59766 12.1589C5.50651 11.9401 5.34245 11.8034 5.10547 11.7487C4.88672 11.694 4.76823 11.5482 4.75 11.3112C4.75 11.2019 4.78646 11.1016 4.85938 11.0105C5.00521 10.8464 5.05078 10.655 4.99609 10.4362C4.94141 10.2175 4.80469 10.0625 4.58594 9.97139C4.42188 9.89847 4.33073 9.76176 4.3125 9.56123C4.33073 9.2878 4.47656 9.14196 4.75 9.12373H8.41406C8.66927 9.12373 8.86068 9.00525 8.98828 8.76827C9.09766 8.53129 9.07943 8.30342 8.93359 8.08467C8.60547 7.62894 8.36849 7.12764 8.22266 6.58077L8.05859 6.03389C7.98568 5.63285 8.13151 5.35941 8.49609 5.21358C8.89714 5.14066 9.17057 5.2865 9.31641 5.65108L9.48047 6.19795C9.64453 6.76306 9.91797 7.26436 10.3008 7.70186L11.6953 9.23311C11.987 9.50655 12.2969 9.52478 12.625 9.2878C12.8984 8.9779 12.9167 8.66801 12.6797 8.35811L11.2578 6.79952C11.0208 6.52608 10.8477 6.20707 10.7383 5.84248L10.5742 5.29561C10.4102 4.76696 10.1003 4.37504 9.64453 4.11983C9.1888 3.86462 8.6875 3.80993 8.14062 3.95577ZM16.125 8.24873H14.375C14.1198 8.24873 13.9102 8.33077 13.7461 8.49483C13.582 8.65889 13.5 8.86853 13.5 9.12373V15.2487C13.5 15.5039 13.582 15.7136 13.7461 15.8776C13.9102 16.0417 14.1198 16.1237 14.375 16.1237H16.125C16.3802 16.1237 16.5898 16.0417 16.7539 15.8776C16.918 15.7136 17 15.5039 17 15.2487V9.12373C17 8.86853 16.918 8.65889 16.7539 8.49483C16.5898 8.33077 16.3802 8.24873 16.125 8.24873Z" fill="currentColor"/>
</g></symbol><symbol id="like" viewBox="0 0 20 20"><g fill="none">
<path d="M4.3125 11.0617C3.45573 10.2596 3.01823 9.26611 3 8.08122V7.91716C3.01823 6.93278 3.32812 6.09424 3.92969 5.40153C4.53125 4.69059 5.30599 4.24398 6.25391 4.06169C6.89193 3.97054 7.51172 4.01611 8.11328 4.1984C8.69661 4.3807 9.21615 4.69971 9.67188 5.15544L10 5.48356L10.3281 5.15544C10.7839 4.69971 11.3034 4.3807 11.8867 4.1984C12.4883 4.01611 13.1081 3.97054 13.7461 4.06169C14.694 4.24398 15.4688 4.69059 16.0703 5.40153C16.6719 6.09424 16.9818 6.93278 17 7.91716V8.08122C16.9818 9.26611 16.5443 10.2596 15.6875 11.0617L10.7656 15.6828C10.5469 15.8833 10.2917 15.9836 10 15.9836C9.70833 15.9836 9.45312 15.8833 9.23438 15.6828L4.3125 11.0617Z" fill="#939599"/>
</g></symbol><symbol id="link" viewBox="0 0 12 12"><g fill="none">
<path d="M7.5 0H11.25C11.4688 0 11.6484 0.0703125 11.7891 0.210938C11.9297 0.351562 12 0.53125 12 0.75V4.5C12 4.71875 11.9297 4.89844 11.7891 5.03906C11.6484 5.17969 11.4688 5.25 11.25 5.25C11.0312 5.25 10.8516 5.17969 10.7109 5.03906C10.5703 4.89844 10.5 4.71875 10.5 4.5V2.55469L5.78906 7.28906C5.63281 7.42969 5.45312 7.5 5.25 7.5C5.04688 7.5 4.86719 7.42969 4.71094 7.28906C4.57031 7.13281 4.5 6.95312 4.5 6.75C4.5 6.54688 4.57031 6.36719 4.71094 6.21094L9.44531 1.5H7.5C7.28125 1.5 7.10156 1.42969 6.96094 1.28906C6.82031 1.14844 6.75 0.96875 6.75 0.75C6.75 0.53125 6.82031 0.351562 6.96094 0.210938C7.10156 0.0703125 7.28125 0 7.5 0ZM1.875 0.75H4.5C4.71875 0.75 4.89844 0.820312 5.03906 0.960938C5.17969 1.10156 5.25 1.28125 5.25 1.5C5.25 1.71875 5.17969 1.89844 5.03906 2.03906C4.89844 2.17969 4.71875 2.25 4.5 2.25H1.875C1.64062 2.26562 1.51562 2.39062 1.5 2.625V10.125C1.51562 10.3594 1.64062 10.4844 1.875 10.5H9.375C9.60938 10.4844 9.73438 10.3594 9.75 10.125V7.5C9.75 7.28125 9.82031 7.10156 9.96094 6.96094C10.1016 6.82031 10.2812 6.75 10.5 6.75C10.7188 6.75 10.8984 6.82031 11.0391 6.96094C11.1797 7.10156 11.25 7.28125 11.25 7.5V10.125C11.2344 10.6562 11.0547 11.1016 10.7109 11.4609C10.3516 11.8047 9.90625 11.9844 9.375 12H1.875C1.34375 11.9844 0.898438 11.8047 0.539062 11.4609C0.195312 11.1016 0.015625 10.6562 0 10.125V2.625C0.015625 2.09375 0.195312 1.64844 0.539062 1.28906C0.898438 0.945312 1.34375 0.765625 1.875 0.75Z" fill="#5C73E6"/>
</g></symbol><symbol id="location" viewBox="0 0 24 24"><g fill="none">
<path d="M16.5 10.0156C16.4583 8.74479 16.0208 7.68229 15.1875 6.82812C14.3333 5.99479 13.2708 5.55729 12 5.51562C10.7292 5.55729 9.66667 5.99479 8.8125 6.82812C7.97917 7.68229 7.54167 8.74479 7.5 10.0156C7.5 10.4115 7.65625 11.0052 7.96875 11.7969C8.32292 12.5885 8.77083 13.4219 9.3125 14.2969C9.77083 15.026 10.2292 15.724 10.6875 16.3906C11.1667 17.0573 11.6042 17.6406 12 18.1406C12.3958 17.6406 12.8333 17.0573 13.3125 16.3906C13.7917 15.724 14.25 15.026 14.6875 14.2969C15.2292 13.4219 15.6771 12.5885 16.0312 11.7969C16.3438 11.0052 16.5 10.4115 16.5 10.0156ZM18 10.0156C17.9583 10.9531 17.625 12.0365 17 13.2656C16.3542 14.4948 15.625 15.6823 14.8125 16.8281C14 17.9948 13.3125 18.9219 12.75 19.6094C12.5417 19.8594 12.2917 19.9844 12 19.9844C11.7083 19.9844 11.4583 19.8594 11.25 19.6094C10.6875 18.9219 10 17.9948 9.1875 16.8281C8.375 15.6823 7.64583 14.4948 7 13.2656C6.375 12.0365 6.04167 10.9531 6 10.0156C6.04167 8.30729 6.625 6.89062 7.75 5.76562C8.875 4.64062 10.2917 4.05729 12 4.01562C13.7083 4.05729 15.125 4.64062 16.25 5.76562C17.375 6.89062 17.9583 8.30729 18 10.0156ZM13 10.0156C13 9.72396 12.9062 9.48438 12.7188 9.29688C12.5312 9.10938 12.2917 9.01562 12 9.01562C11.7083 9.01562 11.4688 9.10938 11.2812 9.29688C11.0938 9.48438 11 9.72396 11 10.0156C11 10.3073 11.0938 10.5469 11.2812 10.7344C11.4688 10.9219 11.7083 11.0156 12 11.0156C12.2917 11.0156 12.5312 10.9219 12.7188 10.7344C12.9062 10.5469 13 10.3073 13 10.0156ZM9.5 10.0156C9.52083 9.07812 9.9375 8.35938 10.75 7.85938C11.5833 7.40104 12.4167 7.40104 13.25 7.85938C14.0625 8.35938 14.4792 9.07812 14.5 10.0156C14.4792 10.9531 14.0625 11.6719 13.25 12.1719C12.4167 12.6302 11.5833 12.6302 10.75 12.1719C9.9375 11.6719 9.52083 10.9531 9.5 10.0156Z" fill="#27292E"/>
</g></symbol><symbol id="logout-acc" viewBox="0 0 24 24"><g fill="none">
<path d="M15.8125 7.3125L19.6562 11.1562C19.8854 11.3854 20 11.6667 20 12C20 12.3333 19.8854 12.6146 19.6562 12.8438L15.8125 16.6875C15.6042 16.8958 15.3542 17 15.0625 17C14.7708 17 14.5208 16.8958 14.3125 16.6875C14.1042 16.4792 14 16.2292 14 15.9375V14H10C9.70833 14 9.46875 13.9062 9.28125 13.7188C9.09375 13.5312 9 13.2917 9 13V11C9 10.7083 9.09375 10.4688 9.28125 10.2812C9.46875 10.0938 9.70833 10 10 10H14V8.0625C14 7.77083 14.1042 7.52083 14.3125 7.3125C14.5208 7.10417 14.7708 7 15.0625 7C15.3542 7 15.6042 7.10417 15.8125 7.3125ZM9 7H7C6.70833 7 6.46875 7.09375 6.28125 7.28125C6.09375 7.46875 6 7.70833 6 8V16C6 16.2917 6.09375 16.5312 6.28125 16.7188C6.46875 16.9062 6.70833 17 7 17H9C9.29167 17 9.53125 17.0938 9.71875 17.2812C9.90625 17.4688 10 17.7083 10 18C10 18.2917 9.90625 18.5312 9.71875 18.7188C9.53125 18.9062 9.29167 19 9 19H7C6.14583 18.9792 5.4375 18.6875 4.875 18.125C4.3125 17.5625 4.02083 16.8542 4 16V8C4.02083 7.14583 4.3125 6.4375 4.875 5.875C5.4375 5.3125 6.14583 5.02083 7 5H9C9.29167 5 9.53125 5.09375 9.71875 5.28125C9.90625 5.46875 10 5.70833 10 6C10 6.29167 9.90625 6.53125 9.71875 6.71875C9.53125 6.90625 9.29167 7 9 7Z" fill="#27292E"/>
</g></symbol><symbol id="mail" viewBox="0 0 24 24"><g fill="none">
<path d="M5.5 6H18.5C18.9167 6.02083 19.2708 6.16667 19.5625 6.4375C19.8333 6.72917 19.9792 7.08333 20 7.5C19.9792 8 19.7812 8.39583 19.4062 8.6875L12.5938 13.8125C12.1979 14.0625 11.8021 14.0625 11.4062 13.8125L4.59375 8.6875C4.21875 8.39583 4.02083 8 4 7.5C4.02083 7.08333 4.16667 6.72917 4.4375 6.4375C4.72917 6.16667 5.08333 6.02083 5.5 6ZM4 9.5L10.8125 14.5938C11.1667 14.8646 11.5625 15 12 15C12.4375 15 12.8333 14.8646 13.1875 14.5938L20 9.5V16C19.9792 16.5625 19.7812 17.0312 19.4062 17.4062C19.0312 17.7812 18.5625 17.9792 18 18H6C5.4375 17.9792 4.96875 17.7812 4.59375 17.4062C4.21875 17.0312 4.02083 16.5625 4 16V9.5Z" fill="#F5A393"/>
</g></symbol><symbol id="mic" viewBox="0 0 24 24"><g fill="none">
<path d="M17.875 11.4375C17.125 12.1458 16.2604 12.5 15.2812 12.5L12.75 14.75V19.25C12.7083 19.7083 12.4583 19.9583 12 20C11.5417 19.9583 11.2917 19.7083 11.25 19.25V16.0625L7.1875 19.6562C6.91667 19.8854 6.60417 20 6.25 20C5.875 20 5.55208 19.8646 5.28125 19.5938L4.40625 18.7188C4.13542 18.4479 4 18.125 4 17.75C4 17.3958 4.11458 17.0833 4.34375 16.8125L11.5 8.71875C11.5208 7.73958 11.875 6.875 12.5625 6.125L13.625 5.0625C14.3958 4.35417 15.2812 4 16.2812 4C17.2604 4 18.1354 4.36458 18.9062 5.09375C19.6354 5.86458 20 6.73958 20 7.71875C20 8.71875 19.6458 9.60417 18.9375 10.375L17.875 11.4375ZM15.3125 11C15.875 10.9792 16.375 10.7708 16.8125 10.375L13.625 7.1875C13.2292 7.625 13.0208 8.125 13 8.6875L15.3125 11ZM17.875 9.3125C18.2917 8.85417 18.5 8.32292 18.5 7.71875C18.5 7.13542 18.2812 6.61458 17.8438 6.15625C17.3854 5.71875 16.8646 5.5 16.2812 5.5C15.6771 5.5 15.1458 5.70833 14.6875 6.125L17.875 9.3125ZM12.2812 10.0938L5.53125 17.75L6.28125 18.4688L13.9062 11.7188L12.2812 10.0938Z" fill="#27292E"/>
</g></symbol><symbol id="news" viewBox="0 0 24 25"><g fill="none">
<path d="M8.90625 6.3125C8.39062 6.35938 8.10938 6.64062 8.0625 7.15625V17.8438C8.0625 18.1484 8.01562 18.4297 7.92188 18.6875H18.4688C18.9844 18.6406 19.2656 18.3594 19.3125 17.8438V7.15625C19.2656 6.64062 18.9844 6.35938 18.4688 6.3125H8.90625ZM5.53125 18.6875C6.04688 18.6406 6.32812 18.3594 6.375 17.8438V7.15625C6.39844 6.42969 6.64453 5.83203 7.11328 5.36328C7.58203 4.89453 8.17969 4.64844 8.90625 4.625H18.4688C19.1953 4.64844 19.793 4.89453 20.2617 5.36328C20.7305 5.83203 20.9766 6.42969 21 7.15625V17.8438C20.9766 18.5703 20.7305 19.168 20.2617 19.6367C19.793 20.1055 19.1953 20.3516 18.4688 20.375H5.53125C4.80469 20.3516 4.20703 20.1055 3.73828 19.6367C3.26953 19.168 3.02344 18.5703 3 17.8438V7.4375C3.04688 6.92188 3.32812 6.64062 3.84375 6.59375C4.35938 6.64062 4.64062 6.92188 4.6875 7.4375V17.8438C4.73438 18.3594 5.01562 18.6406 5.53125 18.6875ZM9.1875 8.28125C9.23438 7.76562 9.51562 7.48438 10.0312 7.4375H17.3438C17.8594 7.48438 18.1406 7.76562 18.1875 8.28125V11.0938C18.1406 11.6094 17.8594 11.8906 17.3438 11.9375H10.0312C9.51562 11.8906 9.23438 11.6094 9.1875 11.0938V8.28125ZM10.0312 13.0625H12.2812C12.7969 13.1094 13.0781 13.3906 13.125 13.9062C13.0781 14.4219 12.7969 14.7031 12.2812 14.75H10.0312C9.51562 14.7031 9.23438 14.4219 9.1875 13.9062C9.23438 13.3906 9.51562 13.1094 10.0312 13.0625ZM15.0938 13.0625H17.3438C17.8594 13.1094 18.1406 13.3906 18.1875 13.9062C18.1406 14.4219 17.8594 14.7031 17.3438 14.75H15.0938C14.5781 14.7031 14.2969 14.4219 14.25 13.9062C14.2969 13.3906 14.5781 13.1094 15.0938 13.0625ZM10.0312 15.875H12.2812C12.7969 15.9219 13.0781 16.2031 13.125 16.7188C13.0781 17.2344 12.7969 17.5156 12.2812 17.5625H10.0312C9.51562 17.5156 9.23438 17.2344 9.1875 16.7188C9.23438 16.2031 9.51562 15.9219 10.0312 15.875ZM15.0938 15.875H17.3438C17.8594 15.9219 18.1406 16.2031 18.1875 16.7188C18.1406 17.2344 17.8594 17.5156 17.3438 17.5625H15.0938C14.5781 17.5156 14.2969 17.2344 14.25 16.7188C14.2969 16.2031 14.5781 15.9219 15.0938 15.875Z" fill="#27292E"/>
</g></symbol><symbol id="odnoklasniki-about" viewBox="0 0 32 32"><g fill="none">
<path fill-rule="evenodd" clip-rule="evenodd" d="M3.73992 6.66602C2.66992 8.52202 2.66992 11.014 2.66992 15.999C2.66992 20.983 2.66992 23.476 3.74192 25.332C4.44404 26.5481 5.45387 27.5579 6.66992 28.26C8.52592 29.332 11.0189 29.332 16.0029 29.332C20.9879 29.332 23.4799 29.332 25.3369 28.26C26.553 27.5579 27.5628 26.5481 28.2649 25.332C29.3369 23.476 29.3369 20.983 29.3369 15.999C29.3369 11.014 29.3369 8.52202 28.2649 6.66602C27.5629 5.4496 26.5531 4.43941 25.3369 3.73702C23.4799 2.66602 20.9869 2.66602 16.0029 2.66602C11.0189 2.66602 8.52592 2.66602 6.66992 3.73702C5.45301 4.43913 4.44245 5.44934 3.73992 6.66602ZM17.7219 12.129C17.7219 11.186 16.9509 10.419 16.0019 10.419C15.0549 10.419 14.2829 11.186 14.2829 12.129C14.2829 13.071 15.0549 13.838 16.0029 13.838C16.9509 13.838 17.7219 13.072 17.7219 12.129ZM20.1549 12.129C20.1549 14.405 18.2929 16.257 16.0019 16.257C13.7119 16.257 11.8499 14.405 11.8499 12.129C11.8499 9.85102 13.7119 7.99902 16.0019 7.99902C18.2919 7.99902 20.1549 9.85102 20.1549 12.129ZM20.0939 18.632C19.3429 19.102 18.5279 19.434 17.6819 19.625L20.0039 21.934C20.1168 22.0459 20.2064 22.1791 20.2676 22.3259C20.3287 22.4726 20.3602 22.63 20.3602 22.789C20.3602 22.948 20.3287 23.1054 20.2676 23.2521C20.2064 23.3989 20.1168 23.5321 20.0039 23.644C19.7753 23.8712 19.4662 23.9987 19.1439 23.9987C18.8217 23.9987 18.5125 23.8712 18.2839 23.644L16.0019 21.376L13.7219 23.644C13.4934 23.8717 13.184 23.9996 12.8614 23.9996C12.5388 23.9996 12.2294 23.8717 12.0009 23.644C11.8881 23.532 11.7986 23.3988 11.7376 23.2521C11.6765 23.1053 11.645 22.948 11.645 22.789C11.645 22.6301 11.6765 22.4727 11.7376 22.326C11.7986 22.1792 11.8881 22.046 12.0009 21.934L14.3209 19.625C13.4677 19.4313 12.653 19.0956 11.9109 18.632C11.776 18.5479 11.659 18.4379 11.5668 18.3083C11.4745 18.1788 11.4088 18.0323 11.3734 17.8773C11.338 17.7222 11.3336 17.5618 11.3605 17.405C11.3873 17.2483 11.4449 17.0984 11.5299 16.964C11.7025 16.6919 11.9758 16.4992 12.29 16.428C12.6043 16.3567 12.9339 16.4129 13.2069 16.584C14.046 17.1052 15.0141 17.3814 16.0019 17.3814C16.9897 17.3814 17.9578 17.1052 18.7969 16.584C19.0701 16.4128 19.3999 16.3567 19.7143 16.4279C20.0287 16.4991 20.3022 16.6918 20.4749 16.964C20.5599 17.0984 20.6175 17.2483 20.6444 17.405C20.6712 17.5618 20.6668 17.7222 20.6314 17.8773C20.596 18.0323 20.5303 18.1788 20.4381 18.3083C20.3458 18.4379 20.2288 18.5479 20.0939 18.632Z" fill="#ED812B"/>
</g></symbol><symbol id="odnoklasniki" viewBox="0 0 32 32"><g fill="none">
<path fill-rule="evenodd" clip-rule="evenodd" d="M3.74004 6.66602C2.67004 8.52202 2.67004 11.014 2.67004 15.999C2.67004 20.983 2.67004 23.476 3.74204 25.332C4.44416 26.5481 5.45399 27.5579 6.67004 28.26C8.52604 29.332 11.019 29.332 16.003 29.332C20.988 29.332 23.48 29.332 25.337 28.26C26.5531 27.5579 27.5629 26.5481 28.265 25.332C29.337 23.476 29.337 20.983 29.337 15.999C29.337 11.014 29.337 8.52202 28.265 6.66602C27.5631 5.4496 26.5532 4.43941 25.337 3.73702C23.48 2.66602 20.987 2.66602 16.003 2.66602C11.019 2.66602 8.52604 2.66602 6.67004 3.73702C5.45313 4.43913 4.44258 5.44934 3.74004 6.66602ZM17.722 12.129C17.722 11.186 16.951 10.419 16.002 10.419C15.055 10.419 14.283 11.186 14.283 12.129C14.283 13.071 15.055 13.838 16.003 13.838C16.951 13.838 17.722 13.072 17.722 12.129ZM20.155 12.129C20.155 14.405 18.293 16.257 16.002 16.257C13.712 16.257 11.85 14.405 11.85 12.129C11.85 9.85102 13.712 7.99902 16.002 7.99902C18.292 7.99902 20.155 9.85102 20.155 12.129ZM20.094 18.632C19.343 19.102 18.528 19.434 17.682 19.625L20.004 21.934C20.1169 22.0459 20.2066 22.1791 20.2677 22.3259C20.3289 22.4726 20.3603 22.63 20.3603 22.789C20.3603 22.948 20.3289 23.1054 20.2677 23.2521C20.2066 23.3989 20.1169 23.5321 20.004 23.644C19.7755 23.8712 19.4663 23.9987 19.144 23.9987C18.8218 23.9987 18.5126 23.8712 18.284 23.644L16.002 21.376L13.722 23.644C13.4936 23.8717 13.1841 23.9996 12.8615 23.9996C12.539 23.9996 12.2295 23.8717 12.001 23.644C11.8883 23.532 11.7988 23.3988 11.7377 23.2521C11.6766 23.1053 11.6452 22.948 11.6452 22.789C11.6452 22.6301 11.6766 22.4727 11.7377 22.326C11.7988 22.1792 11.8883 22.046 12.001 21.934L14.321 19.625C13.4678 19.4313 12.6531 19.0956 11.911 18.632C11.7761 18.5479 11.6592 18.4379 11.5669 18.3083C11.4747 18.1788 11.4089 18.0323 11.3735 17.8773C11.3381 17.7222 11.3337 17.5618 11.3606 17.405C11.3874 17.2483 11.445 17.0984 11.53 16.964C11.7026 16.6919 11.9759 16.4992 12.2901 16.428C12.6044 16.3567 12.934 16.4129 13.207 16.584C14.0461 17.1052 15.0142 17.3814 16.002 17.3814C16.9898 17.3814 17.958 17.1052 18.797 16.584C19.0702 16.4128 19.4 16.3567 19.7144 16.4279C20.0288 16.4991 20.3023 16.6918 20.475 16.964C20.5601 17.0984 20.6176 17.2483 20.6445 17.405C20.6714 17.5618 20.667 17.7222 20.6316 17.8773C20.5961 18.0323 20.5304 18.1788 20.4382 18.3083C20.3459 18.4379 20.229 18.5479 20.094 18.632Z" fill="currentColor"/>
</g></symbol><symbol id="parking" viewBox="0 0 20 20"><g fill="none">
<path d="M5.625 3.875H14.375C14.8672 3.89323 15.2773 4.06641 15.6055 4.39453C15.9336 4.72266 16.1068 5.13281 16.125 5.625V14.375C16.1068 14.8672 15.9336 15.2773 15.6055 15.6055C15.2773 15.9336 14.8672 16.1068 14.375 16.125H5.625C5.13281 16.1068 4.72266 15.9336 4.39453 15.6055C4.06641 15.2773 3.89323 14.8672 3.875 14.375V5.625C3.89323 5.13281 4.06641 4.72266 4.39453 4.39453C4.72266 4.06641 5.13281 3.89323 5.625 3.875ZM9.125 10V8.25H10.4375C10.6927 8.25 10.9023 8.33203 11.0664 8.49609C11.2305 8.66016 11.3125 8.86979 11.3125 9.125C11.3125 9.38021 11.2305 9.58984 11.0664 9.75391C10.9023 9.91797 10.6927 10 10.4375 10H9.125ZM10.4375 11.75C11.1849 11.7318 11.8047 11.4766 12.2969 10.9844C12.7891 10.4922 13.0443 9.8724 13.0625 9.125C13.0443 8.3776 12.7891 7.75781 12.2969 7.26562C11.8047 6.77344 11.1849 6.51823 10.4375 6.5H8.46875C8.15885 6.5 7.90365 6.60938 7.70312 6.82812C7.48438 7.02865 7.375 7.28385 7.375 7.59375V12.625C7.375 12.8802 7.45703 13.0898 7.62109 13.2539C7.78516 13.418 7.99479 13.5 8.25 13.5C8.50521 13.5 8.71484 13.418 8.87891 13.2539C9.04297 13.0898 9.125 12.8802 9.125 12.625V11.75H10.4375Z" fill="#27292E"/>
</g></symbol><symbol id="phone" viewBox="0 0 24 24"><g fill="none">
<path d="M9.15625 4.78125L10.4062 7.78125C10.5938 8.34375 10.4688 8.82292 10.0312 9.21875L8.5 10.4688C9.02083 11.5729 9.70833 12.5625 10.5625 13.4375C11.4375 14.2917 12.4271 14.9792 13.5312 15.5L14.7812 13.9688C15.1771 13.5312 15.6562 13.4062 16.2188 13.5938L19.2188 14.8438C19.5312 14.9688 19.75 15.1667 19.875 15.4375C20 15.7292 20.0312 16.0312 19.9688 16.3438L19.2188 19.0938C19.0104 19.6562 18.6042 19.9583 18 20C15.3958 19.9792 13.0417 19.3438 10.9375 18.0938C8.83333 16.8438 7.15625 15.1667 5.90625 13.0625C4.65625 10.9583 4.02083 8.60417 4 6C4.04167 5.39583 4.34375 4.98958 4.90625 4.78125L7.65625 4.03125C7.96875 3.96875 8.27083 4 8.5625 4.125C8.83333 4.25 9.03125 4.46875 9.15625 4.78125Z" fill="#90DFF0"/>
</g></symbol><symbol id="rjov" viewBox="0 0 24 24"><g fill="none">
<g clip-path="url(#clip0_329_2557)">
<path d="M8.45325 2.67252L8.45324 2.67252C7.9427 1.63789 6.91636 1 5.763 1H3.503C3.15626 1 2.84566 1.17283 2.66338 1.46579L8.45325 2.67252ZM8.45325 2.67252L8.83063 3.43728M8.45325 2.67252L8.83063 3.43728M8.83063 3.43728C7.13735 3.90002 5.5945 4.72276 4.28901 5.82037L2.61601 2.42799C2.61597 2.4279 2.61592 2.4278 2.61587 2.4277C2.46263 2.11647 2.47982 1.76137 2.66322 1.46605L8.83063 3.43728ZM21.408 2.42799L19.7273 5.83353C18.4184 4.72934 16.87 3.90174 15.1694 3.43717L15.5468 2.67252L15.5468 2.67252C16.0573 1.63789 17.0836 1 18.237 1H20.52C20.8667 1 21.1771 1.17272 21.3594 1.4664L21.36 1.46744C21.5435 1.76223 21.561 2.11716 21.4081 2.42771C21.4081 2.4278 21.408 2.4279 21.408 2.42799ZM20.001 15C20.001 19.4106 16.4108 23 12.001 23C7.59107 23 4 19.4105 4 15C4 10.5894 7.59022 7 12 7C16.4099 7 20.001 10.5895 20.001 15Z" fill="white" stroke="#27292E" stroke-width="2" stroke-linejoin="round"/>
<path d="M12.3543 14.0183L12.5492 14.766H13.322H14.4042L13.6432 15.1889L12.8957 15.6043L13.1901 16.4072L13.6644 17.7009L12.6117 16.8869L12 16.4139L11.3883 16.8869L10.3356 17.7009L10.8099 16.4072L11.1042 15.6043L10.3567 15.1889L9.59571 14.766H10.678H11.4507L11.6456 14.0183L12 12.659L12.3543 14.0183Z" stroke="#27292E" stroke-width="2"/>
</g>

</g></symbol><symbol id="route" viewBox="0 0 24 25"><g fill="none">
<path d="M18.4336 8.98438C19.043 7.95312 19.3359 7.25 19.3125 6.875C19.2891 6.40625 19.125 6.00781 18.8203 5.67969C18.4922 5.375 18.0938 5.21094 17.625 5.1875C17.1562 5.21094 16.7578 5.375 16.4297 5.67969C16.125 6.00781 15.9609 6.40625 15.9375 6.875C15.9141 7.25 16.207 7.95312 16.8164 8.98438C17.0742 9.38281 17.3438 9.75781 17.625 10.1094C17.9062 9.75781 18.1758 9.38281 18.4336 8.98438ZM18.0117 12.3242C17.8711 12.4883 17.707 12.5469 17.5195 12.5H14.5312C14.1328 12.5 13.8047 12.6406 13.5469 12.9219C13.2656 13.1797 13.125 13.5078 13.125 13.9062C13.125 14.3047 13.2656 14.6328 13.5469 14.8906C13.8047 15.1719 14.1328 15.3125 14.5312 15.3125H17.9062C18.7734 15.3359 19.5 15.6406 20.0859 16.2266C20.6719 16.8125 20.9766 17.5391 21 18.4062C20.9766 19.2734 20.6719 20 20.0859 20.5859C19.5 21.1719 18.7734 21.4766 17.9062 21.5H7.92188C8.22656 21.1484 8.57812 20.7148 8.97656 20.1992C9.07031 20.082 9.16406 19.9531 9.25781 19.8125H17.9062C18.3047 19.8125 18.6328 19.6719 18.8906 19.3906C19.1719 19.1328 19.3125 18.8047 19.3125 18.4062C19.3125 18.0078 19.1719 17.6797 18.8906 17.4219C18.6328 17.1406 18.3047 17 17.9062 17H14.5312C13.6641 16.9766 12.9375 16.6719 12.3516 16.0859C11.7656 15.5 11.4609 14.7734 11.4375 13.9062C11.4609 13.0391 11.7656 12.3125 12.3516 11.7266C12.9375 11.1406 13.6641 10.8359 14.5312 10.8125H16.043C15.5742 10.1797 15.1641 9.51172 14.8125 8.80859C14.4609 8.12891 14.2734 7.48438 14.25 6.875C14.2734 5.91406 14.6016 5.11719 15.2344 4.48438C15.8672 3.85156 16.6641 3.52344 17.625 3.5C18.5859 3.52344 19.3828 3.85156 20.0156 4.48438C20.6484 5.11719 20.9766 5.91406 21 6.875C20.9766 7.48438 20.7891 8.14062 20.4375 8.84375C20.0625 9.54688 19.6523 10.2148 19.207 10.8477C18.7383 11.457 18.3398 11.9492 18.0117 12.3242ZM7.18359 17.8438C7.79297 16.9062 8.08594 16.25 8.0625 15.875C8.03906 15.4062 7.875 15.0078 7.57031 14.6797C7.24219 14.375 6.84375 14.2109 6.375 14.1875C5.90625 14.2109 5.50781 14.375 5.17969 14.6797C4.875 15.0078 4.71094 15.4062 4.6875 15.875C4.66406 16.25 4.95703 16.9062 5.56641 17.8438C5.82422 18.2422 6.09375 18.6172 6.375 18.9688C6.65625 18.6172 6.92578 18.2422 7.18359 17.8438ZM7.85156 19.8125C7.59375 20.1406 7.35938 20.4219 7.14844 20.6562C7.00781 20.7969 6.89062 20.9258 6.79688 21.043C6.79688 21.043 6.79688 21.0547 6.79688 21.0781C6.77344 21.0781 6.76172 21.0781 6.76172 21.0781C6.50391 21.3125 6.24609 21.3125 5.98828 21.0781C5.68359 20.75 5.29688 20.293 4.82812 19.707C4.35938 19.1211 3.9375 18.4883 3.5625 17.8086C3.21094 17.1289 3.02344 16.4844 3 15.875C3.02344 14.9141 3.35156 14.1172 3.98438 13.4844C4.61719 12.8516 5.41406 12.5234 6.375 12.5C7.33594 12.5234 8.13281 12.8516 8.76562 13.4844C9.39844 14.1172 9.72656 14.9141 9.75 15.875C9.72656 16.5078 9.52734 17.1758 9.15234 17.8789C8.75391 18.582 8.32031 19.2266 7.85156 19.8125Z" fill="#27292E"/>
</g></symbol><symbol id="ruso" viewBox="0 0 52 11"><g fill="none">
<g opacity="0.5" clip-path="url(#clip0_53_723)">
<path d="M13.4243 6.35301V0.251953H15.6153V6.27665C15.6153 7.69226 16.4376 8.66538 18.005 8.66538C19.5724 8.66538 20.3781 7.69129 20.3781 6.27665V0.251953H22.5847V6.33832C22.5847 8.86411 21.0927 10.5832 18.005 10.5832C14.9153 10.5832 13.4243 8.84845 13.4243 6.35301Z" fill="white"/>
<path d="M27.791 8.96925L28.9619 7.3265C29.6775 8.07249 30.7877 8.69513 32.1877 8.69513C33.3752 8.69513 33.9528 8.14788 33.9528 7.56929C33.9528 5.77383 28.1102 7.00637 28.1102 3.18734C28.1102 1.49859 29.5708 0.0986328 31.9595 0.0986328C33.5729 0.0986328 34.9112 0.58519 35.9156 1.51425L34.7134 3.0963C33.893 2.33562 32.7966 1.98612 31.7618 1.98612C30.8337 1.98612 30.3168 2.39632 30.3168 3.00525C30.3168 4.61764 36.1437 3.53782 36.1437 7.3265C36.1437 9.18267 34.8202 10.5826 32.0819 10.5826C30.1347 10.5826 28.7348 9.92768 27.791 8.96925Z" fill="white"/>
<path d="M41.2124 5.29241C41.2124 2.2086 43.467 0 46.5508 0C49.6493 0 51.9039 2.2086 51.9039 5.29241C51.9039 8.37525 49.6493 10.5838 46.5508 10.5838C43.467 10.5838 41.2124 8.37525 41.2124 5.29241ZM49.664 5.29241C49.664 3.37555 48.4373 1.9335 46.5508 1.9335C44.6643 1.9335 43.4523 3.37555 43.4523 5.29241C43.4523 7.19459 44.6643 8.65132 46.5508 8.65132C48.4373 8.65132 49.664 7.19459 49.664 5.29241Z" fill="white"/>
<path d="M5.93463 6.5351C7.03012 6.27665 8.15693 5.31822 8.15693 3.52275C8.15693 1.63624 6.86369 0.251953 4.74809 0.251953H0V2.15315H2.16063H2.32118H4.42894C5.29633 2.15315 5.95029 2.67005 5.95029 3.52275C5.95029 4.37447 5.29535 4.89236 4.42894 4.89236H2.32118H2.16063H0.000978824V10.4001H2.16161V6.79453H3.74463L5.73687 10.4011H8.21763L5.93463 6.5351Z" fill="white"/>
</g>

</g></symbol><symbol id="search" viewBox="0 0 25 24"><g fill="none">
<path fill-rule="evenodd" clip-rule="evenodd" d="M14.6746 10.5C14.6746 12.7091 12.8838 14.5 10.6746 14.5C8.46548 14.5 6.67462 12.7091 6.67462 10.5C6.67462 8.29086 8.46548 6.5 10.6746 6.5C12.8838 6.5 14.6746 8.29086 14.6746 10.5ZM14.1512 15.3907C13.1703 16.0892 11.9705 16.5 10.6746 16.5C7.36091 16.5 4.67462 13.8137 4.67462 10.5C4.67462 7.18629 7.36091 4.5 10.6746 4.5C13.9883 4.5 16.6746 7.18629 16.6746 10.5C16.6746 11.7958 16.2638 12.9957 15.5654 13.9765L19.6244 18.0355C20.0149 18.4261 20.0149 19.0592 19.6244 19.4497C19.2338 19.8403 18.6007 19.8403 18.2102 19.4497L14.1512 15.3907Z" fill="#27292E"/>
</g></symbol><symbol id="servise" viewBox="0 0 20 20"><g fill="none">
<path d="M17.6289 4.50391L12.3789 9.75391L13.3086 10.6836C13.4362 10.8112 13.5 10.957 13.5 11.1211C13.4635 11.5039 13.2539 11.7135 12.8711 11.75H12.0781L9.125 8.79688V8.00391C9.16146 7.62109 9.37109 7.41146 9.75391 7.375C9.91797 7.375 10.0638 7.4388 10.1914 7.56641L11.1211 8.49609L16.3711 3.24609C16.5534 3.08203 16.763 3 17 3C17.237 3 17.4466 3.08203 17.6289 3.24609C17.793 3.42839 17.875 3.63802 17.875 3.875C17.875 4.11198 17.793 4.32161 17.6289 4.50391ZM11.4492 12.6523C11.5404 13.8737 11.1576 14.931 10.3008 15.8242C9.51693 16.5898 8.56901 16.9818 7.45703 17H2.72656C2.36198 16.9635 2.16146 16.763 2.125 16.3984C2.125 16.2161 2.1888 16.0612 2.31641 15.9336L5.78906 12.8438C5.84375 12.7891 5.84375 12.7253 5.78906 12.6523C5.7526 12.5977 5.69792 12.5885 5.625 12.625L4.23047 13.3086C4.02995 13.3815 3.91146 13.3086 3.875 13.0898C3.89323 12.1966 4.21224 11.431 4.83203 10.793L5.05078 10.5742C5.94401 9.71745 7.0013 9.33464 8.22266 9.42578L11.4492 12.6523Z" fill="#27292E"/>
</g></symbol><symbol id="setting-acc" viewBox="0 0 24 24"><g fill="none">
<path d="M19.5006 9.21875C19.5839 9.51042 19.5214 9.76042 19.3131 9.96875L18.3443 10.8438C18.0943 11.0938 17.9797 11.3854 18.0006 11.7188C18.0006 11.8229 18.0006 11.9167 18.0006 12C18.0006 12.0833 18.0006 12.1771 18.0006 12.2812C17.9797 12.6146 18.0943 12.9062 18.3443 13.1562L19.3131 14.0312C19.5214 14.2396 19.5839 14.4896 19.5006 14.7812C19.3547 15.1562 19.1881 15.5208 19.0006 15.875L18.8443 16.125C18.636 16.4583 18.4068 16.7812 18.1568 17.0938C17.9485 17.3229 17.6985 17.3958 17.4068 17.3125L16.1568 16.9062C15.8235 16.8229 15.511 16.875 15.2193 17.0625C15.0735 17.1667 14.9172 17.2604 14.7506 17.3438C14.4589 17.4896 14.261 17.7292 14.1568 18.0625L13.9068 19.3438C13.8235 19.6354 13.6256 19.8125 13.3131 19.875C12.8964 19.9583 12.4589 20 12.0006 20C11.5422 20 11.0943 19.9583 10.6568 19.875C10.3651 19.8125 10.1776 19.6354 10.0943 19.3438L9.81306 18.0625C9.72972 17.7292 9.53181 17.4896 9.21931 17.3438C9.07347 17.2396 8.91722 17.1458 8.75056 17.0625C8.45889 16.875 8.15681 16.8229 7.84431 16.9062L6.59431 17.3125C6.30264 17.3958 6.05264 17.3229 5.84431 17.0938C5.57347 16.7812 5.33389 16.4583 5.12556 16.125L5.00056 15.875C4.81306 15.5208 4.64639 15.1667 4.50056 14.8125C4.41722 14.5 4.47972 14.2396 4.68806 14.0312L5.65681 13.1562C5.90681 12.9062 6.02139 12.6146 6.00056 12.2812C6.00056 12.1979 6.00056 12.1042 6.00056 12C6.00056 11.9167 6.00056 11.8229 6.00056 11.7188C6.02139 11.3854 5.90681 11.0938 5.65681 10.8438L4.68806 9.96875C4.47972 9.76042 4.41722 9.51042 4.50056 9.21875C4.64639 8.84375 4.81306 8.47917 5.00056 8.125L5.15681 7.875C5.34431 7.54167 5.57347 7.21875 5.84431 6.90625C6.05264 6.67708 6.30264 6.60417 6.59431 6.6875L7.84431 7.09375C8.15681 7.17708 8.46931 7.125 8.78181 6.9375C8.92764 6.83333 9.08389 6.73958 9.25056 6.65625C9.54222 6.51042 9.72972 6.27083 9.81306 5.9375L10.0943 4.65625C10.1776 4.36458 10.3756 4.1875 10.6881 4.125C11.1047 4.04167 11.5422 4 12.0006 4C12.4589 4 12.9068 4.04167 13.3443 4.125C13.636 4.1875 13.8235 4.36458 13.9068 4.65625L14.1881 5.9375C14.2714 6.27083 14.4589 6.51042 14.7506 6.65625C14.9172 6.73958 15.0839 6.83333 15.2506 6.9375C15.5214 7.125 15.8235 7.17708 16.1568 7.09375L17.4068 6.6875C17.6985 6.60417 17.9485 6.67708 18.1568 6.90625C18.4276 7.21875 18.6672 7.54167 18.8756 7.875L19.0006 8.125C19.1881 8.47917 19.3547 8.84375 19.5006 9.21875ZM12.0006 14.5C12.9381 14.4792 13.6568 14.0625 14.1568 13.25C14.6151 12.4167 14.6151 11.5833 14.1568 10.75C13.6568 9.9375 12.9381 9.52083 12.0006 9.5C11.0631 9.52083 10.3443 9.9375 9.84431 10.75C9.38597 11.5833 9.38597 12.4167 9.84431 13.25C10.3443 14.0625 11.0631 14.4792 12.0006 14.5Z" fill="currentColor"/>
</g></symbol><symbol id="share" viewBox="0 0 24 24"><g fill="none">
<path d="M14.125 7.50094V5.28207C14.1278 5.2487 14.1328 5.22712 14.1366 5.21471C14.1408 5.20086 14.1445 5.19486 14.146 5.19252C14.1476 5.19016 14.1519 5.18401 14.1636 5.17401C14.1727 5.16622 14.1879 5.15474 14.2118 5.14101C14.2485 5.12788 14.27 5.12492 14.279 5.12438C14.2793 5.12451 14.2796 5.12465 14.2799 5.1248C14.2857 5.1276 14.302 5.13645 14.3282 5.15845L19.9406 10.2096C19.9411 10.21 19.9415 10.2105 19.942 10.2109C19.9825 10.248 19.9927 10.2696 19.9943 10.2731C19.9952 10.2751 20 10.2843 20 10.3134C20 10.3426 19.9952 10.3518 19.9943 10.3538C19.9927 10.3572 19.9825 10.3789 19.942 10.416C19.9415 10.4164 19.9411 10.4168 19.9406 10.4173L14.3282 15.4684C14.302 15.4904 14.2857 15.4993 14.2799 15.5021C14.2796 15.5022 14.2793 15.5024 14.279 15.5025C14.27 15.502 14.2485 15.499 14.2118 15.4859C14.1879 15.4721 14.1727 15.4607 14.1636 15.4529C14.1519 15.4429 14.1476 15.4367 14.146 15.4344C14.1445 15.432 14.1408 15.426 14.1366 15.4122C14.1328 15.3998 14.1278 15.3782 14.125 15.3448V13.1259V12.1259H13.125H9.75H9.73781L9.72562 12.1262C8.52885 12.1554 7.4809 12.5746 6.65227 13.4032C5.82364 14.2318 5.40449 15.2798 5.3753 16.4766L5.37447 16.5105L5.37594 16.5444C5.39599 17.0054 5.46229 17.4537 5.60607 17.8564C5.2858 17.5127 4.9657 17.0607 4.65314 16.4825L4.64823 16.4734L4.64312 16.4644C4.25778 15.7854 4.02415 14.8786 4.00027 13.693C4.04516 12.1846 4.56035 10.9916 5.52805 10.0433L5.53527 10.0362L5.54234 10.029C6.49261 9.05933 7.68847 8.54401 9.20127 8.50094H13.125H14.125V7.50094ZM14.2841 5.1244C14.2841 5.12445 14.2833 5.12446 14.2817 5.12428C14.2834 5.12426 14.2842 5.12435 14.2841 5.1244ZM14.2841 15.5025C14.2841 15.5025 14.2833 15.5026 14.2817 15.5026C14.2834 15.5024 14.2842 15.5024 14.2841 15.5025Z" stroke="#27292E" stroke-width="2"/>
</g></symbol><symbol id="starica" viewBox="0 0 24 24"><g fill="none">
<g clip-path="url(#clip0_329_4632)">
<path d="M12 6.50025L12.4119 6.79976L21.3526 13.3016C22.3831 14.0515 23 15.263 23 16.537V20C23 21.6537 21.6537 23 20 23H4C2.34628 23 1 21.6537 1 20V16.537C1 15.2631 1.61678 14.0517 2.64714 13.3018C2.64722 13.3017 2.64731 13.3016 2.6474 13.3016L11.5881 6.79976L12 6.50025Z" fill="white" stroke="#27292E" stroke-width="2"/>
<path d="M18 22V11M6 11V22M10 22V18.5C10 17.3954 10.8954 16.5 12 16.5V16.5C13.1046 16.5 14 17.3954 14 18.5V22" stroke="#27292E" stroke-width="2"/>
</g>

</g></symbol><symbol id="statistic-acc" viewBox="0 0 24 24"><g fill="none">
<path d="M5 5C5.29167 5 5.53125 5.09375 5.71875 5.28125C5.90625 5.46875 6 5.70833 6 6V16.5C6.02083 16.8125 6.1875 16.9792 6.5 17H19C19.2917 17 19.5312 17.0938 19.7188 17.2812C19.9062 17.4688 20 17.7083 20 18C20 18.2917 19.9062 18.5312 19.7188 18.7188C19.5312 18.9062 19.2917 19 19 19H6.5C5.79167 18.9792 5.19792 18.7396 4.71875 18.2812C4.26042 17.8021 4.02083 17.2083 4 16.5V6C4 5.70833 4.09375 5.46875 4.28125 5.28125C4.46875 5.09375 4.70833 5 5 5ZM9 11C9.29167 11 9.53125 11.0938 9.71875 11.2812C9.90625 11.4688 10 11.7083 10 12V14C10 14.2917 9.90625 14.5312 9.71875 14.7188C9.53125 14.9062 9.29167 15 9 15C8.70833 15 8.46875 14.9062 8.28125 14.7188C8.09375 14.5312 8 14.2917 8 14V12C8 11.7083 8.09375 11.4688 8.28125 11.2812C8.46875 11.0938 8.70833 11 9 11ZM13 9V11C13 11.2917 12.9062 11.5312 12.7188 11.7188C12.5312 11.9062 12.2917 12 12 12C11.7083 12 11.4688 11.9062 11.2812 11.7188C11.0938 11.5312 11 11.2917 11 11V9C11 8.70833 11.0938 8.46875 11.2812 8.28125C11.4688 8.09375 11.7083 8 12 8C12.2917 8 12.5312 8.09375 12.7188 8.28125C12.9062 8.46875 13 8.70833 13 9ZM15 6C15.2917 6 15.5312 6.09375 15.7188 6.28125C15.9062 6.46875 16 6.70833 16 7V9C16 9.29167 15.9062 9.53125 15.7188 9.71875C15.5312 9.90625 15.2917 10 15 10C14.7083 10 14.4688 9.90625 14.2812 9.71875C14.0938 9.53125 14 9.29167 14 9V7C14 6.70833 14.0938 6.46875 14.2812 6.28125C14.4688 6.09375 14.7083 6 15 6ZM19 7V14C19 14.2917 18.9062 14.5312 18.7188 14.7188C18.5312 14.9062 18.2917 15 18 15C17.7083 15 17.4688 14.9062 17.2812 14.7188C17.0938 14.5312 17 14.2917 17 14V7C17 6.70833 17.0938 6.46875 17.2812 6.28125C17.4688 6.09375 17.7083 6 18 6C18.2917 6 18.5312 6.09375 18.7188 6.28125C18.9062 6.46875 19 6.70833 19 7Z" fill="currentColor"/>
</g></symbol><symbol id="tag" viewBox="0 0 24 25"><g fill="none">
<path d="M10.7695 4.64612C11.2617 4.78674 11.4844 5.11487 11.4375 5.63049L10.9102 8.26721H14.8125L15.375 5.27893C15.5391 4.78674 15.8789 4.57581 16.3945 4.64612C16.8867 4.78674 17.0977 5.11487 17.0273 5.63049L16.5352 8.26721H19.0312C19.5469 8.31409 19.8281 8.59534 19.875 9.11096C19.8281 9.62659 19.5469 9.90784 19.0312 9.95471H16.1836L15.1641 15.0172H17.9062C18.4219 15.0641 18.7031 15.3453 18.75 15.861C18.7031 16.3766 18.4219 16.6578 17.9062 16.7047H14.8477L14.25 19.693C14.0859 20.1852 13.7461 20.4078 13.2305 20.361C12.7383 20.1969 12.5273 19.8571 12.5977 19.3414L13.125 16.7047H9.22266L8.625 19.693C8.46094 20.1852 8.12109 20.4078 7.60547 20.361C7.11328 20.1969 6.90234 19.8571 6.97266 19.3414L7.5 16.7047H4.96875C4.45312 16.6578 4.17188 16.3766 4.125 15.861C4.17188 15.3453 4.45312 15.0641 4.96875 15.0172H7.81641L8.83594 9.95471H6.09375C5.57812 9.90784 5.29688 9.62659 5.25 9.11096C5.29688 8.59534 5.57812 8.31409 6.09375 8.26721H9.1875L9.75 5.27893C9.91406 4.78674 10.2539 4.57581 10.7695 4.64612ZM10.5586 9.95471L9.53906 15.0172H13.4414L14.4609 9.95471H10.5586Z" fill="currentColor"/>
</g></symbol><symbol id="telegram-about" viewBox="0 0 32 32"><g fill="none">
<path fill-rule="evenodd" clip-rule="evenodd" d="M10.6699 2.66598H21.3369C23.4587 2.66598 25.4935 3.50883 26.9938 5.00912C28.4941 6.50941 29.3369 8.54425 29.3369 10.666V21.332C29.3369 23.4537 28.4941 25.4885 26.9938 26.9888C25.4935 28.4891 23.4587 29.332 21.3369 29.332H10.6699C8.54819 29.332 6.51336 28.4891 5.01307 26.9888C3.51278 25.4885 2.66992 23.4537 2.66992 21.332V10.665C2.66992 8.54325 3.51278 6.50841 5.01307 5.00812C6.51336 3.50783 8.54819 2.66598 10.6699 2.66598ZM21.3379 22.698C21.3379 22.698 20.9609 23.62 19.9539 23.18L16.1799 20.286L13.7469 22.488C13.7469 22.488 13.5589 22.635 13.3489 22.551C13.3489 22.551 13.1599 22.531 12.9509 21.838C12.4915 20.3649 12.0371 18.8902 11.5879 17.414L7.83392 16.156C7.83392 16.156 7.26792 15.946 7.20492 15.506C7.14192 15.066 7.85492 14.814 7.85492 14.814L22.7639 8.96398C22.7639 8.96398 23.9799 8.41798 24.0009 9.31998L21.3379 22.698ZM21.1059 11.69C21.1259 11.375 20.6019 11.69 20.6019 11.69L12.3619 16.932C12.3045 16.969 12.261 17.0241 12.2382 17.0885C12.2154 17.1529 12.2146 17.2231 12.2359 17.288L13.2209 20.518C13.2839 20.706 13.5569 20.685 13.5989 20.476L13.8289 18.505C13.8285 18.4669 13.838 18.4294 13.8564 18.3961C13.8748 18.3628 13.9015 18.3349 13.9339 18.315C14.7309 17.603 20.6649 12.277 20.9169 12.025C21.1889 11.732 21.1059 11.69 21.1059 11.69Z" fill="#0088CC"/>
</g></symbol><symbol id="telegram" viewBox="0 0 32 32"><g fill="none">
<path fill-rule="evenodd" clip-rule="evenodd" d="M10.6689 2.66598H21.3359C23.4577 2.66598 25.4925 3.50883 26.9928 5.00912C28.4931 6.50941 29.3359 8.54425 29.3359 10.666V21.332C29.3359 23.4537 28.4931 25.4885 26.9928 26.9888C25.4925 28.4891 23.4577 29.332 21.3359 29.332H10.6689C8.54721 29.332 6.51238 28.4891 5.01209 26.9888C3.5118 25.4885 2.66895 23.4537 2.66895 21.332V10.665C2.66895 8.54325 3.5118 6.50841 5.01209 5.00812C6.51238 3.50783 8.54721 2.66598 10.6689 2.66598ZM21.3369 22.698C21.3369 22.698 20.9599 23.62 19.9529 23.18L16.1789 20.286L13.7459 22.488C13.7459 22.488 13.5579 22.635 13.3479 22.551C13.3479 22.551 13.1589 22.531 12.9499 21.838C12.4905 20.3649 12.0361 18.8902 11.5869 17.414L7.83295 16.156C7.83295 16.156 7.26695 15.946 7.20395 15.506C7.14094 15.066 7.85395 14.814 7.85395 14.814L22.7629 8.96398C22.7629 8.96398 23.9789 8.41798 23.9999 9.31998L21.3369 22.698ZM21.1049 11.69C21.1249 11.375 20.6009 11.69 20.6009 11.69L12.3609 16.932C12.3035 16.969 12.26 17.0241 12.2372 17.0885C12.2144 17.1529 12.2136 17.2231 12.2349 17.288L13.2199 20.518C13.2829 20.706 13.5559 20.685 13.5979 20.476L13.8279 18.505C13.8275 18.4669 13.837 18.4294 13.8554 18.3961C13.8738 18.3628 13.9005 18.3349 13.9329 18.315C14.7299 17.603 20.6639 12.277 20.9159 12.025C21.1879 11.732 21.1049 11.69 21.1049 11.69Z" fill="currentColor"/>
</g></symbol><symbol id="torjok" viewBox="0 0 24 24"><g fill="none">
<g clip-path="url(#clip0_329_731)">
<path d="M22 13H23V19.5C23 21.4287 21.4287 23 19.5 23H15V21C15 20.0959 14.7714 19.2708 14.1395 18.6971C13.5272 18.1412 12.7281 18 12 18C11.2719 18 10.4728 18.1412 9.86046 18.6971C9.22855 19.2708 9 20.0959 9 21V23H4.5C2.57128 23 1 21.4287 1 19.5V13H2H22Z" fill="white" stroke="#27292E" stroke-width="2"/>
<path d="M17 3H18V9H14C14 8.92806 14.0006 8.84967 14.0012 8.76819C14.0027 8.57819 14.0043 8.37136 13.9987 8.19033C13.9904 7.92538 13.9661 7.60193 13.8698 7.29026C13.7677 6.96006 13.5703 6.59816 13.1932 6.336C12.8269 6.08139 12.4042 6 12 6C11.5958 6 11.1731 6.08139 10.8068 6.336C10.4297 6.59816 10.2323 6.96006 10.1302 7.29026C10.0339 7.60193 10.0096 7.92538 10.0013 8.19033C9.99573 8.37136 9.99731 8.57819 9.99877 8.76819C9.9994 8.84967 10 8.92806 10 9H6V3H7H9H10H11H13H14H15H17Z" fill="white" stroke="#27292E" stroke-width="2"/>
</g>

</g></symbol><symbol id="transfer" viewBox="0 0 20 20"><g fill="none">
<path d="M6.69141 6.19922L5.98047 8.25H14.0195L13.3086 6.19922C13.1628 5.83464 12.8893 5.64323 12.4883 5.625H7.51172C7.11068 5.64323 6.83724 5.83464 6.69141 6.19922ZM4.09375 8.38672L5.05078 5.625C5.23307 5.09635 5.55208 4.67708 6.00781 4.36719C6.44531 4.03906 6.94661 3.875 7.51172 3.875H12.4883C13.0534 3.875 13.5547 4.03906 13.9922 4.36719C14.4479 4.67708 14.7669 5.09635 14.9492 5.625L15.9062 8.38672C16.2344 8.51432 16.4987 8.72396 16.6992 9.01562C16.8997 9.30729 17 9.63542 17 10V15.25C17 15.5052 16.918 15.7148 16.7539 15.8789C16.5898 16.043 16.3802 16.125 16.125 16.125H15.25C14.9948 16.125 14.7852 16.043 14.6211 15.8789C14.457 15.7148 14.375 15.5052 14.375 15.25V13.9375H5.625V15.25C5.625 15.5052 5.54297 15.7148 5.37891 15.8789C5.21484 16.043 5.00521 16.125 4.75 16.125H3.875C3.61979 16.125 3.41016 16.043 3.24609 15.8789C3.08203 15.7148 3 15.5052 3 15.25V10C3 9.63542 3.10026 9.30729 3.30078 9.01562C3.5013 8.72396 3.76562 8.51432 4.09375 8.38672ZM6.5 10.875C6.5 10.6198 6.41797 10.4102 6.25391 10.2461C6.08984 10.082 5.88021 10 5.625 10C5.36979 10 5.16016 10.082 4.99609 10.2461C4.83203 10.4102 4.75 10.6198 4.75 10.875C4.75 11.1302 4.83203 11.3398 4.99609 11.5039C5.16016 11.668 5.36979 11.75 5.625 11.75C5.88021 11.75 6.08984 11.668 6.25391 11.5039C6.41797 11.3398 6.5 11.1302 6.5 10.875ZM14.375 11.75C14.6302 11.75 14.8398 11.668 15.0039 11.5039C15.168 11.3398 15.25 11.1302 15.25 10.875C15.25 10.6198 15.168 10.4102 15.0039 10.2461C14.8398 10.082 14.6302 10 14.375 10C14.1198 10 13.9102 10.082 13.7461 10.2461C13.582 10.4102 13.5 10.6198 13.5 10.875C13.5 11.1302 13.582 11.3398 13.7461 11.5039C13.9102 11.668 14.1198 11.75 14.375 11.75Z" fill="#27292E"/>
</g></symbol><symbol id="tver" viewBox="0 0 24 24"><g fill="none">
<path d="M20 22C20 22.5523 20.4477 23 21 23H3C3.55228 23 4 22.5523 4 22V13.999C4 13.4481 3.55449 13.001 3.00363 12.999C2.45067 12.997 2 12.5453 2 11.992C2 11.6212 2.2008 11.2845 2.52442 11.1087L2.52593 11.1079L11.1223 6.41791C11.1259 6.41641 11.1366 6.41205 11.1581 6.40438C11.1736 6.39886 11.187 6.39424 11.2058 6.38782C11.2146 6.38478 11.2247 6.38133 11.2367 6.3772C11.2689 6.36607 11.3119 6.35109 11.358 6.33334C11.7442 6.18481 11.999 5.81377 11.999 5.4C11.999 5.8165 12.2572 6.18939 12.647 6.336C12.6908 6.35247 12.732 6.3667 12.7627 6.37724C12.7695 6.37957 12.7757 6.38171 12.7815 6.3837C12.8051 6.39179 12.8213 6.39733 12.8381 6.40337C12.8608 6.41149 12.8714 6.41597 12.8746 6.41731L21.4742 11.1079L21.4761 11.1089C21.798 11.2836 22 11.6218 22 11.992C22 12.5456 21.55 12.997 20.9964 12.999C20.4455 13.001 20 13.4481 20 13.999V22ZM11.999 5C11.999 4.94082 11.9939 4.88284 11.984 4.82649V1.417C11.984 1.18674 12.1708 1 12.401 1C12.4812 1 12.5569 1.02218 12.621 1.06236C12.6552 1.08381 12.6907 1.10317 12.7273 1.12033L14.7935 2.08966L12.4718 3.53029C12.1778 3.71268 11.999 4.03406 11.999 4.38V5Z" fill="white" stroke="#27292E" stroke-width="2" stroke-linejoin="round"/>
<path d="M8 14V22M12 14V22M16 14V22" stroke="#27292E" stroke-width="2" stroke-linecap="round" stroke-linejoin="round"/>
</g></symbol><symbol id="user" viewBox="0 0 24 24"><g fill="none">
<path d="M15.5714 7.07143C15.5714 9.04387 13.9725 10.6429 12 10.6429C10.0276 10.6429 8.42859 9.04387 8.42859 7.07143C8.42859 5.09898 10.0276 3.5 12 3.5C13.9725 3.5 15.5714 5.09898 15.5714 7.07143Z" stroke="#27292E" stroke-width="2"/>
<path d="M5.14282 19.5C5.14704 15.7147 7.04758 10.881 12 10.881C16.9523 10.881 18.8529 15.7147 18.8571 19.5" stroke="#27292E" stroke-width="2" stroke-linecap="round"/>
</g></symbol><symbol id="vk-about" viewBox="0 0 32 32"><g fill="none">
<path fill-rule="evenodd" clip-rule="evenodd" d="M3.73992 6.66602C2.66992 8.52202 2.66992 11.014 2.66992 15.999C2.66992 20.983 2.66992 23.476 3.74192 25.332C4.44404 26.5481 5.45387 27.5579 6.66992 28.26C8.52592 29.332 11.0189 29.332 16.0029 29.332C20.9879 29.332 23.4799 29.332 25.3369 28.26C26.553 27.5579 27.5628 26.5481 28.2649 25.332C29.3369 23.476 29.3369 20.983 29.3369 15.999C29.3369 11.014 29.3369 8.52202 28.2649 6.66602C27.5629 5.4496 26.5531 4.43941 25.3369 3.73702C23.4799 2.66602 20.9869 2.66602 16.0029 2.66602C11.0189 2.66602 8.52592 2.66602 6.66992 3.73702C5.45301 4.43913 4.44245 5.44934 3.73992 6.66602ZM7.66892 10.999H9.61292C10.1099 10.999 10.2969 11.216 10.4829 11.755C11.4349 14.525 13.0379 16.946 13.6969 16.946C13.9449 16.946 14.0569 16.832 14.0569 16.204V13.341C14.0129 12.526 13.7279 12.173 13.5169 11.912C13.3869 11.752 13.2849 11.625 13.2849 11.446C13.2849 11.228 13.4709 10.999 13.7799 10.999H16.8359C17.2479 10.999 17.3909 11.219 17.3909 11.714V15.566C17.3909 15.978 17.5709 16.122 17.6939 16.122C17.9409 16.122 18.1469 15.978 18.5999 15.525C19.9999 13.959 20.9899 11.549 20.9899 11.549C21.1129 11.26 21.3409 10.999 21.8359 10.999H23.7799C24.3679 10.999 24.4919 11.302 24.3679 11.714C24.1379 12.766 22.0799 15.718 21.7869 16.134L21.7519 16.184C21.5459 16.514 21.4639 16.678 21.7519 17.049C21.8529 17.191 22.0699 17.404 22.3179 17.646C22.5729 17.896 22.8609 18.178 23.0909 18.45C23.9259 19.39 24.5559 20.182 24.7309 20.729C24.8909 21.277 24.6129 21.555 24.0579 21.555H22.1129C21.5929 21.555 21.3299 21.263 20.7629 20.632C20.5229 20.365 20.2279 20.037 19.8359 19.645C18.6829 18.532 18.1879 18.388 17.8999 18.388C17.5079 18.388 17.3909 18.498 17.3909 19.054V20.798C17.3909 21.277 17.2379 21.555 16.0019 21.555C13.9419 21.555 11.6789 20.304 10.0719 17.997C7.66192 14.618 7.00192 12.064 7.00192 11.549C7.00192 11.26 7.11292 10.999 7.66892 10.999Z" fill="#45668E"/>
</g></symbol><symbol id="vk" viewBox="0 0 32 32"><g fill="none">
<path fill-rule="evenodd" clip-rule="evenodd" d="M3.74004 6.66602C2.67004 8.52202 2.67004 11.014 2.67004 15.999C2.67004 20.983 2.67004 23.476 3.74204 25.332C4.44416 26.5481 5.45399 27.5579 6.67004 28.26C8.52604 29.332 11.019 29.332 16.003 29.332C20.988 29.332 23.48 29.332 25.337 28.26C26.5531 27.5579 27.5629 26.5481 28.265 25.332C29.337 23.476 29.337 20.983 29.337 15.999C29.337 11.014 29.337 8.52202 28.265 6.66602C27.5631 5.4496 26.5532 4.43941 25.337 3.73702C23.48 2.66602 20.987 2.66602 16.003 2.66602C11.019 2.66602 8.52604 2.66602 6.67004 3.73702C5.45313 4.43913 4.44258 5.44934 3.74004 6.66602ZM7.66904 10.999H9.61304C10.11 10.999 10.297 11.216 10.483 11.755C11.435 14.525 13.038 16.946 13.697 16.946C13.945 16.946 14.057 16.832 14.057 16.204V13.341C14.013 12.526 13.728 12.173 13.517 11.912C13.387 11.752 13.285 11.625 13.285 11.446C13.285 11.228 13.471 10.999 13.78 10.999H16.836C17.248 10.999 17.391 11.219 17.391 11.714V15.566C17.391 15.978 17.571 16.122 17.694 16.122C17.941 16.122 18.147 15.978 18.6 15.525C20 13.959 20.99 11.549 20.99 11.549C21.113 11.26 21.341 10.999 21.836 10.999H23.78C24.368 10.999 24.492 11.302 24.368 11.714C24.138 12.766 22.08 15.718 21.787 16.134L21.752 16.184C21.546 16.514 21.464 16.678 21.752 17.049C21.853 17.191 22.07 17.404 22.318 17.646C22.573 17.896 22.861 18.178 23.091 18.45C23.926 19.39 24.556 20.182 24.731 20.729C24.891 21.277 24.613 21.555 24.058 21.555H22.113C21.593 21.555 21.33 21.263 20.763 20.632C20.523 20.365 20.228 20.037 19.836 19.645C18.683 18.532 18.188 18.388 17.9 18.388C17.508 18.388 17.391 18.498 17.391 19.054V20.798C17.391 21.277 17.238 21.555 16.002 21.555C13.942 21.555 11.679 20.304 10.072 17.997C7.66204 14.618 7.00204 12.064 7.00204 11.549C7.00204 11.26 7.11304 10.999 7.66904 10.999Z" fill="currentColor"/>
</g></symbol><symbol id="web" viewBox="0 0 24 24"><g fill="none">
<path d="M15 12C15 12.6875 14.9688 13.3542 14.9062 14H9.09375C9.03125 13.3542 9 12.6875 9 12C9 11.3125 9.03125 10.6458 9.09375 10H14.9062C14.9688 10.6458 15 11.3125 15 12ZM15.9062 10H19.75C19.9167 10.6458 20 11.3125 20 12C20 12.6875 19.9167 13.3542 19.75 14H15.9062C15.9688 13.3542 16 12.6875 16 12C16 11.3125 15.9688 10.6458 15.9062 10ZM19.4062 9H15.7812C15.4479 6.95833 14.8646 5.375 14.0312 4.25C15.2812 4.60417 16.375 5.1875 17.3125 6C18.2292 6.83333 18.9271 7.83333 19.4062 9ZM14.75 9H9.25C9.4375 7.85417 9.71875 6.86458 10.0938 6.03125C10.4271 5.30208 10.7708 4.77083 11.125 4.4375C11.4792 4.125 11.7708 3.97917 12 4C12.2292 3.97917 12.5208 4.125 12.875 4.4375C13.2292 4.77083 13.5729 5.30208 13.9062 6.03125C14.2812 6.86458 14.5625 7.85417 14.75 9ZM8.21875 9H4.59375C5.07292 7.83333 5.77083 6.83333 6.6875 6C7.625 5.1875 8.71875 4.60417 9.96875 4.25C9.13542 5.375 8.55208 6.95833 8.21875 9ZM4.25 10H8.09375C8.03125 10.6458 8 11.3125 8 12C8 12.6875 8.03125 13.3542 8.09375 14H4.25C4.08333 13.3542 4 12.6875 4 12C4 11.3125 4.08333 10.6458 4.25 10ZM10.0938 17.9688C9.71875 17.1354 9.4375 16.1458 9.25 15H14.75C14.5625 16.1458 14.2812 17.1354 13.9062 17.9688C13.5729 18.6979 13.2292 19.2292 12.875 19.5625C12.5208 19.875 12.2292 20.0208 12 20C11.7708 20.0208 11.4792 19.875 11.125 19.5625C10.7708 19.2292 10.4271 18.6979 10.0938 17.9688ZM8.21875 15C8.55208 17.0417 9.13542 18.625 9.96875 19.75C8.71875 19.3958 7.625 18.8125 6.6875 18C5.77083 17.1667 5.07292 16.1667 4.59375 15H8.21875ZM19.4062 15C18.9271 16.1667 18.2292 17.1667 17.3125 18C16.375 18.8125 15.2917 19.3958 14.0625 19.75C14.875 18.625 15.4479 17.0417 15.7812 15H19.4062Z" fill="#C5AAFA"/>
</g></symbol><symbol id="what-do" viewBox="0 0 40 40"><g fill="none">
<rect width="40" height="40" rx="20" fill="#D0EB81"/>
<path d="M25.9062 18.2363C26.2161 18.2546 26.4714 18.3639 26.6719 18.5645C26.8906 18.7832 27 19.0475 27 19.3574V20.2871C26.9818 20.7428 26.7721 21.071 26.3711 21.2715L19.6992 24.3887L17.9492 26.1387C17.3477 26.7038 16.6641 26.9863 15.8984 26.9863C15.0964 26.9681 14.4219 26.6947 13.875 26.166C13.3099 25.6191 13.0182 24.9264 13 24.0879C13 23.3405 13.2826 22.666 13.8477 22.0645L15.5977 20.3145L18.7148 13.6426C18.9154 13.2415 19.2435 13.0319 19.6992 13.0137H20.6562C20.9661 13.0137 21.2305 13.123 21.4492 13.3418C21.6497 13.5423 21.7773 13.7884 21.832 14.0801V15.2012H23.7734C24.0651 15.2012 24.3112 15.3014 24.5117 15.502C24.7122 15.7025 24.8216 15.9577 24.8398 16.2676V18.2363H25.9062ZM23.5 16.4863H21.8047L21.0117 18.9746L23.5 18.1816V16.4863ZM15.3242 22.4473L17.5664 24.6895L18.1406 24.1152L15.8984 21.873L15.3242 22.4473ZM19.8359 14.2988L18.7422 16.6777L20.4375 15.666V14.2988H19.8359ZM20.1367 17.3613L17.7852 18.7559L16.7734 20.8613L17.4844 21.5723L19.4258 19.6582L20.1367 17.3613ZM15.8984 25.7012C16.263 25.7012 16.6094 25.5645 16.9375 25.291L14.7227 23.0762C14.4492 23.3861 14.3125 23.7324 14.3125 24.1152C14.349 24.6803 14.5404 25.0814 14.8867 25.3184C15.2331 25.5736 15.5703 25.7012 15.8984 25.7012ZM19.125 23.2402L21.2578 22.2285L22.625 19.877L20.3555 20.5879L18.4141 22.5293L19.125 23.2402ZM25.6875 20.1777H25.6602V19.5762H24.293L23.3359 21.2715L25.6875 20.1777Z" fill="#27292E"/>
</g></symbol><symbol id="what-see" viewBox="0 0 40 40"><g fill="none">
<rect width="40" height="40" rx="20" fill="#D0EB81"/>
<path d="M23.2812 13.6562V13.875H26.5625C26.9271 13.8932 27.237 14.0208 27.4922 14.2578C27.7292 14.513 27.8568 14.8229 27.875 15.1875V22.625H28.0938C28.4948 22.6615 28.7135 22.8802 28.75 23.2812C28.7135 23.6823 28.4948 23.901 28.0938 23.9375H20.6562V26.3438C20.6198 26.7448 20.401 26.9635 20 27C19.599 26.9635 19.3802 26.7448 19.3438 26.3438V23.9375H11.9062C11.5052 23.901 11.2865 23.6823 11.25 23.2812C11.2865 22.8802 11.5052 22.6615 11.9062 22.625H12.125V15.1875C12.1432 14.8229 12.2708 14.513 12.5078 14.2578C12.763 14.0208 13.0729 13.8932 13.4375 13.875H16.7188V13.6562C16.7552 13.2552 16.974 13.0365 17.375 13C17.776 13.0365 17.9948 13.2552 18.0312 13.6562V13.875H21.9688V13.6562C22.0052 13.2552 22.224 13.0365 22.625 13C23.026 13.0365 23.2448 13.2552 23.2812 13.6562ZM26.5625 22.625V15.1875H23.2812V16.5H23.5C23.901 16.5365 24.1198 16.7552 24.1562 17.1562C24.1198 17.5573 23.901 17.776 23.5 17.8125H21.75C21.349 17.776 21.1302 17.5573 21.0938 17.1562C21.1302 16.7552 21.349 16.5365 21.75 16.5H21.9688V15.1875H18.0312V16.5H18.25C18.651 16.5365 18.8698 16.7552 18.9062 17.1562C18.8698 17.5573 18.651 17.776 18.25 17.8125H16.5C16.099 17.776 15.8802 17.5573 15.8438 17.1562C15.8802 16.7552 16.099 16.5365 16.5 16.5H16.7188V15.1875H13.4375V22.625H26.5625Z" fill="#27292E"/>
</g></symbol><symbol id="where-eat" viewBox="0 0 40 40"><g fill="none">
<rect width="40" height="40" rx="20" fill="#D0EB81"/>
<path d="M15.7344 13.7391L15.2969 17.6219V18.0321C15.2969 18.342 15.4062 18.5972 15.625 18.7977C15.8255 19.0165 16.0807 19.1259 16.3906 19.1259H18.1406C18.4505 19.1259 18.7057 19.0165 18.9062 18.7977C19.125 18.5972 19.2344 18.342 19.2344 18.0321V17.6219L18.7969 13.7391C18.7969 13.3381 18.9883 13.092 19.3711 13.0009C19.7721 13.0009 20.0182 13.1923 20.1094 13.5751L20.5469 17.5126V18.0321C20.5286 18.7066 20.2917 19.2717 19.8359 19.7274C19.3802 20.1831 18.8151 20.4201 18.1406 20.4384H17.9219V26.3446C17.8854 26.7456 17.6667 26.9644 17.2656 27.0009C16.8646 26.9644 16.6458 26.7456 16.6094 26.3446V20.4384H16.3906C15.7161 20.4201 15.151 20.1831 14.6953 19.7274C14.2396 19.2717 14.0026 18.7066 13.9844 18.0321V17.5126L14.4219 13.5751C14.513 13.1923 14.7591 13.0009 15.1602 13.0009C15.543 13.092 15.7344 13.3381 15.7344 13.7391ZM17.9219 13.6571V17.5946C17.8854 17.9956 17.6667 18.2144 17.2656 18.2509C16.8646 18.2144 16.6458 17.9956 16.6094 17.5946V13.6571C16.6458 13.2561 16.8646 13.0373 17.2656 13.0009C17.6667 13.0373 17.8854 13.2561 17.9219 13.6571ZM22.9531 17.8134V20.8759C22.9714 21.1493 23.1172 21.2951 23.3906 21.3134H24.7031V14.5048C24.5026 14.5959 24.293 14.7326 24.0742 14.9149C23.8008 15.1519 23.5456 15.4983 23.3086 15.954C23.0898 16.4097 22.9714 17.0295 22.9531 17.8134ZM24.7031 22.6259H23.3906C22.8984 22.6076 22.4883 22.4344 22.1602 22.1063C21.832 21.7782 21.6589 21.368 21.6406 20.8759V17.8134C21.6771 16.5191 21.9505 15.5165 22.4609 14.8055C22.9531 14.1128 23.4818 13.6389 24.0469 13.3837C24.5938 13.1102 24.9583 12.9826 25.1406 13.0009C25.3958 13.0009 25.6055 13.0829 25.7695 13.2469C25.9336 13.411 26.0156 13.6206 26.0156 13.8759V26.3446C25.9792 26.7456 25.7604 26.9644 25.3594 27.0009C24.9583 26.9644 24.7396 26.7456 24.7031 26.3446V22.6259Z" fill="#27292E"/>
</g></symbol><symbol id="where-go" viewBox="0 0 40 40"><g fill="none">
<rect width="40" height="40" rx="20" fill="#D0EB81"/>
<path d="M15.625 14.75C15.625 14.4948 15.707 14.2852 15.8711 14.1211C16.0352 13.957 16.2448 13.875 16.5 13.875H17.375C17.6302 13.875 17.8398 13.957 18.0039 14.1211C18.168 14.2852 18.25 14.4948 18.25 14.75V15.1875H15.625V14.75ZM14.6406 17.3203C14.7135 16.9557 14.8867 16.6549 15.1602 16.418C15.4336 16.181 15.7617 16.0625 16.1445 16.0625H18.4688C18.8698 16.099 19.0885 16.3177 19.125 16.7188V17.375H20.875V16.7188C20.9115 16.3177 21.1302 16.099 21.5312 16.0625H23.8555C24.2383 16.0625 24.5664 16.181 24.8398 16.418C25.1133 16.6549 25.2865 16.9557 25.3594 17.3203L25.4961 18.0586C25.6055 18.6055 25.806 19.125 26.0977 19.6172L26.1523 19.7266C26.7174 20.6745 27 21.6862 27 22.7617V24.5938C26.9818 25.0312 26.8359 25.3958 26.5625 25.6875C26.2708 25.9609 25.9062 26.1068 25.4688 26.125H22.4062C21.9688 26.1068 21.6042 25.9609 21.3125 25.6875C21.0391 25.3958 20.8932 25.0312 20.875 24.5938V20.875H19.125V24.5938C19.1068 25.0312 18.9609 25.3958 18.6875 25.6875C18.3958 25.9609 18.0312 26.1068 17.5938 26.125H14.5312C14.0938 26.1068 13.7292 25.9609 13.4375 25.6875C13.1641 25.3958 13.0182 25.0312 13 24.5938V22.7617C13 21.668 13.2826 20.6562 13.8477 19.7266L13.9023 19.6172C14.194 19.125 14.3945 18.6055 14.5039 18.0586L14.6406 17.3203ZM16.1445 17.375C16.0169 17.375 15.944 17.4388 15.9258 17.5664L15.7891 18.3047C15.6615 19.0156 15.4154 19.6719 15.0508 20.2734L14.9688 20.4102C14.5312 21.1393 14.3125 21.9232 14.3125 22.7617V24.5938C14.3307 24.7214 14.4036 24.7943 14.5312 24.8125H17.5938C17.7214 24.7943 17.7943 24.7214 17.8125 24.5938V17.375H16.1445ZM23.8555 17.375H22.1875V24.5938C22.2057 24.7214 22.2786 24.7943 22.4062 24.8125H25.4688C25.5964 24.7943 25.6693 24.7214 25.6875 24.5938V22.7617C25.6875 21.9232 25.4688 21.1393 25.0312 20.4102L24.9766 20.2734C24.5938 19.6719 24.3385 19.0156 24.2109 18.3047L24.0742 17.5664C24.056 17.4388 23.9831 17.375 23.8555 17.375ZM22.625 13.875H23.5C23.7552 13.875 23.9648 13.957 24.1289 14.1211C24.293 14.2852 24.375 14.4948 24.375 14.75V15.1875H21.75V14.75C21.75 14.4948 21.832 14.2852 21.9961 14.1211C22.1602 13.957 22.3698 13.875 22.625 13.875Z" fill="#27292E"/>
</g></symbol><symbol id="where-stay" viewBox="0 0 40 40"><g fill="none">
<rect width="40" height="40" rx="20" fill="#D0EB81"/>
<path d="M12.5625 14.4219V17.2656H25.4688C26.3984 17.2839 27.1732 17.6029 27.793 18.2227C28.4128 18.8424 28.7318 19.6172 28.75 20.5469V25.5781C28.7135 25.9792 28.4948 26.1979 28.0938 26.2344C27.6927 26.1979 27.474 25.9792 27.4375 25.5781V23.3906H12.5625V25.3594C12.526 25.7604 12.3073 25.9792 11.9062 26.0156C11.5052 25.9792 11.2865 25.7604 11.25 25.3594V14.4219C11.2865 14.0208 11.5052 13.8021 11.9062 13.7656C12.3073 13.8021 12.526 14.0208 12.5625 14.4219ZM27.4375 22.0781V20.5469C27.4193 19.9818 27.2279 19.5169 26.8633 19.1523C26.4987 18.7878 26.0339 18.5964 25.4688 18.5781H12.5625V22.0781H27.4375Z" fill="#27292E"/>
</g></symbol><symbol id="wi-fi" viewBox="0 0 20 20"><g fill="none">
<path d="M2.72656 8.55078C2.54427 8.71484 2.33464 8.79688 2.09766 8.79688C1.87891 8.79688 1.67839 8.70573 1.49609 8.52344C1.33203 8.34115 1.25 8.13151 1.25 7.89453C1.25 7.65755 1.34115 7.45703 1.52344 7.29297C2.63542 6.21745 3.91146 5.37891 5.35156 4.77734C6.79167 4.19401 8.34115 3.89323 10 3.875C11.6589 3.89323 13.2083 4.19401 14.6484 4.77734C16.0885 5.37891 17.3646 6.21745 18.4766 7.29297C18.6589 7.45703 18.75 7.65755 18.75 7.89453C18.75 8.13151 18.668 8.34115 18.5039 8.52344C18.3216 8.70573 18.1211 8.79688 17.9023 8.79688C17.6654 8.79688 17.4557 8.71484 17.2734 8.55078C16.3255 7.63932 15.2318 6.92839 13.9922 6.41797C12.7526 5.88932 11.4219 5.625 10 5.625C8.57812 5.625 7.2474 5.88932 6.00781 6.41797C4.76823 6.92839 3.67448 7.63932 2.72656 8.55078ZM10 10C8.41406 10.0365 7.0651 10.5469 5.95312 11.5312C5.7526 11.6953 5.54297 11.7682 5.32422 11.75C5.08724 11.7318 4.88672 11.6315 4.72266 11.4492C4.55859 11.2669 4.48568 11.0573 4.50391 10.8203C4.52214 10.5833 4.6224 10.3828 4.80469 10.2188C5.4974 9.59896 6.28125 9.11589 7.15625 8.76953C8.04948 8.42318 8.9974 8.25 10 8.25C11.0026 8.25 11.9505 8.42318 12.8438 8.76953C13.7188 9.11589 14.5117 9.59896 15.2227 10.2188C15.4049 10.3828 15.4961 10.5833 15.4961 10.8203C15.5143 11.0573 15.4414 11.2669 15.2773 11.4492C15.1133 11.6315 14.9128 11.7318 14.6758 11.75C14.457 11.7682 14.2474 11.6953 14.0469 11.5312C12.9349 10.5469 11.5859 10.0365 10 10ZM11.75 14.375C11.7318 15.0312 11.4401 15.5326 10.875 15.8789C10.2917 16.207 9.70833 16.207 9.125 15.8789C8.5599 15.5326 8.26823 15.0312 8.25 14.375C8.26823 13.7188 8.5599 13.2174 9.125 12.8711C9.70833 12.543 10.2917 12.543 10.875 12.8711C11.4401 13.2174 11.7318 13.7188 11.75 14.375Z" fill="#27292E"/>
</g></symbol>
<symbol id="glob" viewBox="0 0 16 16"><g fill="black">
  <path d="M0 8a8 8 0 1 1 16 0A8 8 0 0 1 0 8m7.5-6.923c-.67.204-1.335.82-1.887 1.855A8 8 0 0 0 5.145 4H7.5zM4.09 4a9.3 9.3 0 0 1 .64-1.539 7 7 0 0 1 .597-.933A7.03 7.03 0 0 0 2.255 4zm-.582 3.5c.03-.877.138-1.718.312-2.5H1.674a7 7 0 0 0-.656 2.5zM4.847 5a12.5 12.5 0 0 0-.338 2.5H7.5V5zM8.5 5v2.5h2.99a12.5 12.5 0 0 0-.337-2.5zM4.51 8.5a12.5 12.5 0 0 0 .337 2.5H7.5V8.5zm3.99 0V11h2.653c.187-.765.306-1.608.338-2.5zM5.145 12q.208.58.468 1.068c.552 1.035 1.218 1.65 1.887 1.855V12zm.182 2.472a7 7 0 0 1-.597-.933A9.3 9.3 0 0 1 4.09 12H2.255a7 7 0 0 0 3.072 2.472M3.82 11a13.7 13.7 0 0 1-.312-2.5h-2.49c.062.89.291 1.733.656 2.5zm6.853 3.472A7 7 0 0 0 13.745 12H11.91a9.3 9.3 0 0 1-.64 1.539 7 7 0 0 1-.597.933M8.5 12v2.923c.67-.204 1.335-.82 1.887-1.855q.26-.487.468-1.068zm3.68-1h2.146c.365-.767.594-1.61.656-2.5h-2.49a13.7 13.7 0 0 1-.312 2.5m2.802-3.5a7 7 0 0 0-.656-2.5H12.18c.174.782.282 1.623.312 2.5zM11.27 2.461c.247.464.462.98.64 1.539h1.835a7 7 0 0 0-3.072-2.472c.218.284.418.598.597.933M10.855 4a8 8 0 0 0-.468-1.068C9.835 1.897 9.17 1.282 8.5 1.077V4z"/>
</g></symbol>
</svg>